<?xml version="1.0" encoding="utf-8"?>
<!-- Generator: Adobe Illustrator 25.0.0, SVG Export Plug-In . SVG Version: 6.00 Build 0)  -->
<svg version="1.1" id="圖層_1" xmlns="http://www.w3.org/2000/svg" xmlns:xlink="http://www.w3.org/1999/xlink" x="0px" y="0px"
	 viewBox="0 0 83.2 71.5" style="enable-background:new 0 0 83.2 71.5;" xml:space="preserve">
<style type="text/css">
	.st0{fill:#005CA1;stroke:#005CA1;stroke-width:2;stroke-miterlimit:10;}
	.st1{fill:#FFFFFF;}
	.st2{fill:#FFFFFF;stroke:#005CA1;stroke-width:2;stroke-miterlimit:10;}
</style>
<path class="st0" d="M80.9,52.3c-0.1-0.4-0.1-0.8-0.2-1.3c-0.6-5.4-1.2-18.4-7.6-11c-1.7,1.9-3.2,3.9-4.7,6c-2.2,3.3-4.2,6.7-6,10.3
	c0.1-1.7,0.2-3.4,0.2-5.2c0.5-3.4,0.6-6.9,0.8-10.4c0.1-2.2,0.2-4.4,0.2-6.6c0-1.9,0.1-3.7,0.1-5.6c0.2-2.8,0.2-5.6,0-8.4
	c-0.2-2.1,0-9.1-3.6-7.7c-1.5,1.5-2.5,3.5-3.6,5.3c-2,4.2-4.3,8.3-6.2,12.5c-0.7,1.5-1.4,3-2.1,4.5c-2.5,5.5-4.8,11.1-7,16.7
	c-1,2.4-1.9,4.9-2.9,7.4c0-0.4,0-0.8,0.1-1c0.1-4.3-0.1-8.5,0.1-12.8c0-5.3,0-10.7-0.1-16c-0.1-5-0.2-10-0.3-15
	c-0.4-3.8-0.5-9-2.8-12.1c-1.2-1.4-3.4-1.1-4.5,0.3c-4.2,4.7-7.3,10.3-10.4,15.7c-0.3,0.6-0.7,1.2-1,1.8c-3.2,5.8-6.1,11.8-8.8,17.9
	C7.8,43.7,5.8,50.1,4,56.5c-0.9,3.5-1.9,7-2.7,10.6c0,0.6-0.7,1.9-0.3,2.5c-0.1,0.5,0.4,0.9,1,0.8c12.7-0.4,25.3-0.3,38-0.4
	C52,70,64,70.4,75.9,69.9c1.6-0.1,3.2-0.1,4.8-0.1c0.3,0,0.4-0.1,0.5-0.3c0,0,0.1,0,0.1,0C83.4,70.2,80.9,54.2,80.9,52.3L80.9,52.3z
	"/>
<path class="st1" d="M18.2,47.3c-0.6,0-0.8-0.7-0.7-1.2c0.4-1.5,0.8-3.2,1.9-4.3c0.3-0.5,1-0.6,1.3-0.1c0.3,0.4,0,1-0.1,1.4
	C20.1,43.9,19.3,47.3,18.2,47.3L18.2,47.3z"/>
<path class="st2" d="M72.8,41.5c-1.7,1.9-3.2,3.9-4.7,6c-0.5,2.5-1,6.4,0,7.4c1.8,1.2,3.7-1.9,4.7-3.1c0,0.8-0.2,1.7,0.1,2.5
	c1,1.4,2.8,0.1,3.4-1c0.2,0.9-0.3,2.9,0.9,3.1c1.1-0.2,2.3-2.1,3.2-4C79.8,47.1,79.2,34.1,72.8,41.5z"/>
<path class="st2" d="M63.6,23.3c-0.2-2.1,0-9.1-3.6-7.7c-1.5,1.5-2.5,3.5-3.6,5.3c-2,4.2-4.3,8.3-6.2,12.5c-0.7,1.5-1.4,3-2.1,4.5
	c-0.1,1.3-0.1,2.6,0.3,3.7c2,1.9,4.3-2.1,5.2-3.6c-0.1,1.2-0.4,4.1,1.1,4.5c1.7-0.1,2.8-1.9,3.5-3.2c0.2,1.7,1,4,3,2.4
	c1.1-1.1,1.6-2.5,2.2-3.9c0-0.1,0.1-0.2,0.1-0.3c0-1.9,0.1-3.7,0.1-5.6C63.9,29,63.8,26.1,63.6,23.3L63.6,23.3z"/>
<path class="st2" d="M37.5,15c-0.4-3.8-0.5-9-2.8-12.1c-1.2-1.4-3.4-1.1-4.5,0.3C26,8,23,13.5,19.9,18.9c-0.3,0.6-0.7,1.2-1,1.8
	c-0.3,1.4-0.5,2.7-0.7,4.1c-0.4,2.3-0.7,4.7-0.7,7c0,1.2-0.1,3.1,1.5,3.2c3.8-0.5,5.5-5.8,7.1-8.7c0,2-1,7.2,0.8,8.5
	c2.5,0.7,4.4-4.1,5.4-5.8c0,1.7-0.4,3.7,0.5,5.3c1.9,1.7,3.7-1.3,4.4-2.8c0.2-0.5,0.5-1,0.7-1.5C37.8,25,37.7,20,37.5,15L37.5,15z"
	/>
<path class="st1" d="M12.9,44.7c-1.4-0.4,0-2.1,0.2-3c0.2-0.3,0.2-0.8,0.5-1c0.4-0.3,1.1,0,1,0.5c0.4,0.7-0.2,1.5-0.5,2.1
	C13.9,44,13.6,44.8,12.9,44.7L12.9,44.7z"/>
<path class="st1" d="M64.5,60.9c-1.7-0.3,0.2-2.8,0.6-3.6c0.3-0.6,1.6-0.7,1.6,0.2C66.6,58.3,65.4,60.9,64.5,60.9z"/>
<path class="st1" d="M52,49.3c-0.6-0.4-0.2-1.2,0-1.7c0.5-1,0.8-2.2,1.7-2.8c0.7-0.3,1.3,0.8,0.6,1.2C54,46.9,53.2,49.9,52,49.3z"/>
<path class="st1" d="M45.2,56.5c-1-0.1-0.7-1.2-0.4-1.8c0.4-1,0.8-2,1.5-2.8c0.6-0.5,1.4,0.4,0.9,0.9C47.5,53.8,46.2,56.5,45.2,56.5
	z"/>
<path class="st1" d="M46.6,49.8c-1.7-0.2,0.7-4.2,1.1-5c0.4-0.9,1.8-0.7,1.4,0.3C49.3,46.1,47.6,50.1,46.6,49.8z"/>
<path class="st1" d="M64,66.3c-0.6-0.8,0.3-1.9,0.5-2.8c0.2-0.7,0.8-2.2,1.7-1.3c1.1,0.4,0.1,1.7-0.1,2.4C65.7,65.4,65,67.1,64,66.3
	z"/>
<path class="st1" d="M70.3,63c-0.9-0.2-0.5-1.2-0.2-1.7c0.4-0.9,0.8-1.8,1.3-2.7c0.3-0.4,0.5-1,1.1-1.1c0.4,0,0.9,0.4,0.9,0.8
	C73.2,59.4,71.5,63.1,70.3,63L70.3,63z"/>
<path class="st1" d="M49.7,57.2c-1.3-0.5,0.8-4.7,1.2-5.7c0.4-0.7,1.5-0.1,1.1,0.6c0.7,0.8-0.1,1.9-0.3,2.8
	C51.3,55.8,50.9,57.5,49.7,57.2z"/>
<path class="st1" d="M7.5,56.7c-0.5-1,1-3.9,1.5-4.9c0.4-0.8,1.7-0.5,1.4,0.4c0.2,1.2-0.5,2.3-0.9,3.4C9.2,56.4,8.3,57.7,7.5,56.7z"
	/>
<path class="st1" d="M44.8,63.8c-0.9-0.4-0.3-1.5-0.1-2.2c0.4-0.8,0.8-3,1.9-2.9c0.3-0.2,0.7,0,0.9,0.2c0.4,0.6-0.2,1.4-0.4,2
	C46.6,61.6,46,64.2,44.8,63.8z"/>
<path class="st1" d="M13.9,57.1c-0.7-0.4-0.3-1.3-0.1-1.9c0.5-1.2,0.9-2.7,2.1-3.5c0.3-0.5,1.2-0.7,1.5,0c0.1,0.7-0.4,1.3-0.6,1.9
	C16.2,54.4,15.3,57.8,13.9,57.1z"/>
</svg>
