<svg width="357" height="386" viewBox="0 0 357 386" fill="none" xmlns="http://www.w3.org/2000/svg">
<g clip-path="url(#clip0_2143_1230)">
<path d="M67.0327 171.718C64.2952 177.341 60.5851 188.899 47.4704 183.943C39.1403 180.791 33.2026 174.149 45.1565 159.204C57.1103 144.258 47.5017 126.874 39.2188 111.802C30.9279 96.7234 26.6845 66.9653 49.4391 51.0709C72.2017 35.1764 86.14 42.4767 105.883 49.2124C122.347 54.8269 135.571 74.8067 126.52 94.3239C113.554 122.271 102.024 123.831 89.7011 139.036C78.1315 153.307 71.7781 161.964 67.0248 171.726L67.0327 171.718Z" fill="#F5E83A"/>
<path d="M53.4393 186.335C51.5725 186.335 49.4547 185.943 47.0545 185.033C41.8071 183.049 38.6225 180.132 37.595 176.384C36.2929 171.632 38.5284 165.602 44.2386 158.467C55.6748 144.172 46.4192 127.336 38.2539 112.477L38.1911 112.359C29.7669 97.0294 25.1862 66.5734 48.7723 50.0987C69.9661 35.2942 83.6848 40.1401 101.051 46.2721C102.753 46.868 104.486 47.4875 106.267 48.0913C115.656 51.2906 123.97 59.0849 127.963 68.4318C130.559 74.5011 132.606 84.0127 127.594 94.8103C118.935 113.481 110.769 120.64 102.871 127.564C98.8781 131.061 94.7523 134.676 90.6265 139.773C79.457 153.558 72.8997 162.364 68.0993 172.236C67.8483 172.754 67.5894 173.318 67.3149 173.922C65.0873 178.799 61.6282 186.351 53.4472 186.351L53.4393 186.335ZM75.8332 42.7435C68.1071 42.7435 59.9418 45.1665 50.1136 52.0277C37.7362 60.6767 34.4418 72.9955 33.8614 81.8171C33.2025 91.7678 35.5948 102.761 40.2462 111.23L40.3089 111.348C48.8272 126.85 58.4829 144.415 46.0741 159.933C40.858 166.449 38.7715 171.773 39.8618 175.765C40.6776 178.752 43.3758 181.128 47.886 182.838C58.7496 186.954 62.4596 178.846 65.1657 172.934C65.4481 172.315 65.7148 171.734 65.9736 171.201C70.876 161.125 77.5039 152.209 88.7911 138.291C93.0424 133.045 97.2466 129.359 101.31 125.799C109.381 118.726 117.005 112.046 125.453 93.8301C130.096 83.8088 128.206 74.9951 125.798 69.365C122.056 60.614 114.283 53.3215 105.506 50.3261C103.718 49.7145 101.969 49.1028 100.266 48.4991C91.6697 45.4644 83.9986 42.7592 75.8332 42.7592V42.7435Z" fill="#005CA1"/>
<path d="M44.5367 161.948C45.8153 171.452 68.6249 169.852 68.6249 169.852C68.6249 169.852 61.4478 183.888 55.918 184.853C50.3882 185.817 37.6578 180.454 38.4029 173.679C39.1559 166.904 44.3093 160.301 44.5289 161.948H44.5367Z" fill="#005CA1"/>
<path d="M335.9 156.687C338.779 155.032 345.995 149.041 342.756 143.842C339.516 138.651 326.613 120.091 329.884 117.582C333.147 115.072 334.912 114.014 336.724 116.868C338.536 119.722 357.063 139.906 355.769 144.862C354.474 149.818 342.458 159.674 338.073 162.05C333.696 164.426 335.9 156.687 335.9 156.687Z" fill="#F5E83A"/>
<path d="M336.638 163.673C336.002 163.673 335.54 163.446 335.218 163.187C333.453 161.776 334.316 157.941 334.771 156.357C334.857 156.059 335.053 155.816 335.32 155.659C337.21 154.569 341.391 151.229 342.246 147.818C342.56 146.579 342.395 145.481 341.76 144.454C341.297 143.709 340.63 142.682 339.838 141.474C330.543 127.187 326.088 119.001 329.163 116.641C331.414 114.908 333.147 113.708 334.912 114.022C335.979 114.21 336.896 114.931 337.72 116.225C338.12 116.86 339.642 118.687 341.399 120.804C351.941 133.476 357.855 141.521 356.906 145.152C355.423 150.821 342.701 160.866 338.638 163.077C337.838 163.509 337.179 163.665 336.645 163.665L336.638 163.673ZM336.912 157.447C336.496 159.11 336.379 160.874 336.669 161.329C336.763 161.329 337.022 161.282 337.508 161.015C342.175 158.482 353.494 148.877 354.623 144.564C355.447 141.396 343.924 127.54 339.587 122.318C337.626 119.958 336.214 118.256 335.728 117.495C335.289 116.797 334.873 116.413 334.496 116.343C333.688 116.209 332.19 117.284 330.59 118.507C330.567 118.546 329.767 119.761 333.79 127.148C336.245 131.649 339.587 136.793 341.799 140.196C342.599 141.427 343.273 142.462 343.744 143.215C344.725 144.791 344.983 146.532 344.521 148.39C343.47 152.57 339.014 156.106 336.912 157.439V157.447Z" fill="#005CA1"/>
<path d="M322.189 161.219C322.189 161.219 325.852 172.126 332.222 172.04C338.591 171.954 343.093 163.399 340.865 159.862C338.638 156.326 336.089 152.256 336.089 152.256L322.189 161.227V161.219Z" fill="#F5E83A"/>
<path d="M332.143 173.216C325.06 173.216 321.233 162.074 321.076 161.595C320.903 161.086 321.099 160.521 321.554 160.231L335.453 151.26C335.72 151.088 336.034 151.033 336.347 151.103C336.653 151.174 336.92 151.362 337.085 151.629C337.085 151.629 339.634 155.691 341.862 159.235C343.062 161.148 342.819 164.159 341.218 167.1C339.626 170.017 336.434 173.161 332.237 173.216C332.206 173.216 332.175 173.216 332.143 173.216ZM323.617 161.697C324.872 164.881 328.065 170.864 332.143 170.864C332.159 170.864 332.182 170.864 332.198 170.864C335.383 170.825 337.877 168.307 339.148 165.979C340.309 163.854 340.591 161.642 339.869 160.49C338.324 158.027 336.622 155.322 335.728 153.887L323.617 161.697Z" fill="#005CA1"/>
<path d="M235.304 13.9578C235.304 13.9578 225.186 3.16802 227.374 1.39586C229.563 -0.376289 237.312 8.95496 238.552 10.6565C239.791 12.3581 235.297 13.9578 235.297 13.9578H235.304Z" fill="#F5E83A"/>
<path d="M235.304 15.1338C234.983 15.1338 234.669 15.0005 234.449 14.7652C232.386 12.5696 225.68 5.14384 225.9 1.96808C225.955 1.19178 226.331 0.729142 226.645 0.486059C226.982 0.211611 227.563 -0.086362 228.433 0.0312587C232.269 0.533107 239.446 9.8722 239.516 9.96629C239.948 10.5544 240.065 11.2444 239.862 11.911C239.32 13.6596 236.544 14.7731 235.704 15.071C235.571 15.1181 235.446 15.1416 235.312 15.1416L235.304 15.1338ZM228.253 2.36015C228.472 3.81081 231.704 8.29608 235.618 12.5618C236.536 12.1462 237.352 11.6208 237.563 11.2915C235.296 8.21766 229.978 2.64244 228.245 2.36015H228.253Z" fill="#005CA1"/>
<path d="M235.838 22.1989L230.371 12.162L238.073 5.7085L245.133 13.9576L235.838 22.1989Z" fill="#F5E83A"/>
<path d="M235.838 23.3752C235.767 23.3752 235.704 23.3752 235.634 23.3595C235.281 23.2967 234.975 23.0772 234.802 22.7635L229.335 12.7266C229.069 12.2325 229.186 11.6209 229.61 11.2602L237.312 4.8146C237.806 4.39901 238.544 4.46174 238.96 4.95574L246.011 13.197C246.427 13.6832 246.38 14.4125 245.901 14.8437L236.606 23.085C236.387 23.2811 236.112 23.383 235.822 23.383L235.838 23.3752ZM231.869 12.4443L236.167 20.3405L243.485 13.8479L237.94 7.36305L231.869 12.4443Z" fill="#005CA1"/>
<path d="M232.198 24.4339C232.198 24.4339 236.324 10.1312 249.431 11.0565C261.824 29.3504 335.328 146.101 335.328 146.101L338.387 154.875L320.378 165.822C320.378 165.822 314.675 158.31 306.416 145.701C298.156 133.092 237.752 29.8131 232.198 24.4339Z" fill="#F5E83A"/>
<path d="M320.378 166.998C320.017 166.998 319.672 166.833 319.436 166.535C319.381 166.457 313.616 158.851 305.427 146.352C302.455 141.812 292.658 125.423 281.324 106.455C261.699 73.6072 234.826 28.629 231.375 25.2885C231.061 24.9827 230.943 24.5358 231.061 24.1202C231.108 23.9634 232.19 20.2857 234.959 16.6944C238.709 11.8406 243.729 9.48031 249.502 9.89591C249.862 9.91943 250.192 10.1076 250.396 10.4134C262.655 28.5192 335.579 144.321 336.316 145.489C336.363 145.568 336.402 145.646 336.434 145.732L339.493 154.507C339.673 155.032 339.469 155.612 338.991 155.895L320.982 166.841C320.793 166.959 320.581 167.014 320.37 167.014L320.378 166.998ZM233.524 24.1594C238.638 30.4168 263.338 71.7644 283.339 105.239C294.658 124.192 304.439 140.557 307.388 145.058C313.969 155.095 318.966 161.956 320.668 164.261L336.951 154.366L334.253 146.618C331.61 142.423 261.738 31.4832 248.772 12.2013C244.034 12.0209 240.026 13.997 236.865 18.0588C234.967 20.4975 233.924 23.0381 233.516 24.1672L233.524 24.1594Z" fill="#005CA1"/>
<path d="M314.942 158.302C314.942 158.302 333.79 150.413 335.32 146.101Z" fill="#F5E83A"/>
<path d="M314.942 159.478C314.479 159.478 314.048 159.204 313.859 158.757C313.608 158.161 313.891 157.471 314.487 157.22C322.111 154.028 333.273 148.343 334.214 145.709C334.433 145.097 335.1 144.776 335.72 144.995C336.332 145.215 336.653 145.889 336.434 146.501C334.802 151.072 318.628 158.035 315.397 159.392C315.248 159.455 315.091 159.486 314.942 159.486V159.478Z" fill="#005CA1"/>
<path d="M211.601 144.783C205.396 146.116 199.066 141.208 199.066 132.19C199.066 123.173 205.075 118.577 211.961 120.334C218.848 122.09 219.413 124.333 219.946 132.276C220.48 140.212 216.534 143.733 211.601 144.791V144.783Z" fill="white"/>
<path d="M209.6 146.171C207.161 146.171 204.769 145.332 202.8 143.748C199.631 141.184 197.89 137.083 197.89 132.19C197.89 127.297 199.568 123.322 202.612 120.961C205.255 118.907 208.683 118.28 212.252 119.197C219.758 121.118 220.566 123.941 221.123 132.198C221.797 142.274 215.609 145.136 211.852 145.936C211.106 146.093 210.353 146.171 209.6 146.171ZM211.357 143.631C216.707 142.486 219.201 138.691 218.77 132.347C218.26 124.733 217.931 123.071 211.663 121.471C208.808 120.742 206.11 121.22 204.047 122.82C201.592 124.725 200.235 128.05 200.235 132.19C200.235 136.33 201.67 139.812 204.275 141.921C206.314 143.568 208.824 144.18 211.35 143.639L211.357 143.631Z" fill="#005CA1"/>
<path d="M200.588 287.089C202.431 300.129 225.5 357.685 225.1 366.012C224.707 374.34 226.778 379.586 224.151 383.797C221.523 388.007 238.912 378.574 241.171 367.518C243.43 356.461 242.913 307.359 246.317 296.773C251.447 300.952 277.37 316.204 284.422 316.4C291.473 316.596 307.537 313.828 308.337 323.818C309.137 333.808 314.079 327.143 316.126 321.583C318.173 316.023 316.056 305.877 304.886 302.332C293.709 298.788 285.567 290.5 284.234 286.226C282.9 281.953 200.58 287.081 200.58 287.081L200.588 287.089Z" fill="white"/>
<path d="M224.347 386C223.602 386 223.194 385.663 222.974 385.349C222.566 384.761 222.629 384.032 223.162 383.177C224.621 380.84 224.425 378.025 224.143 374.128C223.978 371.768 223.782 369.086 223.931 365.958C224.127 361.817 217.523 342.872 211.687 326.162C205.835 309.398 200.313 293.566 199.427 287.261L199.247 285.999L200.517 285.92C200.721 285.905 221.35 284.627 241.877 283.89C284.273 282.361 284.932 284.486 285.371 285.889C286.493 289.488 294.093 297.683 305.255 301.219C311.757 303.281 314.871 307.288 316.346 310.284C318.181 314.024 318.526 318.517 317.248 321.991C317.115 322.344 314.063 330.624 310.298 330.122C307.922 329.793 307.38 326.421 307.177 323.912C306.651 317.357 298.25 317.129 288.932 317.482C287.261 317.545 285.685 317.608 284.398 317.568C277.433 317.38 254.451 304.065 247.023 298.757C245.478 305.845 244.85 322.571 244.293 337.47C243.807 350.494 243.344 362.797 242.332 367.745C240.442 376.998 228.637 385.161 224.982 385.922C224.747 385.969 224.543 385.992 224.355 385.992L224.347 386ZM201.968 288.187C203.325 295.064 208.698 310.464 213.907 325.386C220.378 343.947 226.496 361.472 226.276 366.067C226.135 369.055 226.323 371.658 226.48 373.964C226.739 377.547 226.943 380.488 225.813 383.138C229.594 381.303 238.497 374.732 240.011 367.283C240.983 362.523 241.438 350.314 241.924 337.391C242.568 320.242 243.234 302.505 245.195 296.42L245.721 294.781L247.054 295.871C252.576 300.364 278.006 315.059 284.445 315.239C285.653 315.271 287.191 315.216 288.822 315.153C296.76 314.847 308.753 314.393 309.506 323.747C309.796 327.409 310.596 327.809 310.604 327.817C310.62 327.817 310.628 327.817 310.644 327.817C311.271 327.817 313.459 325.441 315.02 321.199C315.852 318.925 316.079 315.145 314.212 311.334C312.942 308.747 310.236 305.289 304.525 303.477C293.175 299.878 284.822 291.464 283.183 286.838C280.696 285.544 256.875 284.815 201.961 288.202L201.968 288.187Z" fill="#005CA1"/>
<path d="M288.085 316.345C286.72 316.392 285.473 316.431 284.422 316.4C277.37 316.204 251.455 300.952 246.317 296.773C244.238 303.226 243.619 324.022 242.944 341.767L219.24 344.472C212.385 324.006 201.812 295.746 200.588 287.089C200.588 287.089 282.908 281.96 284.242 286.234C285.238 289.441 290.069 294.899 297.137 298.929L288.093 316.345H288.085Z" fill="#005CA1"/>
<path d="M205.985 149.057C197.866 138.871 194.572 140.102 172.068 146.587C149.564 153.072 127.453 158.263 100.643 157.541C73.8332 156.82 50.2549 144.493 43.6348 144.336C37.0147 144.179 40.411 145.434 42.6386 146.971C39.1482 147.089 35.8852 148.296 43.8936 152.154C37.7049 151.935 35.6106 153.244 43.8152 157.612C39.5404 157.204 37.1872 157.721 44.78 163.595C52.3727 169.476 63.5814 182.688 94.0073 184.68C124.433 186.672 141.336 186.139 171.7 204.268C202.063 222.397 216.856 162.677 206 149.057H205.985Z" fill="white"/>
<path d="M182.673 208.8C178.924 208.8 175.017 207.632 171.072 205.28C143.588 188.875 127.767 187.919 101.553 186.335C99.0978 186.186 96.5486 186.029 93.9053 185.856C67.1659 184.108 55.1964 173.937 47.2742 167.202C46.1212 166.222 45.0309 165.296 44.0348 164.52C39.5874 161.078 38.1598 159.227 38.7638 157.706C38.9677 157.188 39.352 156.851 39.854 156.639C37.7284 155.181 36.9832 154.036 37.297 152.883C37.5323 152.005 38.2931 151.448 39.7442 151.166C38.1441 150.037 37.5558 149.033 37.7755 147.983C37.9323 147.222 38.4892 146.665 39.4462 146.304C38.7873 145.779 38.4029 145.214 38.6304 144.454C38.9912 143.246 40.4031 143.082 43.6504 143.16C46.0349 143.215 50.1058 144.619 55.7455 146.555C66.5777 150.272 82.9554 155.894 100.659 156.373C128.684 157.126 152.035 151.135 171.731 145.465L173.166 145.05C194.595 138.871 198.454 137.757 206.894 148.335C210.51 152.868 211.64 162.097 209.922 173.012C208.181 184.069 203.773 194.521 198.133 200.967C193.584 206.173 188.297 208.808 182.673 208.808V208.8ZM41.1796 158.71C41.5404 159.243 42.5601 160.395 45.4858 162.662C46.5212 163.461 47.635 164.41 48.8116 165.406C56.4985 171.938 68.1072 181.802 94.07 183.504C96.7133 183.676 99.2468 183.833 101.702 183.982C127.359 185.535 144.309 186.562 172.288 203.256C183.544 209.976 191.599 204.872 196.376 199.406C201.733 193.274 205.93 183.269 207.608 172.628C209.208 162.505 208.228 153.754 205.067 149.786C197.615 140.439 194.909 141.223 173.833 147.3L172.39 147.716C152.529 153.44 128.967 159.494 100.604 158.717C82.5397 158.231 65.958 152.538 54.9846 148.774C49.7528 146.979 45.6192 145.56 43.5955 145.512C43.1876 145.505 42.8268 145.489 42.5209 145.497C42.7876 145.661 43.0464 145.826 43.2974 145.999L46.2232 148.022L42.6621 148.139C41.36 148.186 40.607 148.367 40.2462 148.516C40.5835 148.9 41.5718 149.731 44.3877 151.088L49.4391 153.519L43.8387 153.322C41.4149 153.236 40.2933 153.424 39.7991 153.566C40.1992 154.013 41.313 154.946 44.3563 156.569L49.5646 159.345L43.6896 158.78C42.3091 158.647 41.5718 158.662 41.1796 158.717V158.71Z" fill="#005CA1"/>
<path d="M225.5 139.09C227.272 121.737 235.971 47.3933 286.736 31.7419C291.685 30.2128 296.195 31.4282 293.74 36.6662C301.906 30.1657 302.141 34.604 297.905 38.5795C303.137 36.086 304.745 38.7756 301.043 41.2848C307.279 39.7009 308.251 44.343 302.188 46.4366C296.125 48.5224 263.581 74.3519 263.479 146.399C263.377 218.445 224.033 153.385 225.492 139.083L225.5 139.09Z" fill="white"/>
<path d="M252.717 180.916C250.764 180.916 248.639 180.148 246.364 178.627C241.36 175.263 235.736 168.19 230.928 159.219C227.406 152.64 223.821 143.874 224.315 138.973C226.402 118.554 230.543 100.182 236.638 84.3577C247.768 55.4465 264.507 37.3643 286.383 30.6207C290.101 29.4758 293.207 29.813 294.697 31.5303C295.144 32.04 295.552 32.8006 295.599 33.867C298.431 32.0321 300.305 31.7106 301.317 32.879C302.086 33.7651 301.882 35.0746 301.145 36.4233C302.47 36.3371 303.451 36.7527 303.953 37.6309C304.282 38.2033 304.361 38.9639 303.984 39.8186C305.961 39.9911 307.012 40.987 307.326 42.0456C307.851 43.7942 306.58 46.178 302.572 47.5581C296.36 49.6988 264.758 75.4891 264.663 146.414C264.632 165.743 261.746 177.066 256.067 180.085C255.016 180.642 253.902 180.924 252.717 180.924V180.916ZM225.5 139.091L226.668 139.208C225.931 146.43 237.226 169.641 247.682 176.666C250.553 178.595 253 179.042 254.961 177.999C258.294 176.227 262.279 169.303 262.31 146.399C262.412 74.0933 295.332 47.5502 301.811 45.3233C304.376 44.4372 305.216 43.1669 305.082 42.7121C304.965 42.3122 303.741 41.8182 301.341 42.4298L294.83 44.0843L300.384 40.3126C301.411 39.6148 301.764 39.0502 301.858 38.8071C301.513 38.713 300.439 38.6816 298.423 39.6383L291.599 42.8925L297.105 37.7171C298.564 36.3449 299.192 35.1765 299.38 34.5806C298.768 34.7217 297.325 35.3098 294.47 37.576L290.54 40.7047L292.673 36.1567C293.058 35.3334 293.607 33.8357 292.924 33.0515C292.117 32.1184 289.709 32.04 287.081 32.8476C265.926 39.3717 249.698 56.9756 238.842 85.181C232.826 100.809 228.731 118.977 226.668 139.192L225.5 139.075V139.091Z" fill="#005CA1"/>
<path d="M180.532 144.36C185.426 148.335 181.951 188.758 163.134 200.332C170.68 207.71 194.886 265.58 201.984 296.342C213.522 295.934 230.873 291.378 239.352 291.676C247.831 291.974 282.853 292.123 287.787 291.872C281.041 272.857 281.3 231.493 278.319 209.247C275.339 187.001 273.817 147.943 257.463 142.674C241.101 137.404 229.602 132.872 180.539 144.352L180.532 144.36Z" fill="#F5E83A"/>
<path d="M201.984 297.518C201.435 297.518 200.964 297.141 200.839 296.608C197.615 282.65 190.438 261.494 181.638 240.009C173.355 219.794 165.77 204.55 162.311 201.171C162.052 200.92 161.926 200.559 161.965 200.198C162.005 199.838 162.209 199.516 162.514 199.328C175.661 191.251 180.461 169.374 181.222 157.729C181.739 149.864 180.649 145.967 179.786 145.277C179.441 144.995 179.284 144.54 179.379 144.101C179.48 143.662 179.818 143.325 180.257 143.223C228.229 132.002 240.67 136.024 256.412 141.121L257.816 141.576C272.413 146.281 275.606 174.957 278.17 198.003C278.61 201.986 279.033 205.742 279.48 209.114C280.516 216.853 281.167 226.859 281.841 237.453C283.104 257.033 284.532 279.224 288.893 291.503C289.018 291.856 288.971 292.24 288.759 292.554C288.548 292.868 288.21 293.056 287.842 293.072C282.908 293.323 247.98 293.181 239.305 292.876C235.046 292.719 228.418 293.84 221.397 295.032C214.66 296.169 207.702 297.337 202.023 297.541C202.008 297.541 201.992 297.541 201.984 297.541V297.518ZM164.907 200.567C173.394 211.302 195.756 265.094 202.902 295.118C208.251 294.828 214.73 293.738 221.005 292.68C228.151 291.472 234.904 290.335 239.391 290.5C247.399 290.782 277.81 290.923 286.163 290.751C282.092 277.946 280.712 256.546 279.496 237.586C278.814 227.032 278.17 217.073 277.151 209.412C276.696 206.017 276.272 202.245 275.833 198.254C273.472 177.058 270.248 148.037 257.102 143.803L255.698 143.348C240.481 138.424 228.425 134.527 182.461 145.12C183.975 148.516 183.771 154.914 183.575 157.886C182.806 169.648 177.998 191.479 164.915 200.575L164.907 200.567Z" fill="#005CA1"/>
<path d="M225.696 375.673L240.387 367.502C240.74 367.306 241.156 367.533 241.234 367.957C241.548 369.768 241.642 374.308 236.073 378.433C230.504 382.558 225.892 384.659 223.79 385.553C223.335 385.749 222.88 385.286 223.013 384.777L225.406 376.065C225.453 375.9 225.555 375.759 225.704 375.681L225.696 375.673Z" fill="#005CA1"/>
<path d="M309.208 303.242L304.188 319.223C304.188 319.223 310.149 325.472 309.53 328.342C308.91 331.212 315.828 326.296 316.558 321.058C317.295 315.82 317.436 305.438 310.377 303.242" fill="#005CA1"/>
<path d="M222.888 137.201C214.793 137.797 203.396 131.367 202.988 122.506C202.58 113.653 202.455 110.446 195.207 111.128C187.967 111.803 177.723 115.276 172.876 106.941C168.029 98.5977 168.186 88.7881 174.445 85.6751C180.704 82.5621 185.944 83.2913 189.371 88.796C192.807 94.3006 200.094 95.469 207.051 98.535C214.009 101.601 220.566 114.524 208.259 119.581C217.436 118.93 223.876 121.745 222.888 137.201Z" fill="#005CA1"/>
<path d="M202.384 136.683C201.733 136.683 201.208 136.158 201.208 135.507V129.093C201.208 128.442 201.733 127.917 202.384 127.917C203.035 127.917 203.561 128.442 203.561 129.093V135.507C203.561 136.158 203.035 136.683 202.384 136.683Z" fill="#005CA1"/>
<path d="M206.455 135.319C207.023 135.319 207.483 134.859 207.483 134.292C207.483 133.724 207.023 133.264 206.455 133.264C205.888 133.264 205.427 133.724 205.427 134.292C205.427 134.859 205.888 135.319 206.455 135.319Z" fill="#005CA1"/>
<path d="M74.1234 154.679C73.692 154.679 73.2763 154.444 73.0723 154.036C71.1349 150.209 71.3938 140.22 71.7232 134.613C71.9428 130.873 72.3036 127.07 72.7507 123.596C70.5231 123.047 68.8681 120.42 67.6366 116.915C63.5579 128.544 57.9888 141.372 54.2787 146.947C53.9179 147.488 53.1885 147.637 52.6472 147.277C52.106 146.916 51.957 146.187 52.3178 145.646C56.4985 139.373 62.5303 124.913 66.4993 112.994C65.8247 110.179 65.3384 107.137 64.9933 104.29C64.1932 97.7271 65.911 93.2732 67.9661 91.7598C68.8446 91.1168 69.8407 90.9756 70.6957 91.3677C71.5585 91.7598 72.6331 92.8419 72.8762 95.751C73.1272 98.7464 71.4722 105.396 68.9465 113.049C70.2172 118.013 71.7467 120.663 73.0645 121.236C73.5351 118.044 74.0763 115.268 74.6332 113.269C76.2177 107.607 79.8493 99.1856 83.3633 99.1856C84.2889 99.1856 85.5203 99.7031 86.1871 102.126C87.5283 106.996 82.5319 115.566 78.5551 120.099C77.104 121.753 75.9902 122.655 75.1509 123.149C73.6606 134.182 73.1194 148.931 75.1588 152.977C75.449 153.558 75.2215 154.263 74.6411 154.554C74.4685 154.64 74.2881 154.679 74.1155 154.679H74.1234ZM83.3398 101.53C82.3358 101.53 79.0257 106.321 76.9079 113.896C76.4687 115.464 76.053 117.472 75.6686 119.738C76.3981 119.024 77.2844 118.028 78.2963 116.688C81.7397 112.108 84.783 105.843 83.9359 102.738C83.6535 101.695 83.3555 101.522 83.3476 101.522L83.3398 101.53ZM69.6917 93.5006C69.6211 93.5006 69.4877 93.5633 69.3622 93.6574C68.1935 94.5121 66.6091 98.0799 67.3307 104.008C67.5268 105.576 67.7386 107.035 67.9739 108.384C69.6917 102.714 70.7192 98.0878 70.5467 95.9549C70.3976 94.1906 69.9113 93.5947 69.7309 93.5162C69.7231 93.5162 69.7074 93.5162 69.6995 93.5162L69.6917 93.5006Z" fill="#005CA1"/>
<path d="M1.17651 55.6189L1.83539 61.9939H27.4687V57.7753L1.17651 55.6189Z" fill="#F5E83A"/>
<path d="M27.4688 63.1702H1.83544C1.23147 63.1702 0.729473 62.7154 0.666723 62.1117L4.76174e-06 55.7366C-0.0392139 55.3916 0.0862859 55.0466 0.329442 54.7956C0.572598 54.5447 0.917722 54.4271 1.26285 54.4428L27.5551 56.5992C28.1669 56.6462 28.6375 57.1559 28.6375 57.7754V61.994C28.6375 62.6449 28.112 63.1702 27.4609 63.1702H27.4688ZM2.89434 60.8178H26.2922V58.8575L2.49431 56.905L2.90219 60.8178H2.89434Z" fill="#005CA1"/>
<path d="M24.6921 28.8563L28.7238 24.7944L42.3562 39.1912L36.9441 43.0492L24.6921 28.8563Z" fill="#F5E83A"/>
<path d="M36.9441 44.2254C36.6146 44.2254 36.2852 44.0842 36.0499 43.8176L23.798 29.6169C23.3979 29.1542 23.4215 28.4563 23.8529 28.0172L27.8924 23.9554C28.1199 23.728 28.4336 23.6339 28.7395 23.6104C29.0611 23.6104 29.3592 23.7437 29.5788 23.9789L43.2112 38.3757C43.4465 38.6266 43.5642 38.9559 43.525 39.301C43.4936 39.6381 43.3132 39.944 43.0387 40.1478L37.6265 44.0136C37.4225 44.1626 37.1794 44.2332 36.9441 44.2332V44.2254ZM26.2923 28.9111L37.1323 41.473L40.5757 39.0187L28.7081 26.4803L26.2923 28.9111Z" fill="#005CA1"/>
<path d="M58.1534 13.0874L64.5461 12.562L67.0639 31.546L62.3734 30.903L58.1534 13.0874Z" fill="#F5E83A"/>
<path d="M67.064 32.7222C67.0091 32.7222 66.9542 32.7222 66.9071 32.7143L62.2165 32.0713C61.7381 32.0086 61.3459 31.6479 61.2282 31.1774L57.0083 13.3618C56.9299 13.0324 57.0005 12.6796 57.2044 12.3973C57.4083 12.1228 57.7221 11.9425 58.0594 11.919L64.452 11.3936C65.0717 11.3465 65.6364 11.7857 65.7149 12.413L68.2327 31.397C68.2798 31.7577 68.1543 32.1262 67.8954 32.385C67.6758 32.6045 67.3777 32.73 67.064 32.73V32.7222ZM63.3382 29.8444L65.6992 30.1659L63.5343 13.8166L59.6203 14.1381L63.3382 29.8365V29.8444Z" fill="#005CA1"/>
<path d="M94.9015 59.3984C90.7757 60.6687 89.6775 58.7633 90.258 57.344C90.8384 55.9247 92.3052 54.8269 94.9407 56.1678C97.5762 57.5086 95.7721 59.124 94.9015 59.3906V59.3984Z" fill="white"/>
<path d="M92.5012 60.9982C91.0266 60.9982 90.1638 60.4728 89.6539 59.9239C88.9166 59.1241 88.7362 57.9636 89.1676 56.905C89.6147 55.8072 90.4148 54.9995 91.4109 54.631C92.5953 54.1919 93.9601 54.3565 95.474 55.1328C97.2624 56.0424 97.5526 57.1716 97.4898 57.9636C97.3722 59.3672 96.0544 60.2846 95.2465 60.5277C94.1484 60.8649 93.2464 60.9982 92.4934 60.9982H92.5012ZM92.7679 56.7482C92.5718 56.7482 92.3914 56.7795 92.2345 56.8344C91.7561 57.0148 91.4894 57.4539 91.3482 57.7989C91.309 57.9008 91.2305 58.1596 91.3952 58.34C91.6384 58.6066 92.5797 58.8889 94.5563 58.2851C94.7681 58.2223 95.1132 57.9165 95.1446 57.7675C95.1446 57.7675 95.0191 57.5401 94.4072 57.2343C93.7797 56.9128 93.2228 56.756 92.7601 56.756L92.7679 56.7482Z" fill="#005CA1"/>
<path d="M108.118 77.4887C105.867 74.3364 103.859 70.7529 101.976 69.5689C100.094 68.3848 100.635 62.2842 104.157 62.739C107.679 63.1938 115.656 63.4212 118.613 70.6588C121.578 77.8964 122.088 82.86 118.927 88.5921C115.766 94.3241 110.565 95.0612 109.953 92.152C109.342 89.2429 110.597 80.9545 108.118 77.4887Z" fill="white"/>
<path d="M112.181 94.9828C111.969 94.9828 111.765 94.9671 111.569 94.9357C110.126 94.7162 109.091 93.7674 108.801 92.3795C108.573 91.2895 108.573 89.682 108.581 87.8158C108.581 84.5851 108.597 80.1626 107.161 78.163C106.557 77.3162 105.969 76.4458 105.404 75.5911C103.992 73.4817 102.526 71.294 101.357 70.5569C99.6312 69.4669 99.3881 66.5186 100.149 64.4092C100.878 62.3862 102.431 61.3119 104.314 61.5628C104.612 61.602 104.941 61.6412 105.302 61.6804C109.303 62.1274 116.738 62.9507 119.711 70.204C122.527 77.0731 123.547 82.6405 119.962 89.1488C117.711 93.242 114.487 94.975 112.189 94.975L112.181 94.9828ZM109.075 76.8065C110.95 79.4255 110.934 84.0911 110.926 87.8315C110.926 89.486 110.926 91.0543 111.099 91.9011C111.162 92.1834 111.303 92.5206 111.915 92.6147C113.146 92.8029 115.86 91.7129 117.899 88.0196C120.676 82.9776 120.582 78.5473 117.531 71.0979C115.091 65.1306 108.801 64.4328 105.043 64.0172C104.667 63.978 104.322 63.9388 104.016 63.8995C103.271 63.8133 102.706 64.2446 102.361 65.2091C101.82 66.7146 102.204 68.3142 102.612 68.5652C104.204 69.5689 105.671 71.7566 107.365 74.2815C107.922 75.1127 108.495 75.9674 109.083 76.7908L109.075 76.8065Z" fill="#005CA1"/>
<path d="M229.822 7.41008C229.822 7.41008 232.308 4.893 232.928 4.92436Z" fill="#F5E83A"/>
<path d="M229.822 8.5863C229.524 8.5863 229.225 8.47653 228.998 8.24913C228.535 7.79432 228.527 7.04939 228.99 6.58675C231.837 3.70112 232.59 3.73249 232.983 3.74817C233.634 3.77954 234.136 4.32059 234.112 4.97143C234.089 5.53601 233.673 5.99081 233.132 6.0849C232.739 6.30446 231.626 7.27679 230.669 8.24128C230.441 8.47653 230.135 8.59415 229.829 8.59415L229.822 8.5863Z" fill="#005CA1"/>
</g>
<defs>
<clipPath id="clip0_2143_1230">
<rect width="357" height="386" fill="white"/>
</clipPath>
</defs>
</svg>
