<svg width="102" height="128" viewBox="0 0 102 128" fill="none" xmlns="http://www.w3.org/2000/svg">
<g clip-path="url(#clip0_2338_5151)">
<path d="M84.3002 47.0386C84.3002 47.0386 68.8064 51.1202 57.109 54.6455C46.9229 47.9033 33.2609 39.5344 33.2609 39.5344C33.2609 39.5344 -4.42465 103.734 0.435658 105.076C5.29597 106.425 18.3717 102.676 18.3717 102.676C18.3717 102.676 22.307 119.625 26.1639 121.977C29.9602 124.293 42.0929 103.087 52.3636 85.4604C56.7947 105.3 61.9089 129.125 66.201 127.958C70.6865 126.736 80.401 111.794 80.401 111.794C80.401 111.794 91.8506 119.147 96.8862 119.256C101.928 119.365 84.3062 47.0325 84.3062 47.0325L84.3002 47.0386Z" fill="#005CA1"/>
<path d="M89.0283 75.5969C106.316 58.3041 106.316 30.2667 89.0283 12.9739C71.7402 -4.31901 43.7108 -4.319 26.4228 12.9739C9.13482 30.2668 9.13482 58.304 26.4228 75.5969C43.7108 92.8898 71.7402 92.8898 89.0283 75.5969Z" fill="#D2E1E7"/>
<path d="M65.7829 77.0518C83.8732 72.6004 94.9308 54.3226 90.4807 36.2272C86.0306 18.1317 67.758 7.07099 49.6676 11.5224C31.5772 15.9737 20.5196 34.2515 24.9698 52.347C29.4199 70.4424 47.6925 81.5031 65.7829 77.0518Z" fill="#BCCBD2"/>
<path d="M50.9905 26.4549C50.9905 26.4549 60.2457 14.978 62.6093 15.3468C64.973 15.7157 70.9698 29.309 70.9698 29.309C70.9698 29.309 88.8695 32.6772 88.7728 35.3982C88.6761 38.1193 73.1158 48.3083 73.1158 48.3083C73.1158 48.3083 76.3862 67.8155 74.216 68.1783C72.0458 68.5411 57.0296 60.009 57.0296 60.009C57.0296 60.009 37.4554 65.9168 36.3431 64.2902C34.9708 62.2766 41.3968 43.6462 41.3968 43.6462C41.3968 43.6462 32.3412 30.083 33.5744 27.8638C34.8076 25.6446 50.9966 26.4489 50.9966 26.4489L50.9905 26.4549Z" fill="#D2E1E7"/>
<g clip-path="url(#clip1_2338_5151)">
<path d="M65.627 51.3773C66.0644 51.6272 66.3153 52.3316 66.3153 53.4961C66.3153 54.5186 66.0586 55.1945 65.627 55.4388C63.9937 55.6887 61.2697 55.8989 57.3849 55.8989C52.9226 55.8989 50.3444 55.5808 49.8719 55.2286C49.0378 54.5186 48.6003 53.7801 48.6003 53.0019C48.6003 51.7295 49.7611 49.9969 52.1235 47.8441C54.2642 45.9355 56.4049 43.9928 58.5457 42.1523C60.8672 39.8574 61.993 37.909 61.993 36.4264C61.993 35.5062 61.6313 34.6939 60.7972 33.9896C59.9981 33.3193 59.129 33.0012 58.254 33.0012C56.4399 33.0012 54.6609 33.7055 52.9168 35.262C52.3743 35.7902 51.791 36.5344 50.9919 36.8866C50.7002 37.1365 49.7553 36.6025 49.2886 36.1765C48.7812 35.8243 48.4545 35.3642 48.6003 34.9041C49.0378 33.4556 51.1027 30.9789 52.9926 29.8826C54.9234 28.8601 56.9182 28.258 59.024 28.3659H59.1698C61.4913 28.6159 63.4162 29.5304 64.9387 31.0869C66.4261 32.6433 67.1902 34.6201 67.1902 36.9206C67.1902 39.4655 65.4461 42.2602 62.1446 45.3674C59.4965 47.526 56.8833 49.7129 54.305 51.9794C56.4108 51.9453 58.009 51.8715 59.024 51.8715C61.9638 51.6613 64.1395 51.5193 65.6328 51.3773H65.627Z" fill="#86A9B3"/>
</g>
<path d="M100.5 45.367C100.5 69.1478 81.2363 88.424 57.476 88.424C33.7156 88.424 14.4521 69.1478 14.4521 45.367C14.4521 21.5863 33.7156 2.31006 57.476 2.31006C81.2363 2.31006 100.5 21.5863 100.5 45.367Z" stroke="#86A9B3" stroke-width="3"/>
</g>
<defs>
<clipPath id="clip0_2338_5151">
<rect width="102" height="128" fill="white"/>
</clipPath>
<clipPath id="clip1_2338_5151">
<rect width="18.619" height="27.5443" fill="white" transform="translate(48.5713 28.3545)"/>
</clipPath>
</defs>
</svg>
