<?xml version="1.0" encoding="utf-8"?>
<!-- Generator: Adobe Illustrator 25.0.0, SVG Export Plug-In . SVG Version: 6.00 Build 0)  -->
<svg version="1.1" id="圖層_1" xmlns="http://www.w3.org/2000/svg" xmlns:xlink="http://www.w3.org/1999/xlink" x="0px" y="0px"
	 viewBox="0 0 208 58" style="enable-background:new 0 0 208 58;" xml:space="preserve">
<style type="text/css">
	.st0{fill:#E74F20;}
	.st1{fill:#FFFFFF;filter:url(#Adobe_OpacityMaskFilter);}
	.st2{mask:url(#path-33-inside-2_2515_905_1_);fill:#005CA1;stroke:#005CA1;stroke-width:2;}
	.st3{fill:#005CA1;stroke:#005CA1;}
	.st4{fill:#FFFFFF;filter:url(#Adobe_OpacityMaskFilter_1_);}
	.st5{mask:url(#path-35-inside-3_2515_905_1_);fill:#005CA1;stroke:#005CA1;stroke-width:2;}
	.st6{fill:#FFFFFF;filter:url(#Adobe_OpacityMaskFilter_2_);}
	.st7{mask:url(#path-36-inside-4_2515_905_1_);fill:#005CA1;stroke:#005CA1;stroke-width:2;}
	.st8{fill:#FFFFFF;filter:url(#Adobe_OpacityMaskFilter_3_);}
	.st9{mask:url(#path-37-inside-5_2515_905_1_);fill:#005CA1;stroke:#005CA1;stroke-width:2;}
	.st10{fill:#F5E83A;}
	.st11{fill:#FFFFFF;}
	.st12{fill-rule:evenodd;clip-rule:evenodd;fill:#005CA1;}
	.st13{fill:#005CA1;}
</style>
<path class="st0" d="M182.3,41.3c-0.3,0.4-0.6,0.7-0.7,1c-0.7,1.5-1.3,3.1-2,4.6c-0.1,0.3-0.4,0.6-0.7,0.8c-0.6,0.3-1.2,0.2-1.6-0.4
	c-0.6-1-1-2-1.5-3.1c-0.4-0.8-0.7-1.7-1.1-2.6c-0.1-0.2-0.2-0.5-0.4-0.7c-0.1-0.1-0.3-0.3-0.5-0.3c-0.1,0-0.2,0.3-0.3,0.5
	c-0.1,0.8-0.1,1.6-0.2,2.3c-0.2,1.7-0.4,3.4-0.7,5.1c-0.1,0.4-0.2,0.8-0.5,1c-0.2,0.2-0.7,0.4-1,0.4c-0.2,0-0.6-0.4-0.6-0.7
	c0-0.9,0.1-1.7,0.2-2.6c0.2-2.1,0.4-4.2,0.6-6.4c0.1-1,0.1-2.1,0.3-3.1c0.2-1.1,1.2-1.6,2-0.7c1,1,1.7,2.2,2.5,3.4
	c0.5,0.7,0.8,1.5,1.2,2.2c0.2,0.3,0.5,0.6,0.8,0.9c0.3-0.3,0.6-0.6,0.8-0.9c1-1.7,2-3.4,3-5c0.2-0.3,0.4-0.5,0.5-0.7
	c0.3-0.5,0.8-0.7,1.3-0.5c0.4,0.2,0.8,0.6,0.9,1c0.2,1,0.3,2,0.4,2.9c0.1,2.9,0.3,5.8,0.4,8.7c0,0.5,0,1-0.5,1.3
	c-0.6,0.5-1.3,0.3-1.7-0.4c-0.5-1.1-0.5-2.3-0.5-3.5c-0.1-1.2-0.1-2.4-0.2-3.7C182.6,41.9,182.4,41.7,182.3,41.3L182.3,41.3z"/>
<path class="st0" d="M198.5,48.8c0-2.2,0-4.4,0-6.6c0-0.2,0-0.5,0.1-0.7c0.1-0.3,0.3-0.7,0.4-0.7c0.3,0,0.8,0.1,1,0.3
	c0.3,0.4,0.6,0.3,0.9,0.2c1.4-0.4,2.7-0.4,3.9,0.4c0.2,0.1,0.3,0.2,0.4,0.4c1.5,1.8,1,5.3-1,6.4c-0.6,0.3-1.3,0.4-2,0.5
	c-0.3,0.1-0.6,0-1,0c-0.4,0-0.6,0.2-0.6,0.6c0,1.1-0.1,2.3-0.1,3.4c0,0.3-0.1,0.5-0.1,0.8c-0.2,0.7-0.6,1-1.2,0.9
	c-0.5,0-0.9-0.5-0.9-1.1c0-1.4,0-2.8,0-4.2c0-0.3,0-0.5,0-0.8C198.4,48.8,198.5,48.8,198.5,48.8L198.5,48.8z M203.6,44.8
	c0-0.8-0.3-1.3-0.9-1.5c-0.5-0.1-1.7,0.3-1.9,0.7c-0.4,0.6-0.2,1.8,0.4,2.4c0.3,0.4,0.7,0.5,1.2,0.3
	C203.3,46.3,203.6,45.6,203.6,44.8L203.6,44.8z"/>
<path class="st0" d="M148.3,46.6c-0.2,0.7-0.3,1.3-0.6,1.9c-0.2,0.3-0.7,0.5-1.1,0.5c-0.3,0-0.6-0.5-0.7-0.8
	c-0.2-0.7-0.2-1.4-0.4-2.2c-0.1-0.4,0-1-0.6-1.1c-0.6-0.1-0.9,0.4-1.1,0.9c-0.2,0.5-0.3,1-0.5,1.5c-0.1,0.4-0.2,0.7-0.4,1
	c-0.3,0.5-0.7,0.7-1.3,0.5c-0.5-0.1-0.9-0.5-0.9-1c-0.1-0.7-0.1-1.4-0.2-2c-0.1-0.3-0.3-0.6-0.5-0.9c-0.4,0.2-0.8,0.3-1,0.6
	c-0.3,0.5-0.5,1.1-0.7,1.7c-0.1,0.3-0.1,0.7-0.2,1c-0.1,0.5-0.4,0.9-1,0.9c-0.6,0-1-0.3-1.2-0.8c-0.1-0.2-0.2-0.5-0.2-0.8
	c0.1-1.1,0.2-2.3,0.2-3.4c0-0.6,0.3-0.8,0.9-0.8c0.5,0,1-0.2,1.5-0.4c1.1-0.5,2.4-0.4,3.3,0.3c0.3,0.3,0.6,0.3,0.9,0.1
	c0.2-0.2,0.5-0.3,0.7-0.5c1.4-0.9,3.3-0.4,4,1C147.9,44.6,148.1,45.6,148.3,46.6L148.3,46.6z"/>
<path class="st0" d="M165.3,45.1c0.4-0.7,0.7-1.3,1-1.9c0.2-0.5,0.5-0.9,0.7-1.3c0.2-0.4,0.6-0.6,1.1-0.5c0.5,0.1,0.7,0.5,0.8,0.9
	c0,0.2,0,0.3,0,0.5c-1,4-2.6,7.7-5,11.1c-0.3,0.4-0.7,0.7-1.1,1c-0.5,0.3-1.1,0.3-1.5-0.1c-0.5-0.4-0.3-0.9,0-1.4
	c0.9-1.6,1.8-3.3,2.8-4.9c0.3-0.4,0.2-0.7-0.1-1.2c-0.9-1.4-1.7-2.9-2.5-4.4c0-0.1,0-0.1-0.1-0.2c-0.1-0.5-0.2-1.1,0.4-1.4
	c0.6-0.3,1.1,0.1,1.4,0.5c0.6,0.8,1.2,1.7,1.8,2.6C164.9,44.6,165.1,44.8,165.3,45.1L165.3,45.1z"/>
<path class="st0" d="M130.7,47.1c-0.2,0.3-0.3,0.6-0.5,0.8c-0.8,1-1.9,1.3-3.1,0.9c-1.2-0.4-1.7-1.2-1.8-2.4
	c-0.3-2.1,0.8-4.1,2.8-4.7c0.4-0.1,0.9-0.1,1.4-0.1c0.4,0,0.9,0,1.3-0.2c0.6-0.2,1.1,0,1.4,0.5c0.1,0.1,0.2,0.3,0.2,0.4
	c0.6,1.8,1.1,3.7,1.7,5.5c0.1,0.5,0.1,0.9-0.4,1.2c-0.5,0.3-1,0.2-1.4-0.2C131.6,48.4,131.3,47.8,130.7,47.1L130.7,47.1z
	 M127.4,45.6c0,0.1,0.1,0.4,0.2,0.6c0.2,0.4,0.5,0.4,0.7,0.1c0.5-0.7,0.9-1.4,1.3-2.2c0.2-0.4-0.1-0.6-0.5-0.6
	C128.2,43.6,127.4,44.5,127.4,45.6L127.4,45.6z"/>
<path class="st0" d="M193,47c-0.4,0.5-0.7,0.8-1,1.1c-0.8,0.8-1.8,0.9-2.8,0.6c-1-0.3-1.6-1-1.8-2c-0.5-2.4,0.6-4.4,2.6-5.1
	c0.4-0.1,0.9-0.1,1.3-0.2c0.5-0.1,1-0.1,1.5-0.2c0.6-0.1,1,0.1,1.3,0.5c0.2,0.3,0.3,0.6,0.3,0.9c0.5,1.5,0.9,3,1.4,4.5
	c0.3,1,0.2,1.5-0.3,1.7c-0.6,0.3-1.3,0-1.8-0.7C193.5,48,193.3,47.6,193,47L193,47z M189.6,45.6c0,0.1,0.1,0.4,0.3,0.7
	c0.2,0.3,0.4,0.4,0.6,0.1c0.5-0.7,1-1.4,1.3-2.2c0.2-0.4-0.1-0.6-0.6-0.6C190.3,43.7,189.6,44.6,189.6,45.6z"/>
<path class="st0" d="M100.7,47.8c0,0.9-0.6,1.4-1.3,1.1c-0.5-0.2-0.9-0.4-1.2-0.8c-0.3-0.3-0.5-0.3-0.9-0.1
	c-0.8,0.6-1.6,0.9-2.6,0.8c-1.3-0.1-2.4-1.1-2.5-2.6c-0.1-1.1,0-2.2,0.1-3.3c0-0.2,0.1-0.6,0.3-0.7c0.3-0.2,0.7-0.4,1-0.4
	c0.2,0,0.5,0.4,0.6,0.7c0.1,0.6,0.1,1.2,0.1,1.8c0,0.5,0.1,1,0.2,1.5c0.2,0.7,0.6,0.8,1.2,0.4c0.6-0.5,0.9-1.1,1-1.9
	c0.1-0.5,0.1-1.1,0.2-1.6c0.2-0.6,0.5-1.1,1.2-1.1c0.9-0.1,1.3,0.3,1.3,1.2c0,0.1,0,0.2,0,0.3c-0.1,1.3,0,2.5,1,3.5
	C100.5,47.1,100.6,47.6,100.7,47.8L100.7,47.8z"/>
<path class="st0" d="M111.3,46.5c-0.1,0.5-0.2,1.2-0.4,1.8c-0.2,0.7-0.7,0.9-1.2,0.9c-0.6-0.1-0.9-0.5-0.9-1.1
	c-0.1-0.8-0.1-1.6-0.2-2.5c-0.1-0.9-0.8-1.3-1.6-0.9c-0.8,0.4-1.2,1.2-1.4,2c-0.1,0.5-0.2,1-0.3,1.5c-0.1,0.5-0.5,0.8-1,0.8
	c-0.5,0-1.2-0.6-1.1-1.1c0.1-1.8,0.3-3.6,0.5-5.3c0-0.4,0.2-0.8,0.7-0.9c0.5-0.1,0.8,0.2,1,0.6c0.2,0.4,0.4,0.4,0.8,0.2
	c0.8-0.4,1.7-0.5,2.6-0.3c1.4,0.3,2.2,1.1,2.6,2.4C111.2,45.2,111.2,45.8,111.3,46.5L111.3,46.5z"/>
<path class="st0" d="M158.5,42.6c-0.1,1.9-0.2,3.8-0.3,5.7c0,0.4-0.2,0.7-0.4,1c-0.5,0.7-1.4,0.6-1.8-0.3c-0.1-0.3-0.2-0.6-0.2-0.9
	c0.1-2.5,0.1-4.9,0.2-7.4c0.1-1.4,0.2-2.7,0.4-4.1c0.1-0.5,0.3-1,0.9-1c0.6,0,0.9,0.6,1,1.1c0.1,1,0.1,2.1,0.1,3.2
	C158.4,40.8,158.4,41.7,158.5,42.6C158.4,42.6,158.5,42.6,158.5,42.6L158.5,42.6z"/>
<path class="st0" d="M113.5,44c0-1.2,0-2.4,0-3.7c0-0.5,0.2-1,0.5-1.5c0.1-0.2,0.5-0.5,0.7-0.5c0.3,0.1,0.7,0.3,0.8,0.6
	c0.2,0.6,0.3,1.2,0.3,1.8c0,2.2,0,4.5-0.1,6.7c0,0.4-0.2,0.9-0.5,1.3c-0.2,0.2-0.7,0.4-1,0.4c-0.4,0-0.8-0.4-0.8-0.9
	C113.4,46.8,113.4,45.4,113.5,44C113.4,44,113.5,44,113.5,44L113.5,44z"/>
<path class="st0" d="M80.3,44c0-1.2,0-2.4,0-3.7c0-0.5,0.2-1,0.4-1.5c0.1-0.2,0.5-0.5,0.7-0.5c0.3,0.1,0.7,0.4,0.8,0.6
	c0.2,0.7,0.4,1.4,0.4,2.2c0.1,1.9,0.1,3.8,0,5.6c0,0.6-0.2,1.2-0.5,1.8c-0.2,0.4-0.6,0.7-1.1,0.6c-0.5-0.1-0.8-0.4-0.9-1
	C80.3,46.7,80.3,45.3,80.3,44C80.3,44,80.3,44,80.3,44L80.3,44z"/>
<path class="st0" d="M82,37.1c-0.3,0-0.6,0.1-0.8,0c-0.3-0.1-0.7-0.3-0.8-0.5c0-0.3,0.1-0.8,0.4-0.9c0.7-0.3,1.4-0.6,2.1-0.7
	c1.7-0.3,3.4-0.5,5.1-0.6c0.5,0,1,0.2,1.4,0.4c0.3,0.2,0.5,0.7,0.4,1c0,0.2-0.5,0.5-0.8,0.6c-1.7,0.2-3.5,0.4-5.3,0.6
	C83.2,37.1,82.6,37.1,82,37.1C82,37.2,82,37.1,82,37.1L82,37.1z"/>
<path class="st0" d="M115.1,37.1c-0.3,0-0.5,0.1-0.8,0c-0.3-0.1-0.7-0.3-0.8-0.5c-0.2-0.4,0.1-0.8,0.5-1c0.6-0.3,1.3-0.5,1.9-0.6
	c1.7-0.3,3.5-0.5,5.2-0.6c0.5,0,1,0.2,1.4,0.5c0.3,0.2,0.4,0.7,0.4,1c0,0.2-0.5,0.5-0.8,0.6c-1.7,0.3-3.5,0.4-5.3,0.6
	C116.3,37.1,115.7,37.1,115.1,37.1C115.1,37.2,115.1,37.1,115.1,37.1z"/>
<path class="st0" d="M153,45.5c-0.1,0.9-0.2,1.7-0.3,2.5c-0.1,0.5-0.4,0.9-0.9,1c-0.6,0.2-1.1-0.1-1.2-0.7c-0.3-1.8-0.1-3.6,0.3-5.4
	c0.1-0.5,0.4-0.7,0.9-0.7c0.5,0,0.8,0.2,0.9,0.7C152.8,43.8,152.9,44.7,153,45.5L153,45.5z"/>
<path class="st0" d="M86.5,42.9c-0.6-0.1-1.3-0.1-2-0.2c-0.7-0.1-0.9-0.9-0.3-1.4c0.2-0.2,0.6-0.4,0.8-0.4c1.2-0.1,2.3-0.2,3.5-0.2
	c0.7,0,1,0.4,1.1,1c0,0.7-0.4,0.9-1,1C87.9,42.8,87.2,42.8,86.5,42.9z"/>
<path class="st0" d="M119.7,42.9c-0.7-0.1-1.4-0.1-2-0.2c-0.3-0.1-0.6-0.4-0.6-0.6c-0.1-0.2,0.1-0.6,0.3-0.8
	c0.2-0.2,0.5-0.4,0.8-0.4c1.2-0.1,2.4-0.2,3.5-0.2c0.7,0,1,0.4,1,1.1c0,0.6-0.4,0.9-0.9,0.9C121.1,42.8,120.4,42.8,119.7,42.9
	L119.7,42.9z"/>
<path class="st0" d="M152.8,39c0,0.7-0.4,1.3-1,1.3c-0.6,0-1-0.4-1-1s0.5-1.2,1.1-1.2C152.4,38,152.8,38.4,152.8,39z"/>
<defs>
	<filter id="Adobe_OpacityMaskFilter" filterUnits="userSpaceOnUse" x="77.6" y="6.5" width="25.9" height="23.2">
		<feColorMatrix  type="matrix" values="1 0 0 0 0  0 1 0 0 0  0 0 1 0 0  0 0 0 1 0"/>
	</filter>
</defs>
<mask maskUnits="userSpaceOnUse" x="77.6" y="6.5" width="25.9" height="23.2" id="path-33-inside-2_2515_905_1_">
	<path class="st1" d="M78.6,10.8c0-0.5,0.6-0.8,1.7-0.9l2-0.2l1.1-0.1l-0.1-0.5c-0.1-0.2-0.1-0.3-0.1-0.5c0-0.3,0.1-0.6,0.3-0.9
		c0.2-0.2,0.5-0.4,0.8-0.4c0.3,0,0.6,0.1,1,0.4c0.3,0.3,0.5,0.5,0.5,0.8c0,0.2-0.1,0.4-0.3,0.6l-0.3,0.3l1.3,0h1.1
		c0.4,0,0.7,0,0.8,0c0.2,0,0.3,0,0.3,0.1c0.1,0,0.1,0.1,0.2,0.3l0.2,0.6c0,0,0,0.1,0,0.2c0,0.1,0,0.1,0,0.2c0,0.2,0,0.3-0.1,0.3
		c0,0.1,0,0.1-0.2,0.2c-0.2,0.1-0.5,0.1-1,0.2l-0.6,0.1l0,0.6c0,0.3,0,0.5-0.1,0.7c0,0.1-0.2,0.2-0.4,0.6c-0.2,0.2-0.3,0.4-0.4,0.5
		l-0.3,0.4c0,0.1,0.3,0.2,0.9,0.2c0.4,0,0.8,0.1,1.1,0.3c0.3,0.2,0.4,0.4,0.4,0.7c0,0.2-0.1,0.5-0.3,0.7c0,0,0.1,0,0.1,0.1
		c0,0.1-0.2,0.1-0.6,0.2c-0.4,0.1-0.8,0.1-1.3,0.1c-0.4,0-0.7,0.1-0.7,0.1c-0.1,0.1-0.2,0.7-0.2,1.8c0,0.3,0,0.4,0.1,0.4
		c0.2,0,0.5-0.1,1.1-0.2c0.5-0.1,0.9-0.2,1.2-0.2c0.4,0,0.7,0.1,0.9,0.2c0.3,0.1,0.4,0.3,0.4,0.6c0,0.2-0.1,0.5-0.4,0.7
		c-0.3,0.2-0.6,0.4-0.9,0.5c-0.9,0.2-1.6,0.4-1.9,0.5c-0.3,0.1-0.5,0.2-0.5,0.4c0,0.1,0.1,0.3,0.4,0.6c0.4,0.4,0.9,1,1.8,1.7
		c0.9,0.8,1.4,1.2,1.5,1.4c0.1,0.2,0.2,0.3,0.2,0.4c0,0.1-0.1,0.2-0.2,0.2c-0.1,0.1-0.3,0.1-0.5,0.2c-0.2,0.1-0.4,0.1-0.4,0.1
		c-0.1,0.1-0.1,0.1-0.3,0.1c-0.5,0-1.4-0.3-2.7-1c-0.1,0-0.1,0.3-0.2,1.1c0,0.7-0.2,1.1-0.5,1.1c-0.2,0.1-0.4,0.2-0.6,0.2
		c-0.3,0-0.6-0.2-0.8-0.5c-0.2-0.3-0.3-0.7-0.5-1.2c-0.1-0.5-0.2-0.9-0.3-1c-0.2,0.2-0.4,0.5-0.6,0.9c-0.2,0.4-0.5,0.8-0.7,1.2
		c-0.3,0.3-0.6,0.6-0.9,0.7c-0.2,0.2-0.5,0.3-0.6,0.3c-0.2,0-0.4-0.3-0.4-0.8c0-0.5,0.1-1,0.2-1.4c0-0.3,0.2-0.9,0.6-1.7
		c0.4-0.8,0.9-1.5,1.3-2.1c-0.5-0.1-1-0.2-1.5-0.5c-0.6-0.3-0.8-0.5-0.8-0.8c0-0.2,0.2-0.4,0.5-0.5c0.2-0.1,0.8-0.2,1.5-0.3l1.2-0.2
		c0-0.3,0-0.7,0-1.2c0-0.5,0-1,0-1.2h-3.1c-0.4-0.1-0.6-0.5-0.6-1.1c0-0.6,0.2-0.9,0.6-1h0.7c0.2,0,0.7,0,1.3-0.1l0.6-0.1L81.3,14
		c-0.4-0.5-0.6-1-0.6-1.3v-0.5h-0.7C79,12.1,78.6,11.7,78.6,10.8L78.6,10.8z M83,12.5c0,0.1,0,0.4,0.1,0.8c0.1,0.4,0.1,0.7,0.1,0.9
		c0,0.2,0,0.4,0.1,0.4c0,0,0.1,0.1,0.3,0.1c0.2,0,0.3-0.1,0.4-0.4c0.1-0.3,0.2-0.6,0.3-1c0.1-0.4,0.1-0.6,0.2-0.7
		c0.2-0.2,0.3-0.4,0.3-0.5c0-0.1-0.1-0.2-0.3-0.2c-0.1,0-0.3,0-0.6,0c-0.3,0-0.5,0-0.6,0h-0.1C83.1,12,83,12.2,83,12.5L83,12.5z
		 M89.4,27.4c0-0.2,0.1-0.5,0.3-0.9c0.2-0.4,0.5-0.7,0.7-1.1c0.3-0.4,0.4-0.6,0.5-0.6c1-1.4,1.4-2.2,1.4-2.3c0-0.1-0.2-0.2-0.5-0.3
		c-0.6-0.2-1.1-0.6-1.3-1.3c-0.3-0.8-0.5-1.7-0.5-2.5c-0.1-0.9-0.1-2.8-0.1-5.7l0-4.6c2.7-0.3,5.1-0.4,7.1-0.4
		c1.5,0,2.7,0.1,3.5,0.3c0.2,0.1,0.4,0.2,0.5,0.4c0.1,0.1,0.2,0.3,0.3,0.3c0.1,0.1,0.1,0.3,0.3,0.5c0,0.1,0,0.1,0.1,0.1
		c0.3,0.7,0.5,1.5,0.5,2.4c0,0.7-0.1,1.2-0.3,1.4c0,0.2-0.2,1-0.6,2.7c-0.4,1.6-0.6,2.8-0.7,3.4c-0.1,0.5-0.1,0.9-0.1,1.1
		c0,0.2-0.1,0.4-0.1,0.5c-0.1,0.1-0.1,0.2-0.2,0.2c0,0-0.1,0.1-0.3,0.2c-0.1,0.1-0.3,0.2-0.5,0.4c-0.3,0.3-0.7,0.4-1.2,0.4l-0.7,0.1
		l0.1,0.3c0,0,0,0.1,0,0.1c0,0.1,0,0.1,0,0.1c0,0.3-0.1,0.9-0.2,1.5C97.1,25,97,25.5,97,25.8l-0.1,0.6h0.3c0.1,0,0.2,0,0.4,0
		c0.1,0,0.4,0,0.6,0c0.3,0,0.5,0,0.6,0c0.4,0,0.6-0.1,0.6-0.4c0-0.1,0-0.2-0.1-0.3c0-0.3,0.1-0.5,0.2-0.8c0.1-0.3,0.2-0.6,0.3-0.9
		c0.1-0.3,0.2-0.6,0.2-0.7h0.1c0.8,0,1.5,0.9,2.2,2.7c0.1,0.1,0.1,0.4,0.1,0.9c0,1.1-0.3,1.7-0.9,1.7h0c-0.2,0.1-0.5,0.1-0.8,0.1
		c-0.3,0-0.8,0-1.5-0.1c-0.7-0.1-1.3-0.1-1.7-0.1c-0.2,0-0.4,0-0.6,0c-0.4-0.1-0.8-0.2-1.3-0.4c-0.5-0.2-0.8-0.4-0.8-0.6
		c-0.4-0.2-0.6-0.6-0.6-1.1c0-0.4,0.1-0.9,0.3-1.7c0.2-0.7,0.4-1.2,0.4-1.3c-0.3,0.3-0.8,0.7-1.3,1.5c-0.5,0.7-0.9,1.2-1.1,1.4
		c-0.3,0.4-0.6,0.6-0.8,0.8c-0.2,0.2-0.3,0.3-0.4,0.4c-0.1,0.1-0.3,0.1-0.5,0.3c-0.2,0.1-0.5,0.2-0.7,0.3h-0.1
		C89.7,27.9,89.4,27.8,89.4,27.4L89.4,27.4z M93.2,19.5c0,0.3,0,0.5,0.1,0.6c0.1,0.1,0.2,0.2,0.3,0.2c0.1,0,0.2,0,0.6-0.1
		c0.3,0,0.6-0.1,0.9-0.1c1.8,0,3,0,3.6,0c-0.1-0.1-0.2-0.4-0.3-0.7c-0.1-0.3-0.2-0.6-0.3-0.9c-0.1-0.2-0.3-0.4-0.6-0.4
		c-0.1,0-0.1,0-0.3,0.1c-0.5,0.1-1.3,0.2-2.3,0.2c-0.2,0-0.5,0-0.9,0c-0.4,0-0.6,0-0.7,0c-0.1,0-0.2,0-0.2,0.1c0,0.1,0,0.3-0.1,0.7
		L93.2,19.5L93.2,19.5z M93.4,16.6c0,0.2,0,0.3,0.1,0.3l2.1-0.2c1.4-0.2,2.1-0.3,2.3-0.3c0,0,0.1-0.2,0.1-0.6v-0.6h-1
		c-0.2,0-0.9,0-2.1-0.1l-1.1-0.1l-0.1,0.6C93.5,16,93.4,16.3,93.4,16.6L93.4,16.6z M93.8,11.4c0,0.3,0,0.6,0,0.7
		c0,0.2,0,0.3,0.1,0.4c0,0.1,0.1,0.2,0.2,0.2c0.1,0,0.2,0.1,0.3,0.1c0.1,0,0.2,0,0.5,0.1c0.3,0,0.5,0,0.7,0.1
		c0.2,0.1,0.8,0.2,1.8,0.2c0.4,0,0.7,0,0.8-0.1c0,0,0,0,0-0.1c0-0.1,0-0.4,0.1-1c0.1-0.6,0.1-1,0.1-1.3c0-0.3,0-0.5-0.1-0.5
		c-0.3-0.1-1.5-0.2-3.6-0.2h-0.2c-0.1,0-0.1,0-0.2,0c0,0-0.1,0-0.1,0c-0.1,0-0.2,0.1-0.3,0.2C93.8,10.4,93.8,10.8,93.8,11.4
		L93.8,11.4z"/>
</mask>
<path class="st2" d="M78.6,10.8c0-0.5,0.6-0.8,1.7-0.9l2-0.2l1.1-0.1l-0.1-0.5c-0.1-0.2-0.1-0.3-0.1-0.5c0-0.3,0.1-0.6,0.3-0.9
	c0.2-0.2,0.5-0.4,0.8-0.4c0.3,0,0.6,0.1,1,0.4c0.3,0.3,0.5,0.5,0.5,0.8c0,0.2-0.1,0.4-0.3,0.6l-0.3,0.3l1.3,0h1.1c0.4,0,0.7,0,0.8,0
	c0.2,0,0.3,0,0.3,0.1c0.1,0,0.1,0.1,0.2,0.3l0.2,0.6c0,0,0,0.1,0,0.2c0,0.1,0,0.1,0,0.2c0,0.2,0,0.3-0.1,0.3c0,0.1,0,0.1-0.2,0.2
	c-0.2,0.1-0.5,0.1-1,0.2l-0.6,0.1l0,0.6c0,0.3,0,0.5-0.1,0.7c0,0.1-0.2,0.2-0.4,0.6c-0.2,0.2-0.3,0.4-0.4,0.5l-0.3,0.4
	c0,0.1,0.3,0.2,0.9,0.2c0.4,0,0.8,0.1,1.1,0.3c0.3,0.2,0.4,0.4,0.4,0.7c0,0.2-0.1,0.5-0.3,0.7c0,0,0.1,0,0.1,0.1
	c0,0.1-0.2,0.1-0.6,0.2c-0.4,0.1-0.8,0.1-1.3,0.1c-0.4,0-0.7,0.1-0.7,0.1c-0.1,0.1-0.2,0.7-0.2,1.8c0,0.3,0,0.4,0.1,0.4
	c0.2,0,0.5-0.1,1.1-0.2c0.5-0.1,0.9-0.2,1.2-0.2c0.4,0,0.7,0.1,0.9,0.2c0.3,0.1,0.4,0.3,0.4,0.6c0,0.2-0.1,0.5-0.4,0.7
	c-0.3,0.2-0.6,0.4-0.9,0.5c-0.9,0.2-1.6,0.4-1.9,0.5c-0.3,0.1-0.5,0.2-0.5,0.4c0,0.1,0.1,0.3,0.4,0.6c0.4,0.4,0.9,1,1.8,1.7
	c0.9,0.8,1.4,1.2,1.5,1.4c0.1,0.2,0.2,0.3,0.2,0.4c0,0.1-0.1,0.2-0.2,0.2c-0.1,0.1-0.3,0.1-0.5,0.2c-0.2,0.1-0.4,0.1-0.4,0.1
	c-0.1,0.1-0.1,0.1-0.3,0.1c-0.5,0-1.4-0.3-2.7-1c-0.1,0-0.1,0.3-0.2,1.1c0,0.7-0.2,1.1-0.5,1.1c-0.2,0.1-0.4,0.2-0.6,0.2
	c-0.3,0-0.6-0.2-0.8-0.5c-0.2-0.3-0.3-0.7-0.5-1.2c-0.1-0.5-0.2-0.9-0.3-1c-0.2,0.2-0.4,0.5-0.6,0.9c-0.2,0.4-0.5,0.8-0.7,1.2
	c-0.3,0.3-0.6,0.6-0.9,0.7c-0.2,0.2-0.5,0.3-0.6,0.3c-0.2,0-0.4-0.3-0.4-0.8c0-0.5,0.1-1,0.2-1.4c0-0.3,0.2-0.9,0.6-1.7
	c0.4-0.8,0.9-1.5,1.3-2.1c-0.5-0.1-1-0.2-1.5-0.5c-0.6-0.3-0.8-0.5-0.8-0.8c0-0.2,0.2-0.4,0.5-0.5c0.2-0.1,0.8-0.2,1.5-0.3l1.2-0.2
	c0-0.3,0-0.7,0-1.2c0-0.5,0-1,0-1.2h-3.1c-0.4-0.1-0.6-0.5-0.6-1.1c0-0.6,0.2-0.9,0.6-1h0.7c0.2,0,0.7,0,1.3-0.1l0.6-0.1L81.3,14
	c-0.4-0.5-0.6-1-0.6-1.3v-0.5h-0.7C79,12.1,78.6,11.7,78.6,10.8L78.6,10.8z M83,12.5c0,0.1,0,0.4,0.1,0.8c0.1,0.4,0.1,0.7,0.1,0.9
	c0,0.2,0,0.4,0.1,0.4c0,0,0.1,0.1,0.3,0.1c0.2,0,0.3-0.1,0.4-0.4c0.1-0.3,0.2-0.6,0.3-1c0.1-0.4,0.1-0.6,0.2-0.7
	c0.2-0.2,0.3-0.4,0.3-0.5c0-0.1-0.1-0.2-0.3-0.2c-0.1,0-0.3,0-0.6,0c-0.3,0-0.5,0-0.6,0h-0.1C83.1,12,83,12.2,83,12.5L83,12.5z
	 M89.4,27.4c0-0.2,0.1-0.5,0.3-0.9c0.2-0.4,0.5-0.7,0.7-1.1c0.3-0.4,0.4-0.6,0.5-0.6c1-1.4,1.4-2.2,1.4-2.3c0-0.1-0.2-0.2-0.5-0.3
	c-0.6-0.2-1.1-0.6-1.3-1.3c-0.3-0.8-0.5-1.7-0.5-2.5c-0.1-0.9-0.1-2.8-0.1-5.7l0-4.6c2.7-0.3,5.1-0.4,7.1-0.4c1.5,0,2.7,0.1,3.5,0.3
	c0.2,0.1,0.4,0.2,0.5,0.4c0.1,0.1,0.2,0.3,0.3,0.3c0.1,0.1,0.1,0.3,0.3,0.5c0,0.1,0,0.1,0.1,0.1c0.3,0.7,0.5,1.5,0.5,2.4
	c0,0.7-0.1,1.2-0.3,1.4c0,0.2-0.2,1-0.6,2.7c-0.4,1.6-0.6,2.8-0.7,3.4c-0.1,0.5-0.1,0.9-0.1,1.1c0,0.2-0.1,0.4-0.1,0.5
	c-0.1,0.1-0.1,0.2-0.2,0.2c0,0-0.1,0.1-0.3,0.2c-0.1,0.1-0.3,0.2-0.5,0.4c-0.3,0.3-0.7,0.4-1.2,0.4l-0.7,0.1l0.1,0.3
	c0,0,0,0.1,0,0.1c0,0.1,0,0.1,0,0.1c0,0.3-0.1,0.9-0.2,1.5C97.1,25,97,25.5,97,25.8l-0.1,0.6h0.3c0.1,0,0.2,0,0.4,0
	c0.1,0,0.4,0,0.6,0c0.3,0,0.5,0,0.6,0c0.4,0,0.6-0.1,0.6-0.4c0-0.1,0-0.2-0.1-0.3c0-0.3,0.1-0.5,0.2-0.8c0.1-0.3,0.2-0.6,0.3-0.9
	c0.1-0.3,0.2-0.6,0.2-0.7h0.1c0.8,0,1.5,0.9,2.2,2.7c0.1,0.1,0.1,0.4,0.1,0.9c0,1.1-0.3,1.7-0.9,1.7h0c-0.2,0.1-0.5,0.1-0.8,0.1
	c-0.3,0-0.8,0-1.5-0.1c-0.7-0.1-1.3-0.1-1.7-0.1c-0.2,0-0.4,0-0.6,0c-0.4-0.1-0.8-0.2-1.3-0.4c-0.5-0.2-0.8-0.4-0.8-0.6
	c-0.4-0.2-0.6-0.6-0.6-1.1c0-0.4,0.1-0.9,0.3-1.7c0.2-0.7,0.4-1.2,0.4-1.3c-0.3,0.3-0.8,0.7-1.3,1.5c-0.5,0.7-0.9,1.2-1.1,1.4
	c-0.3,0.4-0.6,0.6-0.8,0.8c-0.2,0.2-0.3,0.3-0.4,0.4c-0.1,0.1-0.3,0.1-0.5,0.3c-0.2,0.1-0.5,0.2-0.7,0.3h-0.1
	C89.7,27.9,89.4,27.8,89.4,27.4L89.4,27.4z M93.2,19.5c0,0.3,0,0.5,0.1,0.6c0.1,0.1,0.2,0.2,0.3,0.2c0.1,0,0.2,0,0.6-0.1
	c0.3,0,0.6-0.1,0.9-0.1c1.8,0,3,0,3.6,0c-0.1-0.1-0.2-0.4-0.3-0.7c-0.1-0.3-0.2-0.6-0.3-0.9c-0.1-0.2-0.3-0.4-0.6-0.4
	c-0.1,0-0.1,0-0.3,0.1c-0.5,0.1-1.3,0.2-2.3,0.2c-0.2,0-0.5,0-0.9,0c-0.4,0-0.6,0-0.7,0c-0.1,0-0.2,0-0.2,0.1c0,0.1,0,0.3-0.1,0.7
	L93.2,19.5L93.2,19.5z M93.4,16.6c0,0.2,0,0.3,0.1,0.3l2.1-0.2c1.4-0.2,2.1-0.3,2.3-0.3c0,0,0.1-0.2,0.1-0.6v-0.6h-1
	c-0.2,0-0.9,0-2.1-0.1l-1.1-0.1l-0.1,0.6C93.5,16,93.4,16.3,93.4,16.6L93.4,16.6z M93.8,11.4c0,0.3,0,0.6,0,0.7c0,0.2,0,0.3,0.1,0.4
	c0,0.1,0.1,0.2,0.2,0.2c0.1,0,0.2,0.1,0.3,0.1c0.1,0,0.2,0,0.5,0.1c0.3,0,0.5,0,0.7,0.1c0.2,0.1,0.8,0.2,1.8,0.2
	c0.4,0,0.7,0,0.8-0.1c0,0,0,0,0-0.1c0-0.1,0-0.4,0.1-1c0.1-0.6,0.1-1,0.1-1.3c0-0.3,0-0.5-0.1-0.5c-0.3-0.1-1.5-0.2-3.6-0.2h-0.2
	c-0.1,0-0.1,0-0.2,0c0,0-0.1,0-0.1,0c-0.1,0-0.2,0.1-0.3,0.2C93.8,10.4,93.8,10.8,93.8,11.4L93.8,11.4z"/>
<path class="st3" d="M107.4,18c0.1,0.3,0.3,0.6,1,0.8c0.8,0.3,1.7,0.5,2.8,0.5c0.5,0,0.9,0,1.4-0.1l0,0v0c1.1-0.2,1.9-0.3,2.4-0.4
	c0.3,0,0.5-0.1,0.6-0.1c0.1,0,0.1,0,0.2,0l0,0c0,0,0.1,0,0.1,0c0.3,0,0.4,0.2,0.5,0.3c0,0.1,0.1,0.2,0.1,0.2c0,0.1,0,0.2,0.1,0.4
	c0,0.3,0,0.8,0,1.3c0,1.3,0,2.4,0,3.1c0,0.4,0,0.7-0.1,0.9c0,0.2,0,0.4-0.1,0.6l0,0l0,0c-0.3,0.6-0.8,0.8-1.4,0.8
	c-0.3,0-0.7-0.1-1.3-0.2c-0.3-0.1-0.5-0.1-0.7-0.1c0.5,0.5,1.3,1,2.3,1.5l0.2,0.1c0,0,0,0,0,0c0,0,0.1,0,0.1,0
	c0.2,0.1,0.3,0.1,0.5,0.2l0,0c0.1,0,0.2,0.1,0.3,0.2c0,0,0.1,0.1,0.1,0.1c0.4,0.1,0.8,0.2,1.3,0.2c0.5,0,0.8-0.1,1.1-0.2
	c0.2-0.1,0.2-0.2,0.2-0.4v-0.2v0l0,0c0.1-0.5,0.2-0.9,0.4-1.2c0.1-0.2,0.2-0.5,0.3-0.7c0-0.2,0.1-0.5,0.1-1c0-0.2,0-0.6-0.1-1.3l0,0
	v0V19v-0.5h0.5h3.6c1,0,1.6-0.1,1.8-0.1c0.3,0,0.6,0,0.9,0l0,0l0,0c0.3,0,0.5,0,0.6,0h0c0.1,0,0.2,0,0.3,0l0,0.5l0-0.5
	c0,0,0.1,0,0.1,0c0,0,0,0,0,0c0.1-0.1,0.1-0.1,0.1-0.1c0-0.1,0.1-0.1,0.2-0.2c0,0,0,0,0.1-0.1c0,0,0,0,0,0c-0.3-0.3-0.7-0.5-1.2-0.6
	c-0.7-0.2-1.3-0.3-1.8-0.4l0,0l0,0c-0.5,0-1.4,0-2.7-0.1h-1.5c-0.3,0-0.5,0-0.7,0c-0.1,0-0.2,0-0.3-0.1c-0.1,0-0.3-0.2-0.3-0.5
	c0-0.1,0-0.1,0-0.2c0,0,0,0,0,0c0,0,0,0,0,0c0,0,0,0,0-0.1l-0.1-0.1v-0.1v-2.3v-0.2l0.2-0.1l1.5-1.4c0.5-0.5,1-1,1.3-1.3
	c0.1-0.2,0.3-0.3,0.3-0.4c0,0,0.1-0.1,0.1-0.1c0,0,0,0,0,0c0,0,0,0,0,0l0,0v0c0.2-0.2,0.5-0.6,1-0.9c0.2-0.2,0.4-0.3,0.5-0.4
	c0,0,0.1-0.1,0.1-0.1c0,0,0,0,0-0.1c0,0-0.1-0.1-0.2-0.2c-1-0.4-2.1-0.6-3.1-0.6c-0.5,0-1.6,0.1-3.4,0.2c-0.2,0-0.6,0.1-1.2,0.1
	c0,0-0.1,0-0.1,0c-0.5,0-0.9,0.1-1,0.1c-0.2,0-0.5,0.1-1,0.1c-0.5,0-0.8,0.1-1,0.1c-0.1,0-0.3,0-0.5,0.1c-0.1,0-0.2,0-0.4,0.1
	c-0.4,0.1-0.7,0.1-0.9,0.2l0,0v0c-0.2,0.1-0.5,0.1-0.8,0.2c-0.1,0-0.3,0.1-0.4,0.1c0.1,0.3,0.3,0.6,0.6,0.8c0.4,0.3,1,0.4,1.8,0.4
	c0.7,0,2-0.2,3.9-0.6l0,0h0h1.2h1.2l-0.8,0.8l-0.3,0.3c-0.3,0.4-0.6,0.7-1.1,1.1c-0.4,0.4-0.6,0.6-0.7,0.8l-0.5-0.2l0.5,0.2
	c-0.1,0.2-0.2,0.6-0.2,1.1c0,0.3,0,0.8,0.1,1.3c0.1,0.4,0.1,0.8,0.1,1.2v0.5v0.5h-0.5h-1c-0.8,0.2-2.1,0.3-3.8,0.5L107.4,18z
	 M107.4,18L107.4,18 M107.4,18L107.4,18 M107.4,18c0.8-0.2,2-0.3,3.5-0.4L107.4,18z M115.3,27.7C115.3,27.7,115.3,27.7,115.3,27.7
	C115.3,27.7,115.3,27.7,115.3,27.7z"/>
<defs>
	<filter id="Adobe_OpacityMaskFilter_1_" filterUnits="userSpaceOnUse" x="131" y="6.4" width="25.5" height="23.1">
		<feColorMatrix  type="matrix" values="1 0 0 0 0  0 1 0 0 0  0 0 1 0 0  0 0 0 1 0"/>
	</filter>
</defs>
<mask maskUnits="userSpaceOnUse" x="131" y="6.4" width="25.5" height="23.1" id="path-35-inside-3_2515_905_1_">
	<path class="st4" d="M131.6,15.2l0.5-0.3c0.8-0.4,1.6-0.6,2.2-0.7h0.8V13c0.2-0.3,0.4-0.8,0.6-1.5c0.2-0.6,0.4-1.2,0.6-1.6
		c0.2-0.4,0.5-0.8,0.9-0.9c0.1-0.1,0.3-0.1,0.6-0.1c0.4,0,0.8,0.1,1.2,0.3c0.3,0.2,0.5,0.5,0.5,0.8c0,0.1,0,0.2-0.1,0.4v0.2
		c0,0.3-0.1,0.8-0.4,1.4c-0.3,0.6-0.4,1.1-0.4,1.5c0,0.1,0,0.3,0.1,0.5c0.2,0.1,0.4,0.1,0.5,0.1c0.4,0,0.7-0.2,0.9-0.5
		c0.2-0.4,0.3-0.8,0.3-1.2c0-0.4,0.1-0.8,0.4-1.2c0.2-0.4,0.6-0.5,1-0.5c0.4,0,0.9,0.1,1.5,0.4c0.5,0.6,0.7,1.3,0.7,2.2
		c0,0.7-0.2,1.5-0.5,2.4c-0.3,0.9-0.7,1.8-1.2,2.8c-0.5,1-0.8,1.7-0.9,2.1c-0.1,0.4-0.3,0.8-0.6,1.2c-0.3,0.4-0.4,0.7-0.4,0.9
		c0,0.1,0.1,0.3,0.2,0.5c0.1,0.1,0.2,0.2,0.3,0.3c0.1,0.1,0.2,0.2,0.3,0.3c0.1,0.1,0.2,0.1,0.3,0.2c0.1,0.1,0.2,0.2,0.3,0.2
		c0.1,0.1,0.1,0.1,0.2,0.2c0.1,0.1,0.1,0.1,0.2,0.2c0,0.1,0.1,0.1,0.1,0.2c0,0.1,0.1,0.1,0.1,0.2s0,0.1,0,0.2c0,0.3-0.3,0.6-0.8,1
		c-0.1,0.2-0.3,0.3-0.6,0.3c-0.2,0-0.6-0.1-1.2-0.3c-0.5-0.2-0.9-0.3-1.1-0.3c-0.3,0-0.4,0.1-0.5,0.4c-0.2,0.7-0.7,1.2-1.2,1.7
		c-0.6,0.5-1.2,0.7-1.9,0.7c-0.3,0-0.5,0-0.6-0.1c0-0.1,0.1-0.5,0.3-1.2c0.2-0.7,0.5-1.4,0.8-2.1c0.3-0.8,0.5-1.3,0.5-1.7
		c-0.1-0.2-0.5-0.4-1.1-0.7c-0.6-0.3-1.2-0.7-1.7-1.1c-0.5-0.4-0.8-0.8-0.8-1.2c0-0.4,0.2-0.7,0.5-1.1c0.6-1.2,1-2,1-2.4
		c0-0.2-0.1-0.3-0.2-0.4c-0.1-0.1-0.3-0.1-0.5-0.1c-0.2,0-0.4-0.1-0.7-0.2c-0.3-0.1-0.5-0.3-0.7-0.6L131.6,15.2L131.6,15.2z
		 M136.1,20.2c0.1,0.1,0.2,0.2,0.5,0.4c0.3,0.1,0.5,0.2,0.6,0.2c0.1,0,0.4-0.7,1-2c0.6-1.3,0.8-2.1,0.8-2.3c-0.2,0-0.4-0.1-0.6-0.1
		c-0.8,0-1.2,0.3-1.3,1C136.6,18.9,136.2,19.9,136.1,20.2L136.1,20.2z M143.2,17.8c0-0.1,0-0.2,0.1-0.2c0-0.1,0.1-0.2,0.2-0.2
		c0.1-0.1,0.1-0.1,0.2-0.2c0.1,0,0.2-0.1,0.3-0.1c0.1,0,0.3-0.1,0.4-0.1c0.1,0,0.2-0.1,0.4-0.1c0.2,0,0.3,0,0.5-0.1
		c0.1,0,0.3,0,0.5-0.1c0.2,0,0.4,0,0.5-0.1c0.3,0,0.6,0.1,1,0.1c1.1,0,1.6-0.3,1.6-0.8c0-0.3-0.2-0.8-0.7-1.5
		c-0.4-0.7-0.7-1.2-0.8-1.4c-0.1-0.1-0.2-0.3-0.2-0.4c0-0.3,0.2-0.7,0.7-1.1c0.4-0.5,0.7-0.8,0.7-0.8c0-0.1-0.1-0.2-0.4-0.2
		c-0.4,0-0.9,0.1-1.6,0.2c-0.4-0.1-0.7-0.3-1.1-0.6c-0.4-0.3-0.6-0.6-0.6-0.8c0-0.3,0.2-0.5,0.7-0.7c2.4-0.8,4.2-1.2,5.5-1.2
		c1.2,0,2.1,0.3,2.8,0.8c0.1,0.2,0.2,0.4,0.2,0.7c0,0.4-0.2,0.8-0.6,1.2c-0.4,0.4-0.9,0.8-1.5,1.3c-0.6,0.4-1,0.8-1.2,1
		c0.1,0.2,0.3,0.5,0.5,0.9c0.2,0.4,0.4,0.8,0.6,1.1c0.2,0.3,0.3,0.7,0.4,1.1v0.9h2.4l0.4,0.5c0.3,0.2,0.5,0.5,0.5,0.8
		c0,0.3-0.2,0.6-0.6,0.9c-0.4,0.3-0.8,0.4-1.2,0.4h-0.6v0.6c0.2,0.4,0.3,1,0.3,1.7c0,1.6-0.4,3.4-1.1,5.4c0.2,0.2,0.2,0.5,0.2,0.7
		c0,0.4-0.2,0.7-0.5,0.9c-0.3,0.2-0.7,0.3-1.2,0.3c-0.5,0-1-0.1-1.5-0.3c-0.5-0.2-0.9-0.5-1.3-0.7c-0.4-0.3-0.8-0.7-1.2-1.1
		c-0.4-0.5-0.7-0.9-1-1.2c-0.2-0.3-0.5-0.7-0.9-1.3s-0.6-0.9-0.7-1c0.4-0.2,0.7-0.3,1.1-0.3c0.5,0,1.2,0.2,2.1,0.7
		c0.9,0.5,1.4,0.7,1.5,0.8c0.4-0.9,0.6-2,0.6-3.3c0-0.5-0.1-1-0.2-1.5V19h-1.5c-2,0.1-3,0.2-3,0.2c-0.4,0-0.7-0.1-1-0.2
		c-0.2-0.1-0.5-0.3-0.8-0.7C143.3,18.1,143.2,17.9,143.2,17.8L143.2,17.8z"/>
</mask>
<path class="st5" d="M131.6,15.2l0.5-0.3c0.8-0.4,1.6-0.6,2.2-0.7h0.8V13c0.2-0.3,0.4-0.8,0.6-1.5c0.2-0.6,0.4-1.2,0.6-1.6
	c0.2-0.4,0.5-0.8,0.9-0.9c0.1-0.1,0.3-0.1,0.6-0.1c0.4,0,0.8,0.1,1.2,0.3c0.3,0.2,0.5,0.5,0.5,0.8c0,0.1,0,0.2-0.1,0.4v0.2
	c0,0.3-0.1,0.8-0.4,1.4c-0.3,0.6-0.4,1.1-0.4,1.5c0,0.1,0,0.3,0.1,0.5c0.2,0.1,0.4,0.1,0.5,0.1c0.4,0,0.7-0.2,0.9-0.5
	c0.2-0.4,0.3-0.8,0.3-1.2c0-0.4,0.1-0.8,0.4-1.2c0.2-0.4,0.6-0.5,1-0.5c0.4,0,0.9,0.1,1.5,0.4c0.5,0.6,0.7,1.3,0.7,2.2
	c0,0.7-0.2,1.5-0.5,2.4c-0.3,0.9-0.7,1.8-1.2,2.8c-0.5,1-0.8,1.7-0.9,2.1c-0.1,0.4-0.3,0.8-0.6,1.2c-0.3,0.4-0.4,0.7-0.4,0.9
	c0,0.1,0.1,0.3,0.2,0.5c0.1,0.1,0.2,0.2,0.3,0.3c0.1,0.1,0.2,0.2,0.3,0.3c0.1,0.1,0.2,0.1,0.3,0.2c0.1,0.1,0.2,0.2,0.3,0.2
	c0.1,0.1,0.1,0.1,0.2,0.2c0.1,0.1,0.1,0.1,0.2,0.2c0,0.1,0.1,0.1,0.1,0.2c0,0.1,0.1,0.1,0.1,0.2s0,0.1,0,0.2c0,0.3-0.3,0.6-0.8,1
	c-0.1,0.2-0.3,0.3-0.6,0.3c-0.2,0-0.6-0.1-1.2-0.3c-0.5-0.2-0.9-0.3-1.1-0.3c-0.3,0-0.4,0.1-0.5,0.4c-0.2,0.7-0.7,1.2-1.2,1.7
	c-0.6,0.5-1.2,0.7-1.9,0.7c-0.3,0-0.5,0-0.6-0.1c0-0.1,0.1-0.5,0.3-1.2c0.2-0.7,0.5-1.4,0.8-2.1c0.3-0.8,0.5-1.3,0.5-1.7
	c-0.1-0.2-0.5-0.4-1.1-0.7c-0.6-0.3-1.2-0.7-1.7-1.1c-0.5-0.4-0.8-0.8-0.8-1.2c0-0.4,0.2-0.7,0.5-1.1c0.6-1.2,1-2,1-2.4
	c0-0.2-0.1-0.3-0.2-0.4c-0.1-0.1-0.3-0.1-0.5-0.1c-0.2,0-0.4-0.1-0.7-0.2c-0.3-0.1-0.5-0.3-0.7-0.6L131.6,15.2L131.6,15.2z
	 M136.1,20.2c0.1,0.1,0.2,0.2,0.5,0.4c0.3,0.1,0.5,0.2,0.6,0.2c0.1,0,0.4-0.7,1-2c0.6-1.3,0.8-2.1,0.8-2.3c-0.2,0-0.4-0.1-0.6-0.1
	c-0.8,0-1.2,0.3-1.3,1C136.6,18.9,136.2,19.9,136.1,20.2L136.1,20.2z M143.2,17.8c0-0.1,0-0.2,0.1-0.2c0-0.1,0.1-0.2,0.2-0.2
	c0.1-0.1,0.1-0.1,0.2-0.2c0.1,0,0.2-0.1,0.3-0.1c0.1,0,0.3-0.1,0.4-0.1c0.1,0,0.2-0.1,0.4-0.1c0.2,0,0.3,0,0.5-0.1
	c0.1,0,0.3,0,0.5-0.1c0.2,0,0.4,0,0.5-0.1c0.3,0,0.6,0.1,1,0.1c1.1,0,1.6-0.3,1.6-0.8c0-0.3-0.2-0.8-0.7-1.5
	c-0.4-0.7-0.7-1.2-0.8-1.4c-0.1-0.1-0.2-0.3-0.2-0.4c0-0.3,0.2-0.7,0.7-1.1c0.4-0.5,0.7-0.8,0.7-0.8c0-0.1-0.1-0.2-0.4-0.2
	c-0.4,0-0.9,0.1-1.6,0.2c-0.4-0.1-0.7-0.3-1.1-0.6c-0.4-0.3-0.6-0.6-0.6-0.8c0-0.3,0.2-0.5,0.7-0.7c2.4-0.8,4.2-1.2,5.5-1.2
	c1.2,0,2.1,0.3,2.8,0.8c0.1,0.2,0.2,0.4,0.2,0.7c0,0.4-0.2,0.8-0.6,1.2c-0.4,0.4-0.9,0.8-1.5,1.3c-0.6,0.4-1,0.8-1.2,1
	c0.1,0.2,0.3,0.5,0.5,0.9c0.2,0.4,0.4,0.8,0.6,1.1c0.2,0.3,0.3,0.7,0.4,1.1v0.9h2.4l0.4,0.5c0.3,0.2,0.5,0.5,0.5,0.8
	c0,0.3-0.2,0.6-0.6,0.9c-0.4,0.3-0.8,0.4-1.2,0.4h-0.6v0.6c0.2,0.4,0.3,1,0.3,1.7c0,1.6-0.4,3.4-1.1,5.4c0.2,0.2,0.2,0.5,0.2,0.7
	c0,0.4-0.2,0.7-0.5,0.9c-0.3,0.2-0.7,0.3-1.2,0.3c-0.5,0-1-0.1-1.5-0.3c-0.5-0.2-0.9-0.5-1.3-0.7c-0.4-0.3-0.8-0.7-1.2-1.1
	c-0.4-0.5-0.7-0.9-1-1.2c-0.2-0.3-0.5-0.7-0.9-1.3s-0.6-0.9-0.7-1c0.4-0.2,0.7-0.3,1.1-0.3c0.5,0,1.2,0.2,2.1,0.7
	c0.9,0.5,1.4,0.7,1.5,0.8c0.4-0.9,0.6-2,0.6-3.3c0-0.5-0.1-1-0.2-1.5V19h-1.5c-2,0.1-3,0.2-3,0.2c-0.4,0-0.7-0.1-1-0.2
	c-0.2-0.1-0.5-0.3-0.8-0.7C143.3,18.1,143.2,17.9,143.2,17.8L143.2,17.8z"/>
<defs>
	<filter id="Adobe_OpacityMaskFilter_2_" filterUnits="userSpaceOnUse" x="157.5" y="5.4" width="25.4" height="24.7">
		<feColorMatrix  type="matrix" values="1 0 0 0 0  0 1 0 0 0  0 0 1 0 0  0 0 0 1 0"/>
	</filter>
</defs>
<mask maskUnits="userSpaceOnUse" x="157.5" y="5.4" width="25.4" height="24.7" id="path-36-inside-4_2515_905_1_">
	<path class="st6" d="M158.6,13.9c0-0.1,0.1-0.2,0.2-0.4c0.1-0.2,0.3-0.3,0.6-0.4c0.3-0.1,0.9-0.2,1.7-0.2c0.8-0.1,1.3-0.2,1.4-0.2
		c0.1-0.1,0-0.3-0.1-0.8c-0.1-0.5-0.2-0.7-0.2-0.8c-0.1-0.1-0.2-0.1-0.3-0.1c-0.2,0-0.6,0.1-1.1,0.1l-0.9,0.1l-0.5-0.4
		c-0.7-0.6-0.6-1,0.4-1.3c0.4-0.1,0.9-0.2,1.4-0.3c0.5-0.1,0.8-0.1,0.8-0.2c0-0.1,0-0.4-0.1-0.9c-0.1-0.5-0.1-0.8-0.1-0.9
		c0-0.1,0.1-0.2,0.3-0.4c0.2-0.2,0.4-0.2,0.6-0.2c0.2,0,0.4,0,0.4-0.1c0.1-0.1,0.1-0.1,0.3-0.1c0.7,0.2,1.1,0.4,1.3,0.6
		c0.1,0.2,0.2,0.4,0.3,0.5c0,0.2,0.1,0.4,0.1,0.7c0,0.3,0,0.5,0.1,0.5c0.1,0,0.5,0.1,1.3,0.2c0.8,0.1,1.2,0.1,1.3,0.2
		c0.1,0,0.2,0.1,0.4,0.2c0.2,0.1,0.3,0.1,0.3,0.1c0-0.1-0.1-0.2-0.2-0.3c-0.1-0.2,0-0.3,0.2-0.5c0.7-0.5,2.4-0.8,5.4-0.9
		c0.6,0,1,0,1.2,0c0.2,0,0.4,0.1,0.7,0.2c0.3,0.1,0.5,0.3,0.5,0.4l-0.4,0.9c0,0.1-0.2,0.2-0.5,0.2c-0.2,0-0.4,0.1-0.6,0.2
		c0,0,0,0.1,0.1,0.1c0.1,0,0.1,0.3,0.1,0.7c0,0.5,0,0.7,0.1,0.7c0,0,0.1,0,0.2-0.1c0.4-0.3,1.6-0.5,3.6-0.5l1.9-0.1l0.4,0.4
		c0.3,0.2,0.4,0.5,0.4,0.8c0,0.6,0,1.2-0.1,1.8l-1.7,6.5c-0.1,0.3,0.1,0.7,0.4,1.3c0.4,0.6,0.6,1,0.6,1.3l1,2.4
		c0.1,0.2,0.1,0.3,0,0.3c-0.1,0-0.2,0.1-0.2,0.3c0,0.1-0.1,0.3-0.2,0.4c-0.2,0.2-0.3,0.3-0.4,0.3c-0.1,0-0.2,0-0.3-0.1
		c-0.1-0.1-0.3-0.3-0.6-0.7c-0.3-0.4-0.6-0.7-0.8-1c-0.2-0.3-0.5-0.6-0.7-0.9l-0.4-0.6l-0.2,0.4l-2.2,2c-0.3,0.2-0.5,0.2-0.7,0.2
		c-0.2-0.1-0.3-0.1-0.3,0c0,0-0.1,0.2-0.1,0.4c0,0.2-0.1,0.4-0.3,0.5c-0.2,0.1-0.3,0.2-0.3,0.3c0,0.1-0.2,0.2-0.5,0.3
		c-0.3,0-0.5,0-0.7-0.1c-0.1-0.1-0.2-0.3-0.3-0.6c-0.1-0.3-0.1-0.8-0.1-1.5c0-0.8-0.1-1.2-0.1-1.2c0,0-0.7,0.1-2,0.4
		c-1.3,0.3-2.1,0.3-2.2,0.1c-0.1-0.1-0.1-0.2-0.2-0.2c-0.1,0-0.2-0.1-0.3-0.2c-0.1-0.1-0.2-0.2-0.2-0.3c0-0.1,0-0.2,0.1-0.3
		c0.1-0.2,0.3-0.3,0.6-0.4c0.3-0.1,0.5-0.2,0.5-0.3c0-0.1,0.1-0.2,0-0.4c0-0.2-0.1-0.9-0.1-2v-5.3c0-2.2,0.1-3.4,0.1-3.8
		c0.1-0.4,0.1-0.6,0-0.8c-0.1-0.1-0.1-0.2-0.2-0.2c-0.1,0-0.1,0.1-0.1,0.2c0,0.1,0,0.3-0.2,0.5c-0.1,0.3-0.3,0.4-0.4,0.5
		c-0.1,0.1-0.6,0.1-1.4,0.1c-0.8,0-1.3,0.1-1.4,0.1c-0.1,0.1-0.3,0.3-0.5,0.7c-0.2,0.5-0.3,0.7-0.2,0.8c0.1,0,0.4,0,1,0
		c1.2-0.1,2,0.1,2.5,0.6l0.3,0.3l-0.2,0.3C168,13.8,168,14,168,14c0,0.1,0,0.1-0.1,0.1c-0.1,0-0.2,0-0.3,0.1c-0.2,0-0.6,0.1-1.2,0.1
		c-0.7,0-1,0.1-1.1,0.3c-0.1,0.1-0.1,0.4-0.1,0.8l0.1,2.8c0,0.1,0,0.2,0.1,0.2c0.1,0,0.4,0,0.8,0c1.2-0.1,1.9,0.1,2.1,0.4
		c0.1,0.1,0.1,0.2,0.1,0.2c0,0.1-0.1,0.1-0.2,0.3c-0.7,0.6-1.5,0.9-2.5,0.9c-0.3,0-0.5,0.1-0.5,0.2c0,0.1-0.1,0.9-0.2,2.4
		c-0.1,1.4-0.2,2.2-0.1,2.3c0,0.1,0.6,0.4,1.7,1c0.5,0.2,1.6,0.5,3.3,0.7c0.8,0.1,2,0.2,3.4,0.2l6.6,0.1c1,0.5,0.8,1-0.6,1.5
		l-6.1,0.4c-4.3-0.4-7.6-1-9.9-2c-0.8-0.4-1.5-0.8-2-1.2c0,0-0.1,0.1-0.1,0.2c0,0.1-0.1,0.2-0.2,0.4c-0.6,1-1.2,1.6-1.8,1.9
		c-0.1,0.1-0.2,0.1-0.3,0c-0.1,0-0.1-0.1-0.2-0.3c0-0.1,0-0.5,0.1-1.1c0-0.6,0.1-1.2,0.2-1.7c0.1-0.5,0.2-1,0.2-1.5
		c0-0.5,0.1-0.8,0.1-0.8c0.1-0.1,0.1-0.7,0.1-2c0-1.2-0.1-1.9-0.1-2c-0.1-0.1-0.1-0.2,0-0.3c0.2-0.3,0.4-0.4,0.8-0.3
		c0.4,0.1,0.7,0.2,1,0.4c0.2,0.2,0.4,0.7,0.5,1.4c0.1,0.8,0.1,1.5,0,2.3c-0.1,0.7-0.1,1.1-0.1,1.2c0.1,0.1,0.2,0.1,0.4,0.1l0.3,0.1
		l-0.1-0.5c0-0.3-0.1-1.7-0.2-4.2c-0.1-2.5-0.1-3.8-0.2-4l-0.1-0.3l-2.5,0.2l-0.2-0.3c-0.1-0.2-0.2-0.3-0.3-0.3
		c-0.1,0-0.2-0.1-0.3-0.2C158.6,14,158.5,13.9,158.6,13.9L158.6,13.9z M171,20c0,0.8-0.1,1.3-0.1,1.4c0,0.1,0,0.2,0.1,0.2
		c0.1,0,0.5,0,1.1-0.1l0.7-0.1v-1.1c0-0.7,0-1.2,0-1.5c0-0.3,0-0.4,0-0.4c0,0-0.1,0-0.3,0c-0.2,0-0.4,0.1-0.8,0.1
		c-0.4,0.1-0.6,0.1-0.6,0.2C171.1,18.7,171,19.1,171,20L171,20z M171.2,16.2c-0.1,0.1-0.1,0.3-0.1,0.4c0,0.1,0.1,0.2,0.2,0.2
		c0.1,0,0.4,0,0.9-0.1l0.7-0.1v-1.1c0-0.7,0-1.1-0.1-1.2c-0.1,0-0.3,0-0.7,0.1c-0.4,0.1-0.6,0.1-0.7,0.2c-0.1,0.1-0.1,0.3-0.1,0.8
		C171.3,15.8,171.3,16.1,171.2,16.2L171.2,16.2z M171.4,11.6l0.1,0.9l0.5,0c0,0,0.2,0,0.4-0.1c0.2,0,0.4-0.1,0.4-0.2
		c0.1-0.1,0.1-0.3,0.1-0.7c0-0.4,0-0.7,0-1.1c0-0.4,0-0.7-0.1-0.8c0-0.1-0.1-0.2-0.2-0.2c-0.1,0-0.3,0-0.6,0.1s-0.4,0.1-0.5,0.1
		C171.4,9.9,171.4,10.5,171.4,11.6L171.4,11.6z M175,11.6c0,0.1,0,0.4,0,1c0,0.5,0.1,1,0.1,1.3c0,0.3,0,0.5,0,0.5c0,0,0.1,0,0.2-0.1
		c0.1-0.1,0.3-0.2,0.8-0.2c0.4,0,0.7,0,0.9,0.1c0.1,0,0.4,0.4,1,1.2c0.1,0.1,0.1,0.1,0.2,0.1c0.1-0.1,0.1-0.1,0.1-0.2
		c0-0.1,0-0.2,0.1-0.4l0.5-2.4l0.1-0.4l-0.7,0.1c-0.5,0.1-0.9,0.1-1.1,0.2c-0.2,0.1-0.5,0.1-0.9,0c-0.3,0-0.5-0.1-0.5-0.2
		c0-0.1-0.1-0.3-0.3-0.5C175.1,11.4,175,11.4,175,11.6L175,11.6z M175,18c0,4.4,0,6.6,0.1,6.5c0.1-0.1,0.3-0.4,0.5-1.1
		c0.3-0.6,0.4-1.1,0.5-1.5c0.1-0.4,0.2-0.8,0.4-1.3c0.2-0.5,0.2-0.8,0.2-1c0-0.1-0.1-0.4-0.3-0.9c-0.2-0.5-0.5-1.1-0.7-2
		c-0.3-0.9-0.4-1.4-0.4-1.6c0-0.2-0.1-0.3-0.1-0.3C175.1,14.9,175,15.9,175,18L175,18z"/>
</mask>
<path class="st7" d="M158.6,13.9c0-0.1,0.1-0.2,0.2-0.4c0.1-0.2,0.3-0.3,0.6-0.4c0.3-0.1,0.9-0.2,1.7-0.2c0.8-0.1,1.3-0.2,1.4-0.2
	c0.1-0.1,0-0.3-0.1-0.8c-0.1-0.5-0.2-0.7-0.2-0.8c-0.1-0.1-0.2-0.1-0.3-0.1c-0.2,0-0.6,0.1-1.1,0.1l-0.9,0.1l-0.5-0.4
	c-0.7-0.6-0.6-1,0.4-1.3c0.4-0.1,0.9-0.2,1.4-0.3c0.5-0.1,0.8-0.1,0.8-0.2c0-0.1,0-0.4-0.1-0.9c-0.1-0.5-0.1-0.8-0.1-0.9
	c0-0.1,0.1-0.2,0.3-0.4c0.2-0.2,0.4-0.2,0.6-0.2c0.2,0,0.4,0,0.4-0.1c0.1-0.1,0.1-0.1,0.3-0.1c0.7,0.2,1.1,0.4,1.3,0.6
	c0.1,0.2,0.2,0.4,0.3,0.5c0,0.2,0.1,0.4,0.1,0.7c0,0.3,0,0.5,0.1,0.5c0.1,0,0.5,0.1,1.3,0.2c0.8,0.1,1.2,0.1,1.3,0.2
	c0.1,0,0.2,0.1,0.4,0.2c0.2,0.1,0.3,0.1,0.3,0.1c0-0.1-0.1-0.2-0.2-0.3c-0.1-0.2,0-0.3,0.2-0.5c0.7-0.5,2.4-0.8,5.4-0.9
	c0.6,0,1,0,1.2,0c0.2,0,0.4,0.1,0.7,0.2c0.3,0.1,0.5,0.3,0.5,0.4l-0.4,0.9c0,0.1-0.2,0.2-0.5,0.2c-0.2,0-0.4,0.1-0.6,0.2
	c0,0,0,0.1,0.1,0.1c0.1,0,0.1,0.3,0.1,0.7c0,0.5,0,0.7,0.1,0.7c0,0,0.1,0,0.2-0.1c0.4-0.3,1.6-0.5,3.6-0.5l1.9-0.1l0.4,0.4
	c0.3,0.2,0.4,0.5,0.4,0.8c0,0.6,0,1.2-0.1,1.8l-1.7,6.5c-0.1,0.3,0.1,0.7,0.4,1.3c0.4,0.6,0.6,1,0.6,1.3l1,2.4
	c0.1,0.2,0.1,0.3,0,0.3c-0.1,0-0.2,0.1-0.2,0.3c0,0.1-0.1,0.3-0.2,0.4c-0.2,0.2-0.3,0.3-0.4,0.3c-0.1,0-0.2,0-0.3-0.1
	c-0.1-0.1-0.3-0.3-0.6-0.7c-0.3-0.4-0.6-0.7-0.8-1c-0.2-0.3-0.5-0.6-0.7-0.9l-0.4-0.6l-0.2,0.4l-2.2,2c-0.3,0.2-0.5,0.2-0.7,0.2
	c-0.2-0.1-0.3-0.1-0.3,0c0,0-0.1,0.2-0.1,0.4c0,0.2-0.1,0.4-0.3,0.5c-0.2,0.1-0.3,0.2-0.3,0.3c0,0.1-0.2,0.2-0.5,0.3
	c-0.3,0-0.5,0-0.7-0.1c-0.1-0.1-0.2-0.3-0.3-0.6c-0.1-0.3-0.1-0.8-0.1-1.5c0-0.8-0.1-1.2-0.1-1.2c0,0-0.7,0.1-2,0.4
	c-1.3,0.3-2.1,0.3-2.2,0.1c-0.1-0.1-0.1-0.2-0.2-0.2c-0.1,0-0.2-0.1-0.3-0.2c-0.1-0.1-0.2-0.2-0.2-0.3c0-0.1,0-0.2,0.1-0.3
	c0.1-0.2,0.3-0.3,0.6-0.4c0.3-0.1,0.5-0.2,0.5-0.3c0-0.1,0.1-0.2,0-0.4c0-0.2-0.1-0.9-0.1-2v-5.3c0-2.2,0.1-3.4,0.1-3.8
	c0.1-0.4,0.1-0.6,0-0.8c-0.1-0.1-0.1-0.2-0.2-0.2c-0.1,0-0.1,0.1-0.1,0.2c0,0.1,0,0.3-0.2,0.5c-0.1,0.3-0.3,0.4-0.4,0.5
	c-0.1,0.1-0.6,0.1-1.4,0.1c-0.8,0-1.3,0.1-1.4,0.1c-0.1,0.1-0.3,0.3-0.5,0.7c-0.2,0.5-0.3,0.7-0.2,0.8c0.1,0,0.4,0,1,0
	c1.2-0.1,2,0.1,2.5,0.6l0.3,0.3l-0.2,0.3C168,13.8,168,14,168,14c0,0.1,0,0.1-0.1,0.1c-0.1,0-0.2,0-0.3,0.1c-0.2,0-0.6,0.1-1.2,0.1
	c-0.7,0-1,0.1-1.1,0.3c-0.1,0.1-0.1,0.4-0.1,0.8l0.1,2.8c0,0.1,0,0.2,0.1,0.2c0.1,0,0.4,0,0.8,0c1.2-0.1,1.9,0.1,2.1,0.4
	c0.1,0.1,0.1,0.2,0.1,0.2c0,0.1-0.1,0.1-0.2,0.3c-0.7,0.6-1.5,0.9-2.5,0.9c-0.3,0-0.5,0.1-0.5,0.2c0,0.1-0.1,0.9-0.2,2.4
	c-0.1,1.4-0.2,2.2-0.1,2.3c0,0.1,0.6,0.4,1.7,1c0.5,0.2,1.6,0.5,3.3,0.7c0.8,0.1,2,0.2,3.4,0.2l6.6,0.1c1,0.5,0.8,1-0.6,1.5
	l-6.1,0.4c-4.3-0.4-7.6-1-9.9-2c-0.8-0.4-1.5-0.8-2-1.2c0,0-0.1,0.1-0.1,0.2c0,0.1-0.1,0.2-0.2,0.4c-0.6,1-1.2,1.6-1.8,1.9
	c-0.1,0.1-0.2,0.1-0.3,0c-0.1,0-0.1-0.1-0.2-0.3c0-0.1,0-0.5,0.1-1.1c0-0.6,0.1-1.2,0.2-1.7c0.1-0.5,0.2-1,0.2-1.5
	c0-0.5,0.1-0.8,0.1-0.8c0.1-0.1,0.1-0.7,0.1-2c0-1.2-0.1-1.9-0.1-2c-0.1-0.1-0.1-0.2,0-0.3c0.2-0.3,0.4-0.4,0.8-0.3
	c0.4,0.1,0.7,0.2,1,0.4c0.2,0.2,0.4,0.7,0.5,1.4c0.1,0.8,0.1,1.5,0,2.3c-0.1,0.7-0.1,1.1-0.1,1.2c0.1,0.1,0.2,0.1,0.4,0.1l0.3,0.1
	l-0.1-0.5c0-0.3-0.1-1.7-0.2-4.2c-0.1-2.5-0.1-3.8-0.2-4l-0.1-0.3l-2.5,0.2l-0.2-0.3c-0.1-0.2-0.2-0.3-0.3-0.3
	c-0.1,0-0.2-0.1-0.3-0.2C158.6,14,158.5,13.9,158.6,13.9L158.6,13.9z M171,20c0,0.8-0.1,1.3-0.1,1.4c0,0.1,0,0.2,0.1,0.2
	c0.1,0,0.5,0,1.1-0.1l0.7-0.1v-1.1c0-0.7,0-1.2,0-1.5c0-0.3,0-0.4,0-0.4c0,0-0.1,0-0.3,0c-0.2,0-0.4,0.1-0.8,0.1
	c-0.4,0.1-0.6,0.1-0.6,0.2C171.1,18.7,171,19.1,171,20L171,20z M171.2,16.2c-0.1,0.1-0.1,0.3-0.1,0.4c0,0.1,0.1,0.2,0.2,0.2
	c0.1,0,0.4,0,0.9-0.1l0.7-0.1v-1.1c0-0.7,0-1.1-0.1-1.2c-0.1,0-0.3,0-0.7,0.1c-0.4,0.1-0.6,0.1-0.7,0.2c-0.1,0.1-0.1,0.3-0.1,0.8
	C171.3,15.8,171.3,16.1,171.2,16.2L171.2,16.2z M171.4,11.6l0.1,0.9l0.5,0c0,0,0.2,0,0.4-0.1c0.2,0,0.4-0.1,0.4-0.2
	c0.1-0.1,0.1-0.3,0.1-0.7c0-0.4,0-0.7,0-1.1c0-0.4,0-0.7-0.1-0.8c0-0.1-0.1-0.2-0.2-0.2c-0.1,0-0.3,0-0.6,0.1s-0.4,0.1-0.5,0.1
	C171.4,9.9,171.4,10.5,171.4,11.6L171.4,11.6z M175,11.6c0,0.1,0,0.4,0,1c0,0.5,0.1,1,0.1,1.3c0,0.3,0,0.5,0,0.5c0,0,0.1,0,0.2-0.1
	c0.1-0.1,0.3-0.2,0.8-0.2c0.4,0,0.7,0,0.9,0.1c0.1,0,0.4,0.4,1,1.2c0.1,0.1,0.1,0.1,0.2,0.1c0.1-0.1,0.1-0.1,0.1-0.2
	c0-0.1,0-0.2,0.1-0.4l0.5-2.4l0.1-0.4l-0.7,0.1c-0.5,0.1-0.9,0.1-1.1,0.2c-0.2,0.1-0.5,0.1-0.9,0c-0.3,0-0.5-0.1-0.5-0.2
	c0-0.1-0.1-0.3-0.3-0.5C175.1,11.4,175,11.4,175,11.6L175,11.6z M175,18c0,4.4,0,6.6,0.1,6.5c0.1-0.1,0.3-0.4,0.5-1.1
	c0.3-0.6,0.4-1.1,0.5-1.5c0.1-0.4,0.2-0.8,0.4-1.3c0.2-0.5,0.2-0.8,0.2-1c0-0.1-0.1-0.4-0.3-0.9c-0.2-0.5-0.5-1.1-0.7-2
	c-0.3-0.9-0.4-1.4-0.4-1.6c0-0.2-0.1-0.3-0.1-0.3C175.1,14.9,175,15.9,175,18L175,18z"/>
<defs>
	<filter id="Adobe_OpacityMaskFilter_3_" filterUnits="userSpaceOnUse" x="185.7" y="5.2" width="23.3" height="24.4">
		<feColorMatrix  type="matrix" values="1 0 0 0 0  0 1 0 0 0  0 0 1 0 0  0 0 0 1 0"/>
	</filter>
</defs>
<mask maskUnits="userSpaceOnUse" x="185.7" y="5.2" width="23.3" height="24.4" id="path-37-inside-5_2515_905_1_">
	<path class="st8" d="M186.7,11.8c0-0.2,0.2-0.4,0.7-0.5c0.2,0,0.3-0.1,0.5-0.1c0.2-0.1,0.3-0.1,0.4-0.1c0.1,0,0.3,0,0.4,0.1
		c0.3,0.1,0.5,0.2,0.7,0.2c0.2,0,0.3,0,0.4-0.1c0.2-0.2,2.2-0.3,6-0.3h0.5l-0.2-0.8c-0.3-1.2-0.5-2.1-0.5-2.9V6.8h0.1
		c0,0,0-0.1,0-0.1s0-0.1,0-0.1c0-0.3,0.3-0.4,1-0.4c0.3,0,0.7,0,1,0.1c0.4,0.1,0.7,0.2,0.9,0.3c0.2,0.1,0.3,0.2,0.3,0.3h0.1
		c0,0.1,0,0.2-0.1,0.4c0,0.2-0.1,0.3-0.1,0.4l0.4-0.1c0.6-0.1,1.3-0.1,2.2-0.1c1.2,0,2.3,0.1,3.1,0.3c0.9,0.2,1.3,0.5,1.3,0.8
		c0,0.2-0.1,0.4-0.3,0.6c-0.1,0.1-0.8,0.2-2,0.3c-1.2,0.1-2.4,0.1-3.5,0.2c-1.1,0.1-1.7,0.2-1.7,0.4c0,0.2-0.1,0.4-0.2,0.6l-0.2,0.3
		c0,0,0,0.1,0.1,0.1c0.1,0,0.1,0,0.2,0c0.1,0,0.2,0,0.3,0c0.1,0,0.3,0,0.4-0.1c1.2-0.1,2.2-0.2,3-0.2c1,0,1.6,0.1,2,0.3
		c0.1,0.1,0.4,0.1,0.8,0.1c0.4,0,0.8,0.1,1.1,0.2c0.3,0.1,0.5,0.3,0.5,0.6c0,0.3-0.1,0.5-0.3,0.7c-0.2,0.2-0.5,0.4-1,0.6
		c-0.1,0.1-0.3,0.2-0.5,0.4c-0.2,0.2-0.4,0.3-0.6,0.3c-0.1,0-0.4,0-0.7,0.1c-0.3,0.1-0.5,0.1-0.6,0.1c-0.2,0-0.3-0.1-0.3-0.3
		c0-0.1,0-0.2,0.1-0.4l0.1-0.3H201l-10.3,0.4c0.3,1.2,0.4,2,0.4,2.2v0.3c0,0.2,0,0.8,0.1,1.8c0.1,1,0.1,1.8,0.1,2.3
		c0,0.5-0.1,0.9-0.2,1.1c-0.1,1.5-0.2,2.4-0.4,2.8c-0.1,0.1-0.2,0.4-0.4,0.9c-0.2,0.5-0.5,1-0.7,1.4c-0.2,0.4-0.4,0.6-0.5,0.6
		c-0.1,0-0.2,0.1-0.4,0.4s-0.3,0.4-0.4,0.4h-0.1l-0.1,0c-0.1,0-0.3,0.1-0.4,0.2c-0.2,0.1-0.3,0.2-0.5,0.2c-0.2,0-0.4-0.1-0.4-0.2
		c-0.1-0.1-0.1-0.4-0.1-0.7c0-0.3,0.1-1.4,0.3-3.1c0.1-0.5,0.1-1,0.1-1.7c0-1.1-0.1-2.9-0.3-5.5c-0.2-2.6-0.3-4-0.3-4.3
		c0-0.1,0-0.2,0-0.3S186.7,11.8,186.7,11.8L186.7,11.8z M191.3,24.4c0-0.8,0.2-1.6,0.6-2.5s0.8-1.6,1.3-2c0.2-0.2,0.4-0.2,0.6-0.2
		c0.2,0,0.4,0.1,0.8,0.3c0.4,0.2,0.7,0.3,1,0.3c2.2,0,3.3,0.5,3.3,1.5c0,0.5-0.4,1.5-1.2,2.8c-0.1,0.2-0.2,0.4-0.2,0.5
		c0,0.3,0.4,0.4,1.2,0.4c0.1,0,0.1-0.3,0.2-0.9c0.1-0.6,0.2-1.3,0.4-2c0.2-0.7,0.5-1.2,0.8-1.4c0.1-0.1,0.2-0.1,0.2-0.2
		c0-0.5,0.8-0.7,2.5-0.7c1.5,0,2.3,0.2,2.6,0.5c0.1,0.1,0.2,0.3,0.2,0.6c0,0.3-0.1,0.7-0.2,1.3c-0.1,0.6-0.2,1-0.2,1.2
		c0,0.3,0.1,0.5,0.2,0.5c0.2,0,0.4-0.3,0.5-0.8c0.1-1,0.4-1.5,0.7-1.5c0.2,0,0.5,0.2,0.7,0.5c0.2,0.4,0.3,0.7,0.3,1
		c0,0.1,0,0.2,0,0.3c0,0.1,0,0.2,0,0.2c0,0.2,0.1,0.4,0.3,0.6c0.2,0.2,0.3,0.4,0.3,0.5c0,0.3-0.3,0.5-0.8,0.8
		c-0.5,0.2-1,0.3-1.5,0.3h-0.2c-0.2,0-0.2,0-0.2,0.1s0.1,0.2,0.3,0.3c0.2,0.1,0.3,0.2,0.3,0.3c0,0.1,0,0.3,0.1,0.4
		c0.1,0.1,0.1,0.2,0.1,0.3c0,0.1-0.1,0.3-0.3,0.5l-0.4,0.4l-1.2,0c-0.8,0-2.2-0.2-4.1-0.4c-1.9-0.3-3.2-0.5-3.9-0.7
		c-0.3-0.1-0.5-0.1-0.6-0.1c-0.1,0-0.2,0.1-0.2,0.2c0,0.1-0.3,0.3-0.8,0.7c-0.5,0.3-0.9,0.5-1,0.5c-0.1,0-0.1,0-0.1-0.1
		c0,0,0.1-0.4,0.2-1.2l0.1-0.4l-0.9-0.3c-0.8-0.3-1.2-0.6-1.2-1c0,0,0-0.1,0-0.1c0-0.1,0-0.1,0-0.2c0,0-0.1-0.1-0.2-0.2
		C191.3,24.9,191.2,24.7,191.3,24.4L191.3,24.4z M192.4,16.1c0-0.2,0.1-0.3,0.2-0.4c0.1-0.1,0.3-0.2,0.6-0.3
		c0.3-0.1,0.5-0.1,0.7-0.2c0.2,0,0.4-0.1,0.8-0.1c0.4,0,0.6-0.1,0.7-0.1l0.5-0.1v-0.5c0-0.8,0.3-1.2,1-1.2c0.3,0,0.6,0.1,0.9,0.3
		c0.3,0.2,0.4,0.4,0.5,0.7l0.1,0.5l0.6,0c0.1,0,0.4,0,0.8,0c0.4,0,0.8,0,1,0c1.4,0,2.1,0.3,2.1,0.9c0,0.5-0.4,0.8-1.1,1
		c-0.7,0.2-1.5,0.3-2.2,0.4c-0.7,0.1-1.1,0.1-1.1,0.3c0,0.1,0.7,0.2,2,0.3c1.3,0.1,2,0.3,2,0.6c0,0.2-0.3,0.4-0.9,0.7
		c-0.6,0.3-1.4,0.4-2.5,0.4c-0.9,0-1.6-0.1-1.9-0.4c0,0-0.2-0.1-0.5-0.3c-0.3-0.2-0.6-0.4-0.7-0.6c-0.2-0.2-0.3-0.3-0.3-0.5
		c-1.8,0-2.8-0.4-3.2-1.1C192.4,16.3,192.4,16.2,192.4,16.1L192.4,16.1z M192.9,24.3c0,0.1,0.3,0.1,0.9,0.2l0.8,0.1l0.1-0.3
		c0.1-0.1,0.1-0.3,0.3-0.6c0.1-0.3,0.2-0.5,0.3-0.6c0.1-0.1,0.1-0.3,0.1-0.4c0-0.2-0.2-0.3-0.5-0.3c-0.2,0-0.4,0.1-0.6,0.2
		c-0.1,0.1-0.2,0.3-0.2,0.5c0,0.2-0.1,0.4-0.2,0.5c-0.1,0.1-0.3,0.2-0.5,0.2c-0.1,0-0.2,0.1-0.3,0.2S192.9,24.2,192.9,24.3
		L192.9,24.3z M200.4,25.5c0,0.1,0.4,0.3,1.3,0.4c0.9,0.1,1.5,0.1,1.9,0.1c0.1,0,0.2,0,0.2,0s-0.1-0.1-0.2-0.2
		c-0.1-0.1-0.3-0.2-0.5-0.4c-0.2-0.1-0.3-0.2-0.3-0.3c-0.1-0.2-0.2-0.5-0.3-1c-0.1-0.5-0.1-0.9-0.2-1.3c0-0.4-0.1-0.6-0.2-0.6
		c-0.1,0-0.4,0.8-0.9,2.3c-0.1,0.2-0.2,0.4-0.5,0.6C200.6,25.4,200.4,25.5,200.4,25.5z"/>
</mask>
<path class="st9" d="M186.7,11.8c0-0.2,0.2-0.4,0.7-0.5c0.2,0,0.3-0.1,0.5-0.1c0.2-0.1,0.3-0.1,0.4-0.1c0.1,0,0.3,0,0.4,0.1
	c0.3,0.1,0.5,0.2,0.7,0.2c0.2,0,0.3,0,0.4-0.1c0.2-0.2,2.2-0.3,6-0.3h0.5l-0.2-0.8c-0.3-1.2-0.5-2.1-0.5-2.9V6.8h0.1
	c0,0,0-0.1,0-0.1s0-0.1,0-0.1c0-0.3,0.3-0.4,1-0.4c0.3,0,0.7,0,1,0.1c0.4,0.1,0.7,0.2,0.9,0.3c0.2,0.1,0.3,0.2,0.3,0.3h0.1
	c0,0.1,0,0.2-0.1,0.4c0,0.2-0.1,0.3-0.1,0.4l0.4-0.1c0.6-0.1,1.3-0.1,2.2-0.1c1.2,0,2.3,0.1,3.1,0.3c0.9,0.2,1.3,0.5,1.3,0.8
	c0,0.2-0.1,0.4-0.3,0.6c-0.1,0.1-0.8,0.2-2,0.3c-1.2,0.1-2.4,0.1-3.5,0.2c-1.1,0.1-1.7,0.2-1.7,0.4c0,0.2-0.1,0.4-0.2,0.6l-0.2,0.3
	c0,0,0,0.1,0.1,0.1c0.1,0,0.1,0,0.2,0c0.1,0,0.2,0,0.3,0c0.1,0,0.3,0,0.4-0.1c1.2-0.1,2.2-0.2,3-0.2c1,0,1.6,0.1,2,0.3
	c0.1,0.1,0.4,0.1,0.8,0.1c0.4,0,0.8,0.1,1.1,0.2c0.3,0.1,0.5,0.3,0.5,0.6c0,0.3-0.1,0.5-0.3,0.7c-0.2,0.2-0.5,0.4-1,0.6
	c-0.1,0.1-0.3,0.2-0.5,0.4c-0.2,0.2-0.4,0.3-0.6,0.3c-0.1,0-0.4,0-0.7,0.1c-0.3,0.1-0.5,0.1-0.6,0.1c-0.2,0-0.3-0.1-0.3-0.3
	c0-0.1,0-0.2,0.1-0.4l0.1-0.3H201l-10.3,0.4c0.3,1.2,0.4,2,0.4,2.2v0.3c0,0.2,0,0.8,0.1,1.8c0.1,1,0.1,1.8,0.1,2.3
	c0,0.5-0.1,0.9-0.2,1.1c-0.1,1.5-0.2,2.4-0.4,2.8c-0.1,0.1-0.2,0.4-0.4,0.9c-0.2,0.5-0.5,1-0.7,1.4c-0.2,0.4-0.4,0.6-0.5,0.6
	c-0.1,0-0.2,0.1-0.4,0.4s-0.3,0.4-0.4,0.4h-0.1l-0.1,0c-0.1,0-0.3,0.1-0.4,0.2c-0.2,0.1-0.3,0.2-0.5,0.2c-0.2,0-0.4-0.1-0.4-0.2
	c-0.1-0.1-0.1-0.4-0.1-0.7c0-0.3,0.1-1.4,0.3-3.1c0.1-0.5,0.1-1,0.1-1.7c0-1.1-0.1-2.9-0.3-5.5c-0.2-2.6-0.3-4-0.3-4.3
	c0-0.1,0-0.2,0-0.3S186.7,11.8,186.7,11.8L186.7,11.8z M191.3,24.4c0-0.8,0.2-1.6,0.6-2.5s0.8-1.6,1.3-2c0.2-0.2,0.4-0.2,0.6-0.2
	c0.2,0,0.4,0.1,0.8,0.3c0.4,0.2,0.7,0.3,1,0.3c2.2,0,3.3,0.5,3.3,1.5c0,0.5-0.4,1.5-1.2,2.8c-0.1,0.2-0.2,0.4-0.2,0.5
	c0,0.3,0.4,0.4,1.2,0.4c0.1,0,0.1-0.3,0.2-0.9c0.1-0.6,0.2-1.3,0.4-2c0.2-0.7,0.5-1.2,0.8-1.4c0.1-0.1,0.2-0.1,0.2-0.2
	c0-0.5,0.8-0.7,2.5-0.7c1.5,0,2.3,0.2,2.6,0.5c0.1,0.1,0.2,0.3,0.2,0.6c0,0.3-0.1,0.7-0.2,1.3c-0.1,0.6-0.2,1-0.2,1.2
	c0,0.3,0.1,0.5,0.2,0.5c0.2,0,0.4-0.3,0.5-0.8c0.1-1,0.4-1.5,0.7-1.5c0.2,0,0.5,0.2,0.7,0.5c0.2,0.4,0.3,0.7,0.3,1
	c0,0.1,0,0.2,0,0.3c0,0.1,0,0.2,0,0.2c0,0.2,0.1,0.4,0.3,0.6c0.2,0.2,0.3,0.4,0.3,0.5c0,0.3-0.3,0.5-0.8,0.8c-0.5,0.2-1,0.3-1.5,0.3
	h-0.2c-0.2,0-0.2,0-0.2,0.1s0.1,0.2,0.3,0.3c0.2,0.1,0.3,0.2,0.3,0.3c0,0.1,0,0.3,0.1,0.4c0.1,0.1,0.1,0.2,0.1,0.3
	c0,0.1-0.1,0.3-0.3,0.5l-0.4,0.4l-1.2,0c-0.8,0-2.2-0.2-4.1-0.4c-1.9-0.3-3.2-0.5-3.9-0.7c-0.3-0.1-0.5-0.1-0.6-0.1
	c-0.1,0-0.2,0.1-0.2,0.2c0,0.1-0.3,0.3-0.8,0.7c-0.5,0.3-0.9,0.5-1,0.5c-0.1,0-0.1,0-0.1-0.1c0,0,0.1-0.4,0.2-1.2l0.1-0.4l-0.9-0.3
	c-0.8-0.3-1.2-0.6-1.2-1c0,0,0-0.1,0-0.1c0-0.1,0-0.1,0-0.2c0,0-0.1-0.1-0.2-0.2C191.3,24.9,191.2,24.7,191.3,24.4L191.3,24.4z
	 M192.4,16.1c0-0.2,0.1-0.3,0.2-0.4c0.1-0.1,0.3-0.2,0.6-0.3c0.3-0.1,0.5-0.1,0.7-0.2c0.2,0,0.4-0.1,0.8-0.1c0.4,0,0.6-0.1,0.7-0.1
	l0.5-0.1v-0.5c0-0.8,0.3-1.2,1-1.2c0.3,0,0.6,0.1,0.9,0.3c0.3,0.2,0.4,0.4,0.5,0.7l0.1,0.5l0.6,0c0.1,0,0.4,0,0.8,0c0.4,0,0.8,0,1,0
	c1.4,0,2.1,0.3,2.1,0.9c0,0.5-0.4,0.8-1.1,1c-0.7,0.2-1.5,0.3-2.2,0.4c-0.7,0.1-1.1,0.1-1.1,0.3c0,0.1,0.7,0.2,2,0.3
	c1.3,0.1,2,0.3,2,0.6c0,0.2-0.3,0.4-0.9,0.7c-0.6,0.3-1.4,0.4-2.5,0.4c-0.9,0-1.6-0.1-1.9-0.4c0,0-0.2-0.1-0.5-0.3
	c-0.3-0.2-0.6-0.4-0.7-0.6c-0.2-0.2-0.3-0.3-0.3-0.5c-1.8,0-2.8-0.4-3.2-1.1C192.4,16.3,192.4,16.2,192.4,16.1L192.4,16.1z
	 M192.9,24.3c0,0.1,0.3,0.1,0.9,0.2l0.8,0.1l0.1-0.3c0.1-0.1,0.1-0.3,0.3-0.6c0.1-0.3,0.2-0.5,0.3-0.6c0.1-0.1,0.1-0.3,0.1-0.4
	c0-0.2-0.2-0.3-0.5-0.3c-0.2,0-0.4,0.1-0.6,0.2c-0.1,0.1-0.2,0.3-0.2,0.5c0,0.2-0.1,0.4-0.2,0.5c-0.1,0.1-0.3,0.2-0.5,0.2
	c-0.1,0-0.2,0.1-0.3,0.2S192.9,24.2,192.9,24.3L192.9,24.3z M200.4,25.5c0,0.1,0.4,0.3,1.3,0.4c0.9,0.1,1.5,0.1,1.9,0.1
	c0.1,0,0.2,0,0.2,0s-0.1-0.1-0.2-0.2c-0.1-0.1-0.3-0.2-0.5-0.4c-0.2-0.1-0.3-0.2-0.3-0.3c-0.1-0.2-0.2-0.5-0.3-1
	c-0.1-0.5-0.1-0.9-0.2-1.3c0-0.4-0.1-0.6-0.2-0.6c-0.1,0-0.4,0.8-0.9,2.3c-0.1,0.2-0.2,0.4-0.5,0.6
	C200.6,25.4,200.4,25.5,200.4,25.5z"/>
<g>
	<path class="st10" d="M31.6,0.4c3.9,0.2,7.8,0.4,11.6,1.4c9.3,2.6,15.2,9.3,19.3,18.1c0.7,1.6,1,3.4,1.1,5.2
		c0.4,6.3-2.5,11.2-8.1,13.9c-4.7,2.3-9.7,3-14.8,2.9c-5.4,0-10.7-1.3-16.1-2.1c-3.7-0.6-7.4-1-11.1-1.5C11.3,38.1,9.2,37.6,7,37
		c-4.1-1.1-6.3-3.8-6.9-8.3c-0.5-3.9,0-7.7,1.6-11.3c0.5-1.2,0.8-2.5,1.3-3.7C5.9,6.9,11.2,3.4,17.8,1.8C22.3,0.7,27,0.4,31.6,0.4z"
		/>
	<g>
		<g>
			<path class="st0" d="M42.8,24.2c1.8,16.2-9.8,28.4-13.9,32.7c-0.8,0.8-2.1,1-3,0.3C21,53.9,7,44.6,5.2,28.4
				C4,18,11.5,8.6,21.9,7.4S41.7,13.8,42.8,24.2z"/>
		</g>
	</g>
	<g>
		<path class="st0" d="M56.8,40.4c-1.5,10.3-10.5,15-13.7,17c-0.6,0.4-1.4,0.3-1.9-0.3c-2.4-2.7-9.3-9.4-8.4-19.2
			c0.7-7,6.9-12.2,13.8-11.2C53.2,27.6,57.7,33.8,56.8,40.4z"/>
	</g>
	<circle class="st11" cx="25.7" cy="25.7" r="11.7"/>
	<circle class="st11" cx="44.8" cy="38.7" r="6.7"/>
	<path class="st12" d="M20,22.4c0.1,2-0.8,3.8-3,3.8c-2-0.1-2.6-1.7-2.9-3.3c-0.1-0.4-0.4-0.6-0.8-0.6c-0.4,0.1-0.6,0.4-0.6,0.8
		c0.6,2.6,2,4.9,5,4.4c2.7-0.5,3.7-2.7,3.6-5.2c-0.1-0.4-0.4-0.6-0.8-0.6C20.2,21.7,20,22,20,22.4z"/>
	<path class="st12" d="M36.9,19.9c0.1,1.8-0.8,3.5-2.8,3.4c-1.8-0.1-2.3-1.5-2.7-3c0-0.3-0.4-0.6-0.7-0.5c-0.3,0-0.6,0.4-0.5,0.7
		c0.5,2.3,1.8,4.4,4.6,4c2.5-0.4,3.4-2.4,3.3-4.8c0-0.3-0.4-0.6-0.7-0.5C37.1,19.3,36.8,19.6,36.9,19.9z"/>
	<path class="st13" d="M45.7,37.6c-0.1,0-0.3,0-0.4,0.1c-0.1,0.1-0.2,0.2-0.2,0.4c-0.1,0.6-0.4,1-0.8,1.3c-0.3,0.2-0.7,0.2-1.1,0.1
		c-0.9-0.3-0.9-1.1-0.9-1.9c0-0.1,0-0.3-0.1-0.4c-0.1-0.1-0.2-0.2-0.4-0.2c-0.1,0-0.3,0-0.4,0.1s-0.2,0.2-0.2,0.4
		c-0.1,1.9,0.6,3,2.1,3.2c0.1,0,0.2,0,0.4,0c1.2,0,2.1-0.8,2.5-2.4C46.2,37.9,46,37.6,45.7,37.6z"/>
	<path class="st13" d="M30.7,25c0-0.2-0.1-0.3-0.3-0.4c-0.1-0.1-0.3-0.1-0.5-0.1c-0.2,0-0.3,0.1-0.4,0.3c-0.1,0.1-0.1,0.3-0.1,0.5
		c0,0.8-0.2,1.5-0.6,1.9c-0.3,0.3-0.8,0.5-1.3,0.5c-1.2,0-1.6-1-1.8-2.1c-0.1-0.4-0.4-0.6-0.7-0.6c-0.4,0.1-0.6,0.4-0.5,0.8
		c0.5,2.1,1.5,3.2,3,3.2c0.2,0,0.4,0,0.6-0.1C29.9,28.5,30.8,27.1,30.7,25z"/>
	<g>
		<path class="st11" d="M48.6,10.1l0.9,2.4l2.4,0.9c0.7,0.3,0.7,1.3,0,1.6l-2.4,0.9l-0.9,2.4c-0.3,0.7-1.3,0.7-1.6,0l-0.9-2.4
			L43.7,15c-0.7-0.3-0.7-1.3,0-1.6l2.4-0.9l0.9-2.4C47.3,9.3,48.4,9.3,48.6,10.1z"/>
	</g>
	<g>
		<path class="st11" d="M54,17.9l0.4,1.1l1.1,0.4c0.3,0.1,0.3,0.6,0,0.7l-1.1,0.4L54,21.6c-0.1,0.3-0.6,0.3-0.7,0l-0.4-1.1l-1.1-0.4
			c-0.3-0.1-0.3-0.6,0-0.7l1.1-0.4l0.4-1.1C53.4,17.6,53.9,17.6,54,17.9z"/>
	</g>
	<circle class="st11" cx="50.2" cy="24" r="0.9"/>
	<path class="st12" d="M38.9,35.1c0.2-1.2,0.6-1,1.1-1.1c0.4,0,1,0.9,0.5,1.4c-0.2,0.2-0.6,0.6-0.9,0.6
		C39.2,35.9,38.8,35.5,38.9,35.1z"/>
	<path class="st12" d="M49.5,37.2c-0.2,1.2-0.6,1-1.1,1.1c-0.4,0-1-0.7-0.7-1.7c0.1-0.3,0.8-0.4,1.1-0.3
		C49.2,36.4,49.6,36.8,49.5,37.2z"/>
</g>
</svg>
