<svg width="102" height="128" viewBox="0 0 102 128" fill="none" xmlns="http://www.w3.org/2000/svg">
<g clip-path="url(#clip0_2338_5189)">
<path d="M84.3002 47.0386C84.3002 47.0386 68.8064 51.1202 57.109 54.6455C46.9229 47.9033 33.2609 39.5344 33.2609 39.5344C33.2609 39.5344 -4.42465 103.734 0.435658 105.076C5.29597 106.425 18.3717 102.676 18.3717 102.676C18.3717 102.676 22.307 119.625 26.1639 121.977C29.9602 124.293 42.0929 103.087 52.3636 85.4604C56.7947 105.3 61.9089 129.125 66.201 127.958C70.6865 126.736 80.401 111.794 80.401 111.794C80.401 111.794 91.8506 119.147 96.8862 119.256C101.928 119.365 84.3062 47.0325 84.3062 47.0325L84.3002 47.0386Z" fill="#005CA1"/>
<path d="M89.0283 75.5969C106.316 58.3041 106.316 30.2667 89.0283 12.9739C71.7402 -4.31901 43.7108 -4.319 26.4228 12.9739C9.13482 30.2668 9.13482 58.304 26.4228 75.5969C43.7108 92.8898 71.7402 92.8898 89.0283 75.5969Z" fill="#F7BB82"/>
<path d="M65.7829 77.0518C83.8732 72.6004 94.9308 54.3226 90.4807 36.2272C86.0306 18.1317 67.758 7.07099 49.6676 11.5224C31.5772 15.9737 20.5196 34.2515 24.9698 52.347C29.4199 70.4424 47.6925 81.5031 65.7829 77.0518Z" fill="#DCA16A"/>
<path d="M50.9905 26.4549C50.9905 26.4549 60.2457 14.978 62.6093 15.3468C64.973 15.7157 70.9698 29.309 70.9698 29.309C70.9698 29.309 88.8695 32.6772 88.7728 35.3982C88.6761 38.1193 73.1158 48.3083 73.1158 48.3083C73.1158 48.3083 76.3862 67.8155 74.216 68.1783C72.0458 68.5411 57.0296 60.009 57.0296 60.009C57.0296 60.009 37.4554 65.9168 36.3431 64.2902C34.9708 62.2766 41.3968 43.6462 41.3968 43.6462C41.3968 43.6462 32.3412 30.083 33.5744 27.8638C34.8076 25.6446 50.9966 26.4489 50.9966 26.4489L50.9905 26.4549Z" fill="#F7BB82"/>
<g clip-path="url(#clip1_2338_5189)">
<path d="M63.916 42.0574C65.063 42.6299 65.978 43.587 66.7769 44.7721C67.5401 45.9215 67.9999 47.1067 67.9999 48.3277C67.9999 50.7741 66.7769 52.6883 64.3757 54.446C62.1976 55.9397 59.7205 56.7045 56.8953 56.7045C54.07 56.7045 51.3608 55.9397 49.031 54.446C48.8391 53.5649 49.6782 51.8072 50.8252 50.9664C53.1551 51.6552 54.9091 51.9995 56.2838 51.9995C57.5424 51.9995 58.7654 51.6552 59.9883 50.9306C61.3228 50.2061 62.0102 49.2848 62.0102 48.2517C62.0102 45.8813 60.1758 44.3115 56.2079 44.5038C55.3287 44.544 52.1999 44.6201 51.3608 44.7319C50.9814 44.3875 50.7494 43.7748 50.7494 42.8579C50.7494 42.0932 50.977 41.4804 51.3608 41.2524C54.6815 40.6799 57.0113 40.0672 58.3101 39.4142C60.4079 38.3811 61.4032 37.0438 61.4032 35.398C61.4032 34.3648 60.2963 32.9873 59.2653 32.5669C56.748 31.5741 54.4182 32.0705 52.6998 32.4149C51.2492 32.719 50.9056 33.2557 49.9906 33.6403C48.8391 32.8398 48.5713 31.3862 48.5713 31.0016C48.5713 30.3889 49.5621 29.7001 51.6242 28.8996C53.2265 28.0945 54.8689 27.7144 57.4264 27.5623C60.1356 27.4103 62.4654 28.3271 64.3757 29.7806C66.3618 31.3102 67.3929 33.1841 67.3929 35.4785C67.3929 38.0412 66.1699 40.2192 63.9204 42.0574H63.916Z" fill="#C48348"/>
</g>
<path d="M100.5 45.367C100.5 69.1478 81.2363 88.424 57.476 88.424C33.7156 88.424 14.4521 69.1478 14.4521 45.367C14.4521 21.5863 33.7156 2.31006 57.476 2.31006C81.2363 2.31006 100.5 21.5863 100.5 45.367Z" stroke="#C48348" stroke-width="3"/>
</g>
<defs>
<clipPath id="clip0_2338_5189">
<rect width="102" height="128" fill="white"/>
</clipPath>
<clipPath id="clip1_2338_5189">
<rect width="19.4286" height="29.1646" fill="white" transform="translate(48.5713 27.5442)"/>
</clipPath>
</defs>
</svg>
