<svg width="72" height="95" viewBox="0 0 72 95" fill="none" xmlns="http://www.w3.org/2000/svg">
<g clip-path="url(#clip0_2338_6557)">
<path d="M71.9877 36.1504C72.4918 67.7836 48.2664 86.3294 39.8182 93.8581C38.1581 95.3388 35.6987 95.3764 34.0017 93.946C25.5781 86.9192 2.01669 70.4438 0.0860285 40.3038C-1.27896 19.0979 14.5352 0.376434 35.3543 -2.27895e-06C55.2512 -0.351343 71.6679 15.8354 71.9877 36.1504Z" fill="#E74F20"/>
<path d="M35.8957 60.5812C48.6706 60.5812 59.0266 50.0139 59.0266 36.9786C59.0266 23.9433 48.6706 13.376 35.8957 13.376C23.1208 13.376 12.7646 23.9433 12.7646 36.9786C12.7646 50.0139 23.1208 60.5812 35.8957 60.5812Z" fill="white"/>
<path d="M42.5238 38.8859C42.0196 38.8859 41.54 39.1117 41.1834 39.4882C40.8391 39.8521 40.6546 40.3414 40.6546 40.8433C40.5071 42.9514 39.7324 44.7081 38.5518 45.6868C37.6049 46.4648 36.4244 46.7408 35.0225 46.5275C31.9482 46.0507 31.2719 43.2525 30.9891 40.354C30.9891 39.827 30.7677 39.3501 30.3988 38.9863C30.0299 38.6224 29.5503 38.4341 29.0338 38.4467C28.5296 38.4467 28.05 38.6726 27.6934 39.049C27.3368 39.4254 27.1523 39.9148 27.1646 40.492C27.8164 47.2553 30.903 50.706 36.0678 50.4676C36.4859 50.455 36.8794 50.4048 37.2729 50.3421C41.5032 49.6394 44.0979 46.2389 44.4668 40.7931C44.4422 39.714 43.5691 38.8608 42.5115 38.8859H42.5238Z" fill="#005CA1"/>
<path fill-rule="evenodd" clip-rule="evenodd" d="M19.5036 30.7799C19.3806 26.6893 21.0284 26.8901 22.541 26.4007C23.6969 26.0368 26.513 29.0609 25.1357 30.9932C24.57 31.7838 23.3895 33.5781 22.3073 33.5154C20.8931 33.4401 19.5527 32.248 19.5036 30.7674V30.7799Z" fill="#005CA1"/>
<path fill-rule="evenodd" clip-rule="evenodd" d="M53.7753 29.1613C53.8982 33.2519 52.2504 33.0511 50.7379 33.5405C49.5819 33.9044 46.7905 31.5705 47.4299 28.1574C47.6021 27.1913 49.9017 26.3631 50.9715 26.4258C52.3857 26.5011 53.7261 27.6932 53.7753 29.1738V29.1613Z" fill="#005CA1"/>
</g>
<defs>
<clipPath id="clip0_2338_6557">
<rect width="72" height="95" fill="white"/>
</clipPath>
</defs>
</svg>
