<svg width="102" height="128" viewBox="0 0 102 128" fill="none" xmlns="http://www.w3.org/2000/svg">
<g clip-path="url(#clip0_2338_4849)">
<path d="M84.3002 47.0386C84.3002 47.0386 68.8064 51.1202 57.109 54.6455C46.9229 47.9033 33.2609 39.5344 33.2609 39.5344C33.2609 39.5344 -4.42465 103.734 0.435658 105.076C5.29597 106.425 18.3717 102.676 18.3717 102.676C18.3717 102.676 22.307 119.625 26.1639 121.977C29.9602 124.293 42.0929 103.087 52.3636 85.4604C56.7947 105.3 61.9089 129.125 66.201 127.958C70.6865 126.736 80.401 111.794 80.401 111.794C80.401 111.794 91.8506 119.147 96.8862 119.256C101.928 119.365 84.3062 47.0325 84.3062 47.0325L84.3002 47.0386Z" fill="#E74F20"/>
<path d="M89.0283 75.5969C106.316 58.3041 106.316 30.2667 89.0283 12.9739C71.7402 -4.31901 43.7108 -4.319 26.4228 12.9739C9.13482 30.2668 9.13482 58.304 26.4228 75.5969C43.7108 92.8898 71.7402 92.8898 89.0283 75.5969Z" fill="#F5AF0B"/>
<path d="M65.7829 77.0518C83.8732 72.6004 94.9308 54.3226 90.4807 36.2272C86.0306 18.1317 67.758 7.07099 49.6676 11.5224C31.5772 15.9737 20.5196 34.2515 24.9698 52.347C29.4199 70.4424 47.6925 81.5031 65.7829 77.0518Z" fill="#FFDD28"/>
<path d="M50.9905 26.4549C50.9905 26.4549 60.2457 14.978 62.6093 15.3468C64.973 15.7157 70.9698 29.309 70.9698 29.309C70.9698 29.309 88.8695 32.6772 88.7728 35.3982C88.6761 38.1193 73.1158 48.3083 73.1158 48.3083C73.1158 48.3083 76.3862 67.8155 74.216 68.1783C72.0458 68.5411 57.0296 60.009 57.0296 60.009C57.0296 60.009 37.4554 65.9168 36.3431 64.2902C34.9708 62.2766 41.3968 43.6462 41.3968 43.6462C41.3968 43.6462 32.3412 30.083 33.5744 27.8638C34.8076 25.6446 50.9966 26.4489 50.9966 26.4489L50.9905 26.4549Z" fill="#F5AF0B"/>
<path d="M48.8691 34.9991C48.8691 34.9991 54.1043 31.1352 57.5742 28.6016L63.4138 29.4723C64.0606 30.6152 60.8869 49.9409 60.8869 49.9409L64.5987 50.4852L63.7584 56.2055C63.7584 56.2055 49.1533 54.6635 49.2077 54.0649C49.2621 53.4663 49.9694 48.8948 49.9694 48.8948L54.1768 49.3725L56.0085 36.8918C56.0085 36.8918 51.6318 40.0543 51.3477 39.5222C51.0575 38.9961 48.8691 34.9871 48.8691 34.9871V34.9991Z" fill="#FFDD28"/>
<path d="M100.5 45.367C100.5 69.1478 81.2363 88.424 57.476 88.424C33.7156 88.424 14.4521 69.1478 14.4521 45.367C14.4521 21.5863 33.7156 2.31006 57.476 2.31006C81.2363 2.31006 100.5 21.5863 100.5 45.367Z" stroke="#E99C06" stroke-width="3"/>
</g>
<defs>
<clipPath id="clip0_2338_4849">
<rect width="102" height="128" fill="white"/>
</clipPath>
</defs>
</svg>
