<svg width="72" height="95" viewBox="0 0 72 95" fill="none" xmlns="http://www.w3.org/2000/svg">
<g clip-path="url(#clip0_2341_1431)">
<g clip-path="url(#clip1_2341_1431)">
<path d="M71.9877 35.6235C72.4918 67.2567 48.2664 85.8024 39.8182 93.3312C38.1581 94.8118 35.6987 94.8495 34.0017 93.419C25.5781 86.3922 2.01669 69.9168 0.0860285 39.7768C-1.27896 18.5709 14.5352 -0.150543 35.3543 -0.52698C55.2512 -0.87832 71.6679 15.3084 71.9877 35.6235Z" fill="#D2D2C5"/>
<path d="M35.8957 60.0542C48.6706 60.0542 59.0266 49.487 59.0266 36.4516C59.0266 23.4163 48.6706 12.8491 35.8957 12.8491C23.1208 12.8491 12.7646 23.4163 12.7646 36.4516C12.7646 49.487 23.1208 60.0542 35.8957 60.0542Z" fill="white"/>
<path d="M10.0222 31.6333C11.0798 29.4374 12.8137 28.17 15.1502 27.7183C15.6421 27.7183 16.1462 27.7183 16.6381 27.7183C18.1261 28.0822 19.4542 28.7472 20.5609 29.864C21.225 30.5416 21.4955 31.4325 21.9628 32.2105C21.9751 32.3234 21.9997 32.4238 22.012 32.5367C21.9997 32.6873 22.012 32.8379 22.135 32.9382C22.1473 33.1892 22.1719 33.4402 22.1842 33.6911C22.2579 34.9961 21.9013 36.2007 21.3848 37.3676C20.9421 37.9197 20.4994 38.4844 20.0567 39.0365C19.6632 39.3126 19.2574 39.5886 18.8639 39.8772C17.917 40.1658 16.9579 40.743 16.0356 40.6803C14.5722 40.5924 13.0965 40.1909 11.8914 39.1369C9.98535 37.4806 9.39508 35.3725 9.66562 32.9257C9.7763 32.5367 9.88697 32.1352 9.98535 31.7462C10.0468 31.7211 10.0591 31.6835 10.0345 31.6207L10.0222 31.6333ZM19.6509 31.6458C19.6509 30.918 19.1467 30.3785 18.4089 30.3659C17.6465 30.3659 17.1669 30.8553 17.1792 31.6207C17.1792 32.4112 17.6588 32.7877 18.3474 32.888C18.9992 32.9759 19.6509 32.3234 19.6509 31.6458Z" fill="#005CA1"/>
<path d="M12.8877 25.146C11.8424 24.23 11.8055 23.7657 12.7032 22.7619C13.232 22.5109 13.8591 22.7368 14.3756 22.4356L14.7568 22.398C14.9044 22.4231 15.052 22.4105 15.1503 22.2599C15.5193 22.2599 15.8144 22.0466 16.0972 21.8208C16.171 21.7706 16.2571 21.7204 16.3309 21.6702C16.6629 21.5196 16.8719 21.2561 17.0687 20.955C17.5237 20.2648 18.0894 19.7755 18.9625 20.177C19.7495 20.5409 19.8356 21.3063 19.2576 22.4105L17.6098 24.0041C17.536 24.0543 17.4622 24.1045 17.3884 24.1547H17.4007C16.5522 24.5688 15.6545 24.8574 14.7445 25.1083C14.6216 25.1209 14.4986 25.1334 14.3879 25.1585C13.896 25.1585 13.3918 25.146 12.9 25.1334L12.8877 25.146Z" fill="#005CA1"/>
<path d="M19.6504 31.6458C19.6504 32.3234 18.9987 32.9759 18.3469 32.888C17.6583 32.8002 17.1787 32.4112 17.1787 31.6207C17.1787 30.8427 17.6583 30.3533 18.4084 30.3659C19.1463 30.3659 19.6627 30.9055 19.6504 31.6458Z" fill="white"/>
<path d="M56.9972 27.7183C59.1861 28.17 60.8709 29.3495 61.9407 31.3823C62.0145 31.5705 62.1006 31.7713 62.1744 31.9595C62.1621 32.1101 62.1744 32.2607 62.2973 32.361L62.3588 32.7375C62.3588 32.888 62.3588 33.0386 62.4818 33.139C62.4941 33.39 62.5187 33.6409 62.531 33.8919C62.5556 34.971 62.2604 35.9874 61.9161 37.0038C61.3627 37.5935 61.1291 38.3966 60.465 38.9361C58.4852 40.5548 56.3209 41.0065 53.9106 40.2537C53.1359 39.8019 52.3735 39.3251 51.6849 38.7354C51.3897 38.3464 51.0823 37.9448 50.7872 37.5559C50.3568 36.6399 49.9633 35.7113 49.9141 34.6698C49.9141 33.5656 49.9387 32.474 50.3691 31.4325C50.8732 30.7675 51.3774 30.1024 51.8816 29.4374C52.1276 29.2366 52.3858 29.0358 52.6317 28.8225C53.3819 28.7598 53.8123 28.0069 54.5501 27.9191C54.6731 27.894 54.796 27.8689 54.919 27.8438C55.1281 27.8438 55.3371 27.8814 55.5093 27.7183C56.0012 27.7183 56.5054 27.7183 56.9972 27.7183ZM58.5098 30.3659C58.0056 30.3659 57.4768 30.8804 57.4645 31.6082C57.4645 32.2732 58.104 32.9131 58.7557 32.9006C59.3952 32.8755 60.0715 32.1979 59.9855 31.558C59.8994 30.8553 59.5305 30.3534 58.5098 30.3659Z" fill="#005CA1"/>
<path d="M55.7924 21.6828C56.604 22.4231 57.6124 22.5109 58.6207 22.6113C59.5307 22.7117 60.0841 23.2136 59.9857 23.979C59.875 24.8072 59.3586 25.1585 58.5346 25.1711C56.9975 25.1711 55.6325 24.6692 54.329 23.9037C53.6035 23.6528 53.3206 22.9376 52.8288 22.4356C52.5213 21.8459 52.2016 21.2561 52.6566 20.5911C53.087 19.9637 53.7019 20.0014 54.329 20.1519C54.8455 20.6287 55.0914 21.3816 55.7924 21.6828Z" fill="#005CA1"/>
<path d="M58.5101 30.3659C59.5431 30.3659 59.8997 30.8552 59.9858 31.5579C60.0718 32.1979 59.3955 32.888 58.756 32.9006C58.1166 32.9256 57.4648 32.2732 57.4648 31.6081C57.4648 30.8803 58.0059 30.3533 58.5101 30.3659Z" fill="white"/>
<path d="M31.5057 43.0769C30.7924 43.3655 30.2883 43.0393 29.8456 42.4997C29.6734 41.7092 29.7718 40.9187 29.8333 40.1282C30.1038 38.9361 30.6695 37.8947 31.5057 37.0038C32.4526 36.1882 33.5716 35.7741 34.7644 35.498C35.0719 35.4729 35.3916 35.4604 35.699 35.4353C35.7605 35.4353 35.822 35.4353 35.8835 35.4227C35.9696 35.4227 36.0556 35.4227 36.1417 35.4227H36.2278H36.3139L37.0271 35.4604C38.0724 35.7364 39.1545 35.9497 40.0768 36.5771C40.249 36.7277 40.4334 36.8783 40.6056 37.0289C41.491 37.9574 41.9952 39.0993 42.3272 40.329C42.3272 41.0065 42.3272 41.6967 42.3272 42.3743C41.5156 43.3404 41.1836 43.4032 40.1014 42.8009C39.9047 42.3617 39.8186 41.91 39.8186 41.4081C39.8186 40.8058 39.7325 40.2035 39.3636 39.689C39.1914 39.2875 38.9701 38.9236 38.5397 38.7479C37.2116 37.8696 35.7974 37.857 34.3463 38.3338C33.7561 38.4091 33.3257 38.7605 33.0059 39.2498C32.4772 39.8521 32.2312 40.5674 32.2681 41.3704C32.2927 41.8974 32.2066 42.3868 31.8992 42.826C31.7639 42.9138 31.6286 42.9891 31.4934 43.0769H31.5057Z" fill="#005CA1"/>
<path d="M15.9745 44.6705C19.0579 44.6705 21.5574 43.2828 21.5574 41.5711C21.5574 39.8594 19.0579 38.4718 15.9745 38.4718C12.8912 38.4718 10.3916 39.8594 10.3916 41.5711C10.3916 43.2828 12.8912 44.6705 15.9745 44.6705Z" fill="#D5EBFF"/>
<path d="M56.4443 44.8211C59.5276 44.8211 62.0272 43.4335 62.0272 41.7218C62.0272 40.01 59.5276 38.6224 56.4443 38.6224C53.3609 38.6224 50.8613 40.01 50.8613 41.7218C50.8613 43.4335 53.3609 44.8211 56.4443 44.8211Z" fill="#D5EBFF"/>
</g>
</g>
<defs>
<clipPath id="clip0_2341_1431">
<rect width="72" height="95" fill="white"/>
</clipPath>
<clipPath id="clip1_2341_1431">
<rect width="72" height="95" fill="white" transform="translate(0 -0.526978)"/>
</clipPath>
</defs>
</svg>
