<?xml version="1.0" encoding="utf-8"?>
<!-- Generator: Adobe Illustrator 25.0.0, SVG Export Plug-In . SVG Version: 6.00 Build 0)  -->
<svg version="1.1" id="圖層_1" xmlns="http://www.w3.org/2000/svg" xmlns:xlink="http://www.w3.org/1999/xlink" x="0px" y="0px"
	 viewBox="0 0 55.5 55.5" style="enable-background:new 0 0 55.5 55.5;" xml:space="preserve">
<style type="text/css">
	.st0{fill:none;stroke:#D5EBFF;stroke-width:0.5;stroke-miterlimit:10;}
	.st1{fill:none;stroke:#D5EBFF;stroke-width:0.5;stroke-miterlimit:10;stroke-dasharray:0.9946,0.4973;}
</style>
<g>
	<g>
		<g>
			<line class="st0" x1="55.5" y1="55.2" x2="55" y2="55.2"/>
			<line class="st1" x1="54.5" y1="55.2" x2="1" y2="55.2"/>
			<polyline class="st0" points="0.8,55.2 0.2,55.2 0.2,54.7 			"/>
			<line class="st1" x1="0.2" y1="54.2" x2="0.2" y2="0.7"/>
			<line class="st0" x1="0.2" y1="0.5" x2="0.2" y2="0"/>
		</g>
	</g>
	<g>
		<g>
			<line class="st0" x1="0.2" y1="46" x2="0.8" y2="46"/>
			<line class="st1" x1="1.2" y1="46" x2="54.7" y2="46"/>
			<line class="st0" x1="55" y1="46" x2="55.5" y2="46"/>
		</g>
	</g>
	<g>
		<g>
			<line class="st0" x1="0.2" y1="36.8" x2="0.8" y2="36.8"/>
			<line class="st1" x1="1.2" y1="36.8" x2="54.7" y2="36.8"/>
			<line class="st0" x1="55" y1="36.8" x2="55.5" y2="36.8"/>
		</g>
	</g>
	<g>
		<g>
			<line class="st0" x1="0.2" y1="27.6" x2="0.8" y2="27.6"/>
			<line class="st1" x1="1.2" y1="27.6" x2="54.7" y2="27.6"/>
			<line class="st0" x1="55" y1="27.6" x2="55.5" y2="27.6"/>
		</g>
	</g>
	<g>
		<g>
			<line class="st0" x1="0.2" y1="18.4" x2="0.8" y2="18.4"/>
			<line class="st1" x1="1.2" y1="18.4" x2="54.7" y2="18.4"/>
			<line class="st0" x1="55" y1="18.4" x2="55.5" y2="18.4"/>
		</g>
	</g>
	<g>
		<g>
			<line class="st0" x1="0.2" y1="9.2" x2="0.8" y2="9.2"/>
			<line class="st1" x1="1.2" y1="9.2" x2="54.7" y2="9.2"/>
			<line class="st0" x1="55" y1="9.2" x2="55.5" y2="9.2"/>
		</g>
	</g>
	<g>
		<g>
			<line class="st0" x1="46.3" y1="0" x2="46.3" y2="0.5"/>
			<line class="st1" x1="46.3" y1="1" x2="46.3" y2="54.5"/>
			<line class="st0" x1="46.3" y1="54.7" x2="46.3" y2="55.2"/>
		</g>
	</g>
	<g>
		<g>
			<line class="st0" x1="37.1" y1="0" x2="37.1" y2="0.5"/>
			<line class="st1" x1="37.1" y1="1" x2="37.1" y2="54.5"/>
			<line class="st0" x1="37.1" y1="54.7" x2="37.1" y2="55.2"/>
		</g>
	</g>
	<g>
		<g>
			<line class="st0" x1="27.9" y1="0" x2="27.9" y2="0.5"/>
			<line class="st1" x1="27.9" y1="1" x2="27.9" y2="54.5"/>
			<line class="st0" x1="27.9" y1="54.7" x2="27.9" y2="55.2"/>
		</g>
	</g>
	<g>
		<g>
			<line class="st0" x1="18.7" y1="0" x2="18.7" y2="0.5"/>
			<line class="st1" x1="18.7" y1="1" x2="18.7" y2="54.5"/>
			<line class="st0" x1="18.7" y1="54.7" x2="18.7" y2="55.2"/>
		</g>
	</g>
	<g>
		<g>
			<line class="st0" x1="9.5" y1="0" x2="9.5" y2="0.5"/>
			<line class="st1" x1="9.5" y1="1" x2="9.5" y2="54.5"/>
			<line class="st0" x1="9.5" y1="54.7" x2="9.5" y2="55.2"/>
		</g>
	</g>
</g>
</svg>
