<svg width="72" height="95" viewBox="0 0 72 95" fill="none" xmlns="http://www.w3.org/2000/svg">
<g clip-path="url(#clip0_2341_1416)">
<path d="M71.8527 36.1504C72.3559 67.7836 48.1759 86.3294 39.7436 93.8581C38.0866 95.3388 35.6317 95.3764 33.9379 93.946C25.5301 86.9192 2.01291 70.4438 0.0858745 40.3038C-1.27655 19.0979 14.508 0.376434 35.2881 -2.27895e-06C55.1476 -0.351343 71.5335 15.8354 71.8527 36.1504Z" fill="#D2D2C5"/>
<path d="M35.8279 60.5812C48.5788 60.5812 58.9155 50.0139 58.9155 36.9786C58.9155 23.9433 48.5788 13.376 35.8279 13.376C23.0769 13.376 12.7402 23.9433 12.7402 36.9786C12.7402 50.0139 23.0769 60.5812 35.8279 60.5812Z" fill="white"/>
<path fill-rule="evenodd" clip-rule="evenodd" d="M26.5731 31.6583C26.794 35.9998 24.7933 39.9148 20.1537 39.7768C16.0419 39.6513 14.7408 36.1128 13.9921 32.6621C13.8816 31.8841 13.1697 31.3446 12.4087 31.4575C11.6478 31.5704 11.12 32.2982 11.2304 33.0762C12.4578 38.6349 15.3668 43.6164 21.7862 42.5122C27.5427 41.5209 29.6171 36.7276 29.3348 31.2442C29.2243 30.4662 28.5124 29.9267 27.7514 30.0396C26.9904 30.1525 26.4626 30.8803 26.5731 31.6583Z" fill="#005CA1"/>
<path fill-rule="evenodd" clip-rule="evenodd" d="M57.283 27.9065C57.5162 32.361 55.4541 36.3763 50.704 36.2257C46.4817 36.1002 45.1561 32.4614 44.3829 28.9229C44.2724 28.1198 43.5359 27.5677 42.7627 27.6806C41.9771 27.7935 41.4371 28.5464 41.5475 29.3369C42.7995 35.0462 45.7944 40.1407 52.3733 39.0239C58.2772 38.0075 60.4006 33.1013 60.1183 27.4798C60.0078 26.6768 59.2714 26.1247 58.4981 26.2376C57.7126 26.3505 57.1725 27.1034 57.283 27.8939V27.9065Z" fill="#005CA1"/>
<path fill-rule="evenodd" clip-rule="evenodd" d="M41.1675 48.7861C41.2412 51.1326 40.296 51.0197 39.4369 51.2957C38.7741 51.509 37.1784 50.1664 37.5466 48.2089C37.6448 47.6568 38.9582 47.18 39.5719 47.2177C40.382 47.2553 41.143 47.9454 41.1675 48.7861Z" fill="#005CA1"/>
<path d="M49.5384 72.7024C49.3175 72.5142 49.207 72.2758 49.207 71.9747C49.207 71.6735 49.3052 71.4226 49.5016 71.1841L54.5217 65.2866C54.5217 65.2866 54.5708 65.1737 54.5708 65.1361C54.5708 65.0608 54.5217 65.0231 54.4113 65.0231H50.1644C49.9435 65.0231 49.7594 64.9478 49.5998 64.7847C49.4402 64.6216 49.3666 64.4334 49.3666 64.2075C49.3666 63.9817 49.4402 63.7934 49.5998 63.6303C49.7471 63.4672 49.9435 63.3919 50.1644 63.3919H55.7246C56.0437 63.3919 56.3015 63.4923 56.4979 63.7056C56.6942 63.9189 56.8047 64.1699 56.8047 64.4836C56.8047 64.7596 56.7188 65.0106 56.547 65.249L51.6741 71.0963C51.6741 71.0963 51.625 71.1967 51.625 71.2469C51.625 71.3222 51.6741 71.3598 51.7846 71.3598H56.1051C56.326 71.3598 56.5101 71.4351 56.6697 71.5982C56.8293 71.7613 56.9029 71.9496 56.9029 72.1754C56.9029 72.4013 56.817 72.5895 56.6697 72.7526C56.5101 72.9032 56.326 72.991 56.1051 72.991H50.3853C50.0417 72.991 49.7594 72.9032 49.5384 72.715V72.7024Z" fill="#005CA1"/>
<path d="M61.0144 66.1524C60.683 65.8764 60.5234 65.5125 60.5234 65.0608C60.5234 64.609 60.6707 64.2452 60.9653 63.8938L68.4525 55.0977C68.5016 55.0099 68.5384 54.9346 68.5384 54.8719C68.5384 54.759 68.4525 54.7088 68.293 54.7088H61.9472C61.6158 54.7088 61.3458 54.5958 61.1126 54.3574C60.8794 54.119 60.7689 53.843 60.7689 53.5042C60.7689 53.1654 60.8794 52.8768 61.1126 52.6384C61.3458 52.4 61.6158 52.2745 61.9472 52.2745H70.2323C70.711 52.2745 71.0915 52.425 71.3983 52.7387C71.7052 53.0524 71.8525 53.4289 71.8525 53.8932C71.8525 54.3072 71.7297 54.6837 71.472 55.035L64.2057 63.7558C64.1443 63.8311 64.1198 63.9064 64.1198 63.9817C64.1198 64.0946 64.2057 64.1448 64.3652 64.1448H70.8214C71.1528 64.1448 71.4351 64.2703 71.6683 64.5087C71.9015 64.7471 72.0243 65.0357 72.0243 65.3745C72.0243 65.7133 71.9015 65.9893 71.6683 66.2277C71.4351 66.4661 71.1528 66.5791 70.8214 66.5791H62.2909C61.7754 66.5791 61.3581 66.441 61.0389 66.165L61.0144 66.1524Z" fill="#005CA1"/>
</g>
<defs>
<clipPath id="clip0_2341_1416">
<rect width="72" height="95" fill="white"/>
</clipPath>
</defs>
</svg>
