<?xml version="1.0" encoding="utf-8"?>
<!-- Generator: Adobe Illustrator 25.0.0, SVG Export Plug-In . SVG Version: 6.00 Build 0)  -->
<svg version="1.1" id="圖層_1" xmlns="http://www.w3.org/2000/svg" xmlns:xlink="http://www.w3.org/1999/xlink" x="0px" y="0px"
	 viewBox="0 0 196.3 176.3" style="enable-background:new 0 0 196.3 176.3;" xml:space="preserve">
<style type="text/css">
	.st0{fill:#F5E83A;}
	.st1{fill:#DD4747;}
	.st2{fill:#FFFFFF;}
	.st3{fill-rule:evenodd;clip-rule:evenodd;fill:#005CA1;}
	.st4{fill:#005CA1;}
</style>
<g>
	<path class="st0" d="M97.5,0c12,0.6,24.1,1.1,35.8,4.4c28.7,8.2,47,28.6,59.4,55.9c2.2,4.9,3.2,10.4,3.5,15.9
		c1.1,19.4-7.8,34.5-25.1,43c-14.5,7.1-29.9,9.2-45.7,9.1c-16.8-0.1-33.1-3.9-49.7-6.5c-11.4-1.7-22.8-2.9-34.1-4.8
		c-6.7-1.1-13.4-2.6-20-4.4C9.1,109.3,2.2,100.9,0.5,87.3c-1.5-12.1,0.1-23.8,4.8-35c1.6-3.7,2.6-7.7,4.1-11.4
		C18.3,20,34.4,9.1,54.9,4.1C68.9,0.8,83.2-0.2,97.5,0z"/>
	<g>
		<g>
			<path class="st1" d="M132.1,73.2c5.6,50-30.3,87.5-42.8,100.8c-2.5,2.6-6.4,3-9.4,1c-15.1-10.2-58.4-38.9-63.9-88.9
				c-3.6-32.1,19.5-61,51.6-64.6S128.5,41.2,132.1,73.2z"/>
		</g>
	</g>
	<g>
		<path class="st1" d="M175.1,123.2c-4.6,31.7-32.4,46.3-42.3,52.4c-1.9,1.2-4.4,0.8-6-0.9c-7.4-8.4-28.8-28.9-25.9-59.3
			c2.1-21.4,21.3-37.5,42.6-34.4C164,83.9,178.1,102.8,175.1,123.2z"/>
	</g>
	<circle class="st2" cx="79.1" cy="78" r="36.1"/>
	<circle class="st2" cx="138.2" cy="118" r="20.8"/>
	<path class="st3" d="M61.8,67.7c0.3,6.2-2.6,11.8-9.4,11.6c-6-0.2-7.9-5.3-9-10.2c-0.2-1.1-1.2-1.9-2.3-1.7
		c-1.1,0.2-1.9,1.2-1.7,2.3c1.8,8,6.1,15.1,15.5,13.5c8.4-1.4,11.5-8.3,11.1-16.2c-0.2-1.1-1.2-1.9-2.3-1.7
		C62.4,65.5,61.7,66.6,61.8,67.7z"/>
	<path class="st3" d="M113.8,60.1c0.3,5.7-2.4,10.8-8.5,10.6c-5.5-0.2-7.2-4.8-8.2-9.3c-0.1-1-1.1-1.7-2.1-1.6
		c-1,0.1-1.7,1.1-1.6,2.1c1.6,7.2,5.5,13.7,14.1,12.3c7.7-1.3,10.4-7.5,10-14.7c-0.1-1-1.1-1.7-2.1-1.6
		C114.4,58.1,113.7,59.1,113.8,60.1z"/>
	<path class="st4" d="M141,114.6c-0.5-0.1-0.9,0.1-1.3,0.3c-0.4,0.3-0.6,0.7-0.7,1.1c-0.4,1.8-1.4,3.2-2.6,3.9
		c-0.9,0.5-2,0.6-3.2,0.2c-2.7-0.9-2.9-3.4-2.7-5.9c0.1-0.5-0.1-0.9-0.3-1.3c-0.3-0.4-0.7-0.6-1.1-0.7c-0.5-0.1-0.9,0.1-1.3,0.3
		c-0.4,0.3-0.6,0.7-0.7,1.2c-0.4,6,1.9,9.4,6.5,10c0.4,0,0.7,0.1,1.1,0.1c3.8,0,6.6-2.6,7.7-7.3C142.6,115.6,142,114.7,141,114.6z"
		/>
	<path class="st4" d="M94.8,75.7c-0.1-0.5-0.4-1-0.8-1.3c-0.4-0.3-1-0.5-1.5-0.4c-0.5,0.1-1,0.4-1.3,0.8c-0.3,0.4-0.4,0.9-0.4,1.5
		c0.1,2.4-0.5,4.5-1.8,5.8c-1,1-2.3,1.5-4,1.5c-3.6-0.1-4.8-3.2-5.5-6.4c-0.2-1.1-1.2-1.9-2.3-1.7c-1.1,0.2-1.9,1.2-1.7,2.3
		c1.5,6.5,4.7,9.8,9.4,9.8c0.6,0,1.2-0.1,1.8-0.2C92.2,86.5,95.1,82.3,94.8,75.7z"/>
	<g>
		<path class="st2" d="M150,29.8l2.8,7.5l7.5,2.8c2.3,0.8,2.3,4.1,0,4.9l-7.5,2.8l-2.8,7.5c-0.8,2.3-4.1,2.3-4.9,0l-2.8-7.5
			l-7.5-2.8c-2.3-0.8-2.3-4.1,0-4.9l7.5-2.8l2.8-7.5C146,27.5,149.2,27.5,150,29.8z"/>
	</g>
	<g>
		<path class="st2" d="M166.5,54l1.2,3.4l3.4,1.2c1,0.4,1,1.8,0,2.2l-3.4,1.2l-1.2,3.4c-0.4,1-1.8,1-2.2,0l-1.2-3.4l-3.4-1.2
			c-1-0.4-1-1.8,0-2.2l3.4-1.2l1.2-3.4C164.7,53,166.1,53,166.5,54z"/>
	</g>
	<circle class="st2" cx="154.9" cy="72.8" r="2.8"/>
	<path class="st3" d="M120,106.9c0.5-3.6,1.9-3.2,3.3-3.4c1.1-0.2,3.1,2.9,1.6,4.4c-0.6,0.6-1.9,2-2.9,1.8
		C120.9,109.4,119.8,108.1,120,106.9z"/>
	<path class="st3" d="M152.8,113.4c-0.5,3.6-1.9,3.2-3.3,3.4c-1.1,0.2-3.2-2.3-2.2-5.2c0.3-0.8,2.4-1.2,3.4-1
		C151.9,110.9,153,112.1,152.8,113.4z"/>
</g>
</svg>
