<?xml version="1.0" encoding="utf-8"?>
<!-- Generator: Adobe Illustrator 25.0.0, SVG Export Plug-In . SVG Version: 6.00 Build 0)  -->
<svg version="1.1" id="圖層_1" xmlns="http://www.w3.org/2000/svg" xmlns:xlink="http://www.w3.org/1999/xlink" x="0px" y="0px"
	 viewBox="0 0 798.1 210.1" style="enable-background:new 0 0 798.1 210.1;" xml:space="preserve">
<style type="text/css">
	.st0{fill:#F5E83A;}
</style>
<g>
	<path class="st0" d="M0,7.2c0,0,52,33.1,74.1,43.5c4.6-21.2,15.4-45,62.4-48.5C188.3-1.7,352.4,0.3,408,1.6
		c55.6,1.2,190.4-1.3,254.2,0.1c63.9,1.4,70.6,61.5,67.8,114.7c-2.8,54.3-11.1,75.9-95.2,86.6c-95.8,12.3-144.3,5.5-272.1,2.5
		c-85.1-2-188.3-5.1-243-17c-32-6.9-51.7-49.8-48.9-85.4C51.3,79.8,27.2,60.7,0,7.2z"/>
</g>
</svg>
