<svg width="275" height="197" viewBox="0 0 275 197" fill="none" xmlns="http://www.w3.org/2000/svg">
<g clip-path="url(#clip0_2152_1735)">
<path d="M222.278 196.107H222.184C220.292 196 218.293 195.785 216.093 195.436C215.275 195.315 214.712 194.537 214.846 193.732C214.966 192.913 215.731 192.376 216.549 192.497C218.656 192.819 220.561 193.034 222.345 193.141C223.163 193.181 223.794 193.906 223.753 194.725C223.713 195.517 223.056 196.134 222.251 196.134L222.278 196.107ZM228.261 196.054C227.496 196.054 226.839 195.477 226.772 194.685C226.691 193.866 227.308 193.128 228.127 193.074C229.696 192.94 231.226 192.698 232.648 192.349C233.01 192.255 233.372 192.175 233.721 192.067C234.512 191.839 235.331 192.295 235.572 193.087C235.8 193.879 235.344 194.698 234.553 194.94C234.164 195.06 233.761 195.168 233.359 195.248C231.789 195.638 230.112 195.906 228.382 196.04H228.248H228.261V196.054ZM210.459 194.336C210.352 194.336 210.244 194.336 210.15 194.309C208.004 193.839 206.085 193.383 204.261 192.886C203.47 192.671 202.987 191.852 203.215 191.047C203.443 190.255 204.261 189.772 205.053 190C206.823 190.483 208.701 190.926 210.794 191.369C211.599 191.544 212.109 192.336 211.948 193.141C211.8 193.839 211.17 194.322 210.486 194.322H210.472L210.459 194.336ZM239.651 192.711C239.127 192.711 238.604 192.43 238.336 191.933C237.933 191.221 238.202 190.309 238.94 189.906C240.563 189.007 242.146 187.933 243.595 186.685C244.225 186.148 245.164 186.215 245.701 186.846C246.237 187.477 246.17 188.416 245.54 188.953C243.93 190.322 242.186 191.544 240.375 192.524C240.147 192.644 239.892 192.698 239.664 192.698L239.651 192.711ZM198.949 191.141C198.788 191.141 198.6 191.114 198.439 191.047C196.373 190.282 194.481 189.463 192.791 188.564C192.053 188.175 191.771 187.275 192.16 186.55C192.549 185.812 193.448 185.53 194.173 185.919C195.756 186.738 197.54 187.53 199.472 188.228C200.25 188.51 200.639 189.383 200.357 190.148C200.129 190.765 199.566 191.128 198.949 191.128V191.141ZM188.458 185.49C188.136 185.49 187.8 185.383 187.519 185.168C187.13 184.859 186.754 184.524 186.378 184.201C185.158 183.087 184.058 181.852 183.132 180.55C182.649 179.879 182.797 178.953 183.481 178.47C184.151 177.987 185.091 178.161 185.56 178.819C186.365 179.946 187.304 181.02 188.391 181.987C188.699 182.282 189.048 182.564 189.397 182.859C190.041 183.383 190.135 184.322 189.625 184.966C189.33 185.329 188.887 185.517 188.458 185.517H188.471L188.458 185.49ZM248.692 185.02C248.37 185.02 248.035 184.913 247.767 184.698C247.123 184.188 247.016 183.248 247.525 182.591C248.062 181.919 248.585 181.195 249.081 180.47C249.712 179.544 250.275 178.658 250.785 177.826C251.215 177.128 252.127 176.899 252.838 177.329C253.535 177.758 253.763 178.671 253.334 179.369C252.798 180.255 252.207 181.168 251.55 182.134C251.013 182.94 250.423 183.718 249.846 184.47C249.551 184.846 249.108 185.034 248.679 185.034H248.692V185.02ZM181.656 175.879C181.026 175.879 180.462 175.49 180.234 174.873C179.577 172.98 179.148 170.899 178.933 168.685C178.852 167.866 179.456 167.128 180.274 167.06C181.12 166.98 181.831 167.584 181.898 168.403C182.072 170.376 182.461 172.215 183.038 173.879C183.306 174.658 182.89 175.503 182.112 175.772C181.951 175.839 181.777 175.852 181.616 175.852H181.643L181.656 175.879ZM254.877 174.819C254.676 174.819 254.474 174.779 254.273 174.698C253.509 174.376 253.16 173.49 253.495 172.725C254.287 170.913 254.823 169.168 255.159 167.356C255.306 166.55 256.084 166 256.903 166.161C257.708 166.309 258.244 167.087 258.097 167.906C257.721 169.933 257.104 171.906 256.232 173.906C255.99 174.47 255.44 174.805 254.863 174.805H254.877V174.819ZM180.409 164.081H180.288C179.47 164.027 178.852 163.302 178.906 162.483C179.04 160.604 179.309 158.617 179.698 156.403C179.845 155.597 180.61 155.047 181.428 155.195C182.233 155.342 182.783 156.121 182.636 156.926C182.26 159.034 182.005 160.913 181.884 162.698C181.831 163.49 181.16 164.094 180.382 164.094L180.409 164.081ZM257.144 163.195C256.326 163.195 255.642 162.51 255.668 161.691V161.195C255.668 159.477 255.588 157.584 255.521 155.785C255.481 154.966 256.125 154.255 256.943 154.228C257.748 154.188 258.472 154.819 258.499 155.651C258.593 157.477 258.66 159.396 258.66 161.195V161.705C258.66 162.524 257.989 163.181 257.171 163.181H257.157L257.144 163.195ZM182.408 152.309C182.287 152.309 182.179 152.309 182.059 152.268C181.254 152.081 180.757 151.262 180.932 150.483L181.106 149.758C181.307 148.953 182.112 148.456 182.904 148.658C183.709 148.859 184.205 149.664 184.004 150.456L183.843 151.168C183.682 151.852 183.065 152.322 182.394 152.322L182.408 152.309ZM7.44532 151.49H7.4319C5.31229 151.463 3.2195 151.275 1.24745 150.926C0.442536 150.779 -0.107491 150.013 0.0400777 149.195C0.187646 148.389 0.952317 147.839 1.77065 147.987C3.59513 148.295 5.51351 148.483 7.48556 148.51C8.30389 148.51 8.97466 149.195 8.96124 150.013C8.96124 150.832 8.29048 151.49 7.47215 151.49H7.45873H7.44532ZM256.661 151.262C255.883 151.262 255.226 150.671 255.172 149.879C255.038 147.906 254.877 145.933 254.676 143.96C254.595 143.141 255.199 142.403 256.017 142.336C256.849 142.255 257.573 142.859 257.64 143.678C257.828 145.678 258.016 147.678 258.15 149.664C258.204 150.483 257.587 151.208 256.755 151.262H256.648H256.661ZM13.4017 151.141C12.6504 151.141 12.0065 150.591 11.926 149.826C11.8187 149.007 12.409 148.255 13.2273 148.148C15.0652 147.919 16.997 147.584 18.9556 147.114C19.7471 146.926 20.5655 147.423 20.7533 148.242C20.9411 149.047 20.4447 149.852 19.6264 150.027C17.5604 150.51 15.5347 150.873 13.5895 151.114H13.4151L13.4017 151.141ZM25.0596 148.483C24.4291 148.483 23.8388 148.081 23.6376 147.436C23.3827 146.644 23.812 145.812 24.6035 145.57C26.3743 145.02 28.1854 144.376 30.1842 143.624C30.9623 143.329 31.8075 143.718 32.116 144.497C32.4112 145.275 32.0087 146.121 31.244 146.43C29.2049 147.195 27.3402 147.852 25.5157 148.416C25.3681 148.456 25.2206 148.497 25.073 148.497H25.0596V148.483ZM36.2479 144.309C35.6711 144.309 35.1076 143.96 34.8662 143.383C34.5576 142.617 34.9064 141.758 35.6711 141.423C37.509 140.658 39.32 139.879 41.1311 139.074C41.8824 138.725 42.7812 139.074 43.1032 139.826C43.4519 140.577 43.1032 141.463 42.3519 141.799C40.5274 142.617 38.6761 143.409 36.8248 144.175C36.6504 144.255 36.4492 144.295 36.2614 144.295H36.2479V144.309ZM47.1814 139.409C46.6314 139.409 46.0948 139.101 45.8399 138.577C45.4777 137.826 45.7862 136.953 46.524 136.577C48.3217 135.705 50.0925 134.805 51.8231 133.893C52.5609 133.503 53.4463 133.772 53.8354 134.51C54.2244 135.248 53.9427 136.134 53.2183 136.524C51.4743 137.45 49.6632 138.376 47.8387 139.262C47.6241 139.369 47.4095 139.409 47.1814 139.409ZM255.534 139.356C254.783 139.356 254.139 138.792 254.059 138.027C253.844 136.255 253.643 134.456 253.428 132.685L253.348 132.107C253.24 131.289 253.844 130.537 254.662 130.443C255.481 130.336 256.218 130.94 256.326 131.758L256.406 132.336C256.621 134.134 256.822 135.906 257.037 137.691C257.131 138.51 256.54 139.248 255.722 139.356H255.548H255.534ZM57.7392 133.799C57.2294 133.799 56.7197 133.53 56.4514 133.06C56.0355 132.349 56.277 131.436 56.988 131.02C58.7185 130 60.4089 128.953 62.0053 127.919C62.6895 127.477 63.6151 127.664 64.0712 128.349C64.5139 129.034 64.3261 129.96 63.642 130.416C62.0187 131.477 60.2747 132.55 58.5039 133.597C58.2624 133.732 58.0075 133.812 57.7526 133.812H57.7392V133.799ZM254.139 127.49C253.388 127.49 252.73 126.926 252.663 126.161C252.435 124.175 252.234 122.175 252.046 120.188C251.966 119.369 252.583 118.631 253.401 118.564C254.206 118.483 254.957 119.087 255.024 119.919C255.199 121.893 255.413 123.866 255.642 125.839C255.735 126.658 255.145 127.396 254.327 127.477H254.139V127.49ZM67.7604 127.262C67.2909 127.262 66.8482 127.047 66.5531 126.644C66.0567 125.973 66.2043 125.047 66.8885 124.55C68.4983 123.369 70.0545 122.148 71.5301 120.94C72.1741 120.403 73.1131 120.497 73.6363 121.114C74.1595 121.745 74.079 122.685 73.4619 123.221C71.946 124.47 70.3496 125.745 68.6727 126.953C68.4044 127.141 68.1092 127.235 67.7873 127.235H67.7739L67.7604 127.262ZM76.9097 119.584C76.5206 119.584 76.1316 119.436 75.8364 119.141C75.273 118.537 75.273 117.597 75.8633 117.034C77.2853 115.651 78.6402 114.228 79.8879 112.792C80.4245 112.161 81.3635 112.107 81.9941 112.644C82.6246 113.181 82.6782 114.121 82.1416 114.752C80.8404 116.242 79.4317 117.745 77.9426 119.168C77.6609 119.45 77.2719 119.584 76.8963 119.584H76.9097ZM253.079 115.584C252.301 115.584 251.644 114.966 251.59 114.175C251.55 113.396 251.496 112.617 251.469 111.839C251.416 110.604 251.376 109.369 251.349 108.134C251.335 107.315 251.993 106.631 252.811 106.604H252.838C253.643 106.604 254.313 107.262 254.327 108.067C254.354 109.275 254.381 110.483 254.448 111.691C254.474 112.456 254.528 113.221 254.568 113.973C254.609 114.792 253.991 115.517 253.16 115.557H253.066L253.079 115.584ZM84.704 110.537C84.4088 110.537 84.1003 110.443 83.8454 110.268C83.1746 109.785 83.0136 108.859 83.4698 108.188C84.5966 106.591 85.6028 104.926 86.5016 103.248C86.8907 102.51 87.8029 102.242 88.5139 102.631C89.2517 103.02 89.52 103.933 89.131 104.644C88.1785 106.416 87.0919 108.188 85.9113 109.893C85.6296 110.309 85.1467 110.537 84.6905 110.537H84.704ZM226.624 109.02C225.497 109.02 224.411 108.993 223.351 108.926C222.533 108.886 221.889 108.175 221.929 107.356C221.969 106.537 222.667 105.879 223.499 105.933C225.363 106.04 227.308 106.04 229.334 105.946C230.166 105.933 230.864 106.55 230.89 107.383C230.917 108.215 230.287 108.913 229.455 108.94C228.476 108.98 227.537 108.993 226.597 108.993H226.624V109.02ZM217.488 108.322C217.421 108.322 217.328 108.322 217.247 108.309C215.194 107.987 213.169 107.517 211.237 106.953C210.445 106.711 209.989 105.893 210.217 105.101C210.459 104.309 211.277 103.866 212.069 104.081C213.88 104.617 215.771 105.034 217.703 105.356C218.508 105.49 219.071 106.255 218.951 107.074C218.83 107.812 218.199 108.322 217.475 108.322H217.488ZM235.331 108.242C234.647 108.242 234.016 107.758 233.869 107.06C233.694 106.255 234.217 105.463 235.022 105.289C236.874 104.886 238.698 104.322 240.469 103.584C241.234 103.275 242.106 103.624 242.428 104.389C242.736 105.154 242.387 106.027 241.623 106.349C239.691 107.141 237.692 107.772 235.666 108.215C235.559 108.242 235.452 108.242 235.358 108.242H235.344H235.331ZM206.072 104.953C205.857 104.953 205.67 104.913 205.455 104.819C203.577 103.987 201.739 102.993 199.995 101.906C199.297 101.477 199.083 100.55 199.525 99.8389C199.955 99.141 200.88 98.9262 201.591 99.3691C203.201 100.389 204.932 101.302 206.676 102.067C207.427 102.389 207.762 103.289 207.44 104.04C207.186 104.591 206.649 104.926 206.085 104.926H206.072V104.953ZM246.331 103.691C245.835 103.691 245.365 103.45 245.07 103.007C244.628 102.309 244.829 101.396 245.526 100.94C247.123 99.9061 248.652 98.7383 250.061 97.4631C250.544 97.0336 251.215 96.953 251.751 97.2349C251.791 96.8322 251.845 96.4295 251.885 96.0269C251.993 95.2081 252.704 94.604 253.549 94.7249C253.602 94.7249 253.67 94.7383 253.723 94.7517C253.509 94.2685 253.576 93.6913 253.924 93.2618C254.327 92.7248 254.729 92.1879 255.105 91.6376C254.796 91.7987 254.421 91.8658 254.045 91.7718C253.24 91.5839 252.744 90.7651 252.945 89.9732C253.321 88.4027 254.193 86.5101 255.36 84.1342C255.735 83.396 256.634 83.1007 257.359 83.4631C258.097 83.8389 258.392 84.7383 258.029 85.4631C257.157 87.2081 256.312 89.0067 255.923 90.3356C256.299 89.7047 256.661 89.0873 256.983 88.443C257.359 87.7047 258.271 87.4094 258.995 87.7987C259.733 88.1745 260.028 89.0738 259.639 89.8121C258.7 91.6376 257.573 93.4094 256.285 95.0873C255.91 95.5839 255.293 95.7584 254.743 95.6242C254.85 95.8658 254.877 96.1208 254.85 96.3893C254.622 98.2551 254.474 100.175 254.381 102.215C254.354 103.034 253.67 103.705 252.824 103.651C252.006 103.624 251.362 102.913 251.389 102.094C251.416 101.436 251.443 100.792 251.496 100.161C250.141 101.356 248.666 102.456 247.136 103.45C246.881 103.611 246.613 103.691 246.331 103.691ZM90.3115 100.027C90.1371 100.027 89.9493 100 89.7884 99.9329C89.0103 99.6376 88.6212 98.7785 88.9164 98C89.6005 96.1745 90.164 94.3222 90.5798 92.4832C90.7542 91.6779 91.5726 91.1812 92.3641 91.3423C93.169 91.5168 93.6788 92.3087 93.5044 93.1141C93.0751 95.0873 92.4714 97.0873 91.7202 99.047C91.4921 99.651 90.9286 100.013 90.3115 100.013V100.027ZM195.97 98.6175C195.622 98.6175 195.286 98.4967 195.018 98.255C193.462 96.953 191.986 95.5034 190.577 93.9732C190.027 93.3557 190.068 92.4161 190.685 91.8658C191.302 91.3154 192.241 91.3557 192.791 91.9732C194.106 93.4094 195.501 94.7651 196.95 95.9732C197.58 96.5101 197.661 97.4497 197.124 98.0806C196.829 98.4296 196.4 98.6175 195.97 98.6175ZM187.935 89.8255C187.465 89.8255 187.009 89.5973 186.714 89.1946C185.56 87.5705 184.46 85.8389 183.427 84.0269C183.025 83.3154 183.279 82.4027 183.991 82C184.715 81.5973 185.627 81.8524 186.03 82.5638C186.996 84.2819 188.055 85.9329 189.155 87.4765C189.638 88.1477 189.491 89.0738 188.807 89.5571C188.538 89.7316 188.243 89.8389 187.935 89.8389V89.8255ZM92.8605 88.3893H92.7665C91.9482 88.349 91.3177 87.6242 91.3579 86.8054C91.3982 86.1074 91.4116 85.396 91.4116 84.698V83.6913C90.5262 83.7316 89.6274 83.7181 88.7285 83.651C87.9102 83.5973 87.2931 82.8591 87.3468 82.0403C87.4273 81.2215 88.1517 80.6175 88.9566 80.6712C89.7079 80.7248 90.4725 80.7517 91.2104 80.698C91.3043 80.0403 91.8409 79.5034 92.5251 79.4228C93.1824 79.3691 93.7861 79.7047 94.0544 80.2685C94.1617 80.2416 94.2825 80.2148 94.3898 80.1745C95.1813 79.9463 95.9996 80.4295 96.2277 81.2215C96.4423 82.0134 95.9728 82.8322 95.1813 83.0604C94.913 83.141 94.6581 83.1946 94.3898 83.2483C94.4032 83.7181 94.4166 84.1745 94.4166 84.6577C94.4166 85.4228 94.3898 86.1879 94.3361 86.953C94.2959 87.745 93.6385 88.3624 92.847 88.3624H92.8336L92.8605 88.3893ZM145.18 85.5705C143.329 85.5705 141.477 85.4631 139.666 85.2618C138.848 85.1678 138.258 84.4295 138.352 83.5973C138.446 82.7785 139.21 82.1745 140.015 82.2819C141.706 82.4698 143.45 82.5772 145.193 82.5772H145.811C146.629 82.5772 147.286 83.2349 147.3 84.0537C147.3 84.8725 146.656 85.5571 145.824 85.5571H145.18H145.193L145.18 85.5705ZM151.767 85.1141C151.029 85.1141 150.385 84.5772 150.291 83.8255C150.171 83.0067 150.734 82.255 151.566 82.1342C153.511 81.8658 155.403 81.4631 157.2 80.9396C158.005 80.7114 158.81 81.1678 159.051 81.9597C159.293 82.7517 158.823 83.5705 158.032 83.8121C156.1 84.3624 154.074 84.792 151.982 85.1007H151.767V85.1141ZM260.498 85.0738C260.364 85.0738 260.23 85.0604 260.095 85.0201C259.304 84.792 258.834 83.9732 259.049 83.1812C259.264 82.4161 259.425 81.6779 259.559 80.9128C259.277 80.953 258.995 80.9128 258.714 80.792C257.962 80.443 257.64 79.5705 257.962 78.8188C259.009 76.5235 259.532 74.8457 259.572 73.7047C259.599 72.8993 260.256 72.2551 261.075 72.2551H261.115C261.933 72.2819 262.577 72.9665 262.564 73.7987C262.537 74.5638 262.403 75.396 262.121 76.3624C262.604 76.6175 262.926 77.141 262.913 77.7181C262.846 79.7584 262.524 81.8658 261.933 83.9597C261.759 84.6175 261.155 85.047 260.498 85.047V85.0738ZM133.951 84.1611C133.831 84.1611 133.697 84.1477 133.562 84.1208C131.483 83.5705 129.498 82.8725 127.687 82.0269C126.935 81.6779 126.613 80.792 126.949 80.0403C127.297 79.2886 128.196 78.9665 128.934 79.302C130.598 80.0671 132.409 80.7114 134.314 81.2081C135.105 81.4228 135.588 82.2416 135.374 83.0336C135.199 83.7047 134.595 84.1477 133.925 84.1477H133.938L133.951 84.1611ZM83.0539 82.3759C82.8929 82.3759 82.7051 82.349 82.5441 82.2819C80.6928 81.6242 78.7878 80.7248 76.8963 79.6108C76.1852 79.1946 75.9438 78.2819 76.3596 77.5705C76.7755 76.8591 77.6878 76.6175 78.4122 77.0336C80.1428 78.0537 81.8867 78.8725 83.5502 79.4631C84.3283 79.745 84.7308 80.604 84.4491 81.3691C84.221 81.9866 83.6576 82.349 83.0405 82.349H83.0539V82.3759ZM163.224 81.8524C162.633 81.8524 162.097 81.5302 161.842 80.953C161.506 80.1879 161.855 79.3155 162.62 78.9799C164.377 78.2148 166.108 77.3155 167.758 76.3356C168.456 75.9195 169.381 76.1477 169.811 76.8457C170.226 77.5436 169.998 78.4698 169.301 78.8859C167.543 79.9463 165.692 80.8859 163.814 81.7047C163.626 81.7987 163.411 81.8255 163.224 81.8255V81.8524ZM100.158 80.5638C99.6888 80.5638 99.2327 80.3356 98.951 79.9329C98.468 79.2618 98.6156 78.3356 99.2998 77.8389C100.453 77.0202 101.594 76.0134 102.976 74.604L103.526 74.0403C104.089 73.4363 105.042 73.4228 105.632 74C106.235 74.5638 106.249 75.5034 105.672 76.1074L105.095 76.7114C103.579 78.2551 102.332 79.3557 101.03 80.2953C100.762 80.4832 100.467 80.5772 100.158 80.5772V80.5638ZM182.005 79.4631C181.442 79.4631 180.905 79.141 180.65 78.5772C179.845 76.7785 179.081 74.953 178.343 72.9262C178.222 72.604 178.222 72.2416 178.343 71.9195C177.068 73.141 175.754 74.3087 174.399 75.3826C173.741 75.8926 172.816 75.7853 172.306 75.1275C171.796 74.4832 171.903 73.5436 172.561 73.0336C174.05 71.8524 175.512 70.5504 176.88 69.1812C177.457 68.604 178.41 68.5772 178.987 69.1812C179.496 69.6779 179.563 70.4564 179.215 71.0336C179.228 71.0336 179.241 71.0336 179.255 71.0202C180.033 70.7383 180.878 71.1275 181.173 71.9061C181.898 73.8524 182.609 75.6242 183.4 77.3423C183.749 78.094 183.4 78.9799 182.649 79.3155C182.448 79.4094 182.247 79.4497 182.032 79.4497H182.005V79.4631ZM123.219 79.0873C122.884 79.0873 122.575 78.9799 122.294 78.7785C121.462 78.1208 120.684 77.4228 119.973 76.6846C119.208 75.8792 118.51 75.0202 117.893 74.1342C117.424 73.4631 117.598 72.5235 118.269 72.0537C118.94 71.5973 119.879 71.7584 120.348 72.4295C120.872 73.1946 121.489 73.9195 122.146 74.6309C122.763 75.2618 123.42 75.8658 124.131 76.443C124.775 76.953 124.896 77.8926 124.386 78.5369C124.091 78.9128 123.649 79.1007 123.206 79.1007H123.219V79.0873ZM91.5323 76.5772C90.8884 76.5772 90.2847 76.1611 90.0969 75.5168C89.5603 73.7047 88.8359 71.9329 87.9639 70.2416C87.5882 69.5034 87.87 68.6175 88.6078 68.2282C89.3456 67.8389 90.2311 68.1342 90.6201 68.8725C91.5726 70.7249 92.3641 72.6712 92.9544 74.6577C93.1958 75.4497 92.7397 76.2819 91.9482 76.5235C91.8006 76.5638 91.6665 76.5772 91.5189 76.5772H91.5323ZM72.7241 76.4295C72.3887 76.4295 72.0668 76.3222 71.7984 76.1074C70.8057 75.3289 69.8532 74.4967 68.9142 73.6242C68.3373 73.0873 67.7604 72.5101 67.2104 71.9061C66.6604 71.2886 66.7006 70.349 67.3043 69.7987C67.9214 69.2483 68.8605 69.2752 69.4105 69.8926C69.9069 70.4295 70.4301 70.953 70.9533 71.4363C71.8253 72.2416 72.7375 73.0336 73.6632 73.745C74.3071 74.255 74.4278 75.1946 73.9046 75.8524C73.6095 76.2282 73.1668 76.4161 72.7241 76.4161H72.7375L72.7241 76.4295ZM108.503 72.0671C108.167 72.0671 107.859 71.9597 107.577 71.7584C106.92 71.2483 106.812 70.3087 107.322 69.6644C108.53 68.1074 109.67 66.5101 110.689 64.8993C111.119 64.2014 112.044 63.9866 112.755 64.4295C113.453 64.8591 113.668 65.7853 113.225 66.4967C112.152 68.2014 110.971 69.8658 109.697 71.5034C109.401 71.8792 108.959 72.0671 108.516 72.0671H108.503ZM116.579 69.396C115.935 69.396 115.331 68.9799 115.143 68.3222C114.58 66.3759 114.271 64.2551 114.244 62.0403V61.8658C114.244 61.8658 114.218 61.8658 114.204 61.8524C113.453 61.49 113.158 60.604 113.52 59.8524C114.016 58.8322 114.472 57.7852 114.915 56.7517C114.781 56.4832 114.727 56.1745 114.781 55.8389C115.09 53.9866 115.546 52.0269 116.163 49.8658C116.324 49.2886 116.807 48.8859 117.37 48.792C117.638 47.5571 117.853 46.2953 118.001 45.0604C117.893 44.7651 117.893 44.4161 118.001 44.094L118.215 43.4765C118.47 42.7651 119.221 42.3624 119.946 42.5101C120.684 42.6712 121.194 43.3557 121.113 44.1074C120.952 45.9195 120.644 47.7316 120.254 49.5571C120.12 50.1879 119.611 50.6309 119.02 50.7248C118.712 51.8389 118.443 52.8993 118.215 53.9061C118.631 54.2953 118.792 54.9128 118.591 55.4765C117.974 57.2215 117.263 58.9665 116.431 60.6846C116.914 60.9262 117.236 61.4228 117.236 62C117.263 63.9732 117.518 65.8255 118.014 67.5034C118.242 68.2953 117.786 69.1275 116.995 69.3557C116.86 69.396 116.713 69.4094 116.579 69.4094H116.592L116.579 69.396ZM177.806 68.255C177.176 68.255 176.585 67.8524 176.384 67.2215C175.7 65.1007 175.163 63.1946 174.707 61.3826C174.519 60.5772 174.989 59.7718 175.794 59.5705C176.585 59.3826 177.404 59.8524 177.605 60.6577C178.034 62.4027 178.557 64.2416 179.241 66.3087C179.496 67.1007 179.067 67.9329 178.262 68.1879C178.115 68.2282 177.954 68.2685 177.793 68.2685L177.806 68.255ZM64.9969 67.4631C64.42 67.4631 63.8432 67.1141 63.6017 66.5369C63.1188 65.3691 62.8907 64.2416 62.8907 63.1812C62.8907 61.7987 63.2932 60.5235 64.0847 59.396C64.5676 58.7248 65.5067 58.5772 66.1774 59.047C66.8482 59.5302 66.9958 60.4698 66.5262 61.141C66.097 61.7584 65.8823 62.4161 65.8823 63.1678C65.8823 63.8389 66.0433 64.5906 66.3787 65.396C66.6872 66.1611 66.325 67.0202 65.5603 67.3423C65.3859 67.4228 65.1847 67.4497 64.9969 67.4497H65.0103L64.9969 67.4631ZM181.844 67.2483C181.536 67.2483 181.2 67.141 180.932 66.9396C180.274 66.4295 180.154 65.49 180.664 64.8457C181.844 63.3155 182.958 61.7181 183.95 60.0671C184.366 59.3691 185.292 59.1275 186.003 59.5571C186.7 59.9866 186.928 60.8993 186.513 61.5973C185.453 63.3423 184.286 65.0604 183.025 66.6577C182.729 67.0336 182.287 67.2349 181.844 67.2349V67.2483ZM86.0991 66.0134C85.6564 66.0134 85.2137 65.8255 84.9186 65.4497C83.899 64.1477 82.4904 62.8993 80.8404 61.7987C80.1562 61.3557 79.9549 60.4295 80.4111 59.7316C80.8538 59.047 81.7928 58.8457 82.477 59.302C84.4088 60.5504 86.0589 62.0537 87.2797 63.5973C87.7895 64.2551 87.6687 65.1812 87.0248 65.6913C86.7565 65.9061 86.4211 66 86.0991 66H86.1126L86.0991 66.0134ZM76.2792 59.4899C76.1316 59.4899 75.984 59.4765 75.8499 59.4363C74.4681 59.0201 73.2205 58.792 71.946 58.792C71.4765 58.792 71.0338 58.8188 70.6045 58.8859C69.7862 59.0201 69.0349 58.443 68.9142 57.6376C68.7934 56.8188 69.3569 56.0671 70.1752 55.9463C70.7386 55.8524 71.3557 55.8255 71.9594 55.8255C73.4754 55.8255 75.0718 56.0806 76.7353 56.5906C77.5268 56.8322 77.9561 57.6644 77.728 58.4564C77.5402 59.1007 76.9365 59.5168 76.2926 59.5168H76.306L76.2792 59.4899ZM187.935 56.9933C187.76 56.9933 187.572 56.9665 187.398 56.8859C186.633 56.5906 186.244 55.7181 186.553 54.953C187.304 53.047 187.68 51.302 187.72 49.651C187.733 48.8322 188.431 48.1611 189.249 48.1879C190.068 48.2014 190.725 48.8859 190.712 49.7181C190.671 51.7181 190.215 53.7987 189.357 56.0403C189.129 56.6443 188.565 56.9933 187.961 56.9933H187.948H187.935ZM175.016 56.6443C174.264 56.6443 173.634 56.094 173.54 55.3423C173.325 53.7047 173.218 52.1074 173.218 50.6175C173.218 50.1074 173.218 49.5973 173.258 49.1141C173.299 48.2953 173.969 47.6376 174.828 47.6913C175.646 47.7316 176.277 48.443 176.25 49.2618C176.223 49.7047 176.223 50.1611 176.223 50.604C176.223 51.9597 176.33 53.4228 176.518 54.9396C176.626 55.7584 176.049 56.5101 175.23 56.6175H175.043V56.6443H175.016ZM187.827 45.4497C187.291 45.4497 186.781 45.1678 186.513 44.6712C185.694 43.1678 184.487 41.8121 182.998 40.792C182.327 40.3356 182.139 39.3826 182.622 38.7114C183.105 38.0403 184.031 37.8658 184.702 38.3356C186.553 39.6242 188.096 41.3289 189.142 43.2483C189.531 43.9866 189.263 44.8725 188.538 45.2752C188.31 45.396 188.069 45.4497 187.814 45.4497H187.827ZM175.821 44.8322C175.66 44.8322 175.512 44.8054 175.338 44.7517C174.56 44.4832 174.144 43.6376 174.399 42.8591C175.096 40.7651 176.143 38.8725 177.484 37.1812C177.994 36.5369 178.933 36.4295 179.59 36.9396C180.234 37.4497 180.342 38.3893 179.832 39.047C178.705 40.4698 177.846 42.0671 177.243 43.8255C177.028 44.4564 176.451 44.8457 175.821 44.8457V44.8322Z" fill="#005CA1"/>
<path d="M117.464 37.5973C124.36 37.5973 129.954 32.0134 129.954 25.1275C129.954 18.2416 124.36 12.6577 117.464 12.6577C110.569 12.6577 104.975 18.2416 104.975 25.1275C104.975 32.0134 110.569 37.5973 117.464 37.5973Z" fill="white"/>
<path d="M131.738 7.38216C128.21 4.32176 123.823 1.63719 119.061 1.4627C114.862 1.31505 110.757 3.08686 107.349 5.43585C99.0318 11.1674 96.5634 20.6708 98.1733 30.3083C100.118 42.0667 106.182 53.4895 114.379 62.0667C114.687 62.3889 115.452 62.201 116.244 61.7983C117.022 61.4359 117.786 60.8721 118.296 60.362C125.393 53.2211 130.585 44.5097 134.059 35.1003C137.426 25.9593 140.15 14.6708 131.752 7.38216H131.738ZM108.677 18.8855C111.132 14.2949 117.156 12.4291 121.704 14.9929C124.937 16.8184 127.284 20.8318 125.339 24.4157C122.965 28.7647 116.7 30.8855 112.125 29.6103C107.416 27.8922 106.464 23.0734 108.704 18.8855H108.691H108.677Z" fill="#F5E83A"/>
<path d="M114.848 63.5838C114.164 63.5838 113.695 63.3154 113.413 63.0066C104.814 53.9999 98.7769 42.1744 96.8451 30.5369C95.0072 19.4362 98.5488 9.89256 106.585 4.34893C110.797 1.44961 115.13 -5.94076e-05 119.101 0.120746C123.34 0.268397 127.754 2.25497 132.235 6.04021H132.261L132.637 6.37578C141.652 14.2147 138.808 26.0939 135.32 35.5704C131.591 45.6778 126.184 54.3355 119.249 61.3154C118.564 61.9865 117.666 62.6308 116.807 63.0201C116.002 63.4228 115.358 63.5838 114.848 63.5838ZM118.564 2.80531C114.433 2.80531 110.623 4.81873 108.114 6.55028C98.3342 13.302 98.522 24.2013 99.5013 30.0939C101.312 41.0738 106.987 52.2684 115.076 60.8456C115.211 60.8053 115.398 60.7248 115.653 60.604C116.378 60.2684 117.008 59.7717 117.357 59.4228C124.011 52.7248 129.216 44.3892 132.811 34.6442C135.964 26.0671 138.607 15.3825 131.121 8.60397L130.866 8.3892C126.734 4.80531 122.75 2.92612 119.021 2.80531C118.873 2.80531 118.725 2.80531 118.578 2.80531H118.564ZM114.956 31.3288C113.869 31.3288 112.782 31.1946 111.763 30.9127C109.268 30.0134 107.564 28.3892 106.732 26.2147C106.035 24.3892 106.035 22.2952 106.678 20.2416H106.464L107.51 18.2684C108.865 15.7315 111.28 13.7852 114.137 12.953C116.968 12.1207 119.893 12.4295 122.374 13.8254C126.238 15.9999 128.841 20.8053 126.533 25.0603C124.454 28.859 119.624 31.3288 114.969 31.3288H114.956ZM110.099 19.114L109.885 19.5167C108.838 21.4764 108.597 23.557 109.241 25.2483C109.791 26.6711 110.945 27.7449 112.581 28.3489C116.727 29.4899 122.187 27.3691 124.159 23.7718C125.675 20.9664 123.77 17.7046 121.046 16.161C119.208 15.1275 117.022 14.8993 114.875 15.5301C112.863 16.1207 111.146 17.4093 110.099 19.1275V19.114Z" fill="#005CA1"/>
<path d="M257.184 75.5167C264.08 75.5167 269.674 69.9329 269.674 63.0469C269.674 56.161 264.08 50.5771 257.184 50.5771C250.289 50.5771 244.695 56.161 244.695 63.0469C244.695 69.9329 250.289 75.5167 257.184 75.5167Z" fill="white"/>
<path d="M268.856 49.2346C265.824 46.5903 262.041 44.2815 257.909 44.1205C254.273 43.9997 250.732 45.5299 247.78 47.5567C240.603 52.5097 238.47 60.7379 239.852 69.0466C241.529 79.2077 246.774 89.0735 253.844 96.4829C254.126 96.7648 254.77 96.6037 255.454 96.2413C256.125 95.9325 256.782 95.4359 257.225 95.0064C263.356 88.8319 267.836 81.3285 270.828 73.1809C273.726 65.2882 276.073 55.5299 268.842 49.2211L268.856 49.2346ZM248.934 59.1674C251.054 55.2077 256.259 53.5835 260.176 55.8117C262.967 57.3956 264.992 60.8587 263.315 63.946C261.263 67.7043 255.857 69.5299 251.899 68.4426C247.834 66.9661 246.989 62.7916 248.934 59.1809V59.1674Z" fill="#F5E83A"/>
<path d="M254.273 97.9863C253.643 97.9863 253.2 97.7312 252.918 97.4494C245.433 89.6104 240.214 79.3554 238.551 69.2749C236.941 59.6239 240.026 51.3017 247.043 46.4561C249.591 44.6977 253.536 42.644 257.976 42.7782C261.813 42.9125 265.77 44.7514 269.755 48.2145C277.629 55.0735 275.148 65.4091 272.116 73.6507C268.909 82.389 264.228 89.8923 258.204 95.9594C257.6 96.55 256.809 97.1138 256.058 97.4628C255.347 97.8386 254.756 97.9729 254.287 97.9729L254.273 97.9863ZM257.506 45.4628C253.951 45.4628 250.692 47.1943 248.545 48.6708C242.428 52.899 239.745 60.2547 241.18 68.8453C242.736 78.2547 247.579 87.852 254.501 95.2346C254.595 95.1943 254.703 95.1541 254.85 95.0735C255.373 94.8319 255.91 94.4426 256.286 94.0802C262.027 88.295 266.508 81.1272 269.58 72.7379C272.317 65.3017 274.598 56.0265 267.97 50.2547C264.469 47.1943 261.062 45.597 257.855 45.4762C257.735 45.4762 257.614 45.4762 257.493 45.4762L257.506 45.4628ZM254.287 70.0937C253.321 70.0937 252.395 69.9728 251.55 69.7447C249.323 68.9393 247.807 67.5031 247.069 65.5702C246.291 63.5299 246.493 61.1004 247.593 58.8588L247.754 58.5366C248.961 56.2816 251.094 54.5769 253.629 53.852C256.125 53.1272 258.687 53.4091 260.847 54.644C264.254 56.5769 266.548 60.8185 264.496 64.5903C262.524 68.2145 258.137 70.0937 254.273 70.0937H254.287ZM250.262 59.5433L250.115 59.8252C249.229 61.4628 249.028 63.2077 249.565 64.6171C250.021 65.7984 250.973 66.6977 252.342 67.1943C255.856 68.1608 260.471 66.3621 262.135 63.3151C263.396 60.993 261.786 58.2682 259.519 56.9796C257.989 56.1071 256.152 55.9192 254.367 56.4292C252.637 56.9259 251.161 58.0534 250.262 59.5433Z" fill="#005CA1"/>
<path d="M184.058 138.564C189.196 138.564 193.368 134.402 193.368 129.261C193.368 124.121 189.196 119.959 184.058 119.959C178.92 119.959 174.748 124.121 174.748 129.261C174.748 134.402 178.92 138.564 184.058 138.564Z" fill="white"/>
<path d="M192.912 117.731C190.551 115.691 187.613 113.879 184.407 113.758C181.576 113.664 178.826 114.845 176.545 116.416C170.964 120.268 169.314 126.644 170.388 133.114C171.689 141.006 175.767 148.684 181.254 154.429C181.469 154.657 181.978 154.523 182.515 154.255C183.038 154.013 183.548 153.624 183.897 153.302C188.646 148.51 192.147 142.671 194.468 136.349C196.722 130.228 198.546 122.631 192.912 117.731ZM177.431 125.449C179.081 122.376 183.132 121.114 186.164 122.832C188.337 124.053 189.907 126.765 188.606 129.154C187.009 132.067 182.81 133.49 179.738 132.644C176.585 131.49 175.928 128.255 177.431 125.449Z" fill="#F5E83A"/>
<path d="M181.549 155.879C180.932 155.879 180.53 155.624 180.261 155.329C174.439 149.235 170.348 141.208 169.046 133.315C167.772 125.691 170.227 119.114 175.767 115.289C178.665 113.302 181.683 112.309 184.434 112.389C187.479 112.497 190.618 113.946 193.771 116.685L196.494 119.047H195.877C199.499 124.322 197.755 131.168 195.689 136.779C193.194 143.584 189.531 149.45 184.809 154.215C184.541 154.483 183.87 155.074 183.038 155.45C182.435 155.745 181.938 155.866 181.536 155.866L181.549 155.879ZM182.193 153.477H182.207C182.207 153.477 182.207 153.477 182.193 153.477ZM184.098 115.087C181.415 115.087 178.933 116.403 177.297 117.517C170.938 121.92 171.059 129.034 171.702 132.886C172.883 140.081 176.572 147.409 181.831 153.074C181.858 153.074 181.885 153.047 181.911 153.034C182.327 152.846 182.716 152.537 182.958 152.309C187.372 147.852 190.833 142.309 193.194 135.866C195.287 130.188 197.044 123.101 192.013 118.725L191.53 118.309C189.022 116.255 186.607 115.168 184.34 115.074C184.259 115.074 184.165 115.074 184.085 115.074L184.098 115.087ZM181.563 134.215C180.798 134.215 180.06 134.121 179.389 133.933C177.578 133.275 176.304 132.067 175.714 130.497C175.056 128.752 175.258 126.685 176.264 124.805C177.23 122.993 178.96 121.611 180.986 121.02C182.998 120.43 185.078 120.658 186.835 121.651C189.612 123.222 191.477 126.685 189.786 129.785C188.19 132.698 184.662 134.201 181.563 134.201V134.215ZM183.186 123.396C182.703 123.396 182.22 123.463 181.724 123.611C180.382 124 179.242 124.899 178.611 126.081C177.967 127.275 177.82 128.537 178.209 129.557C178.531 130.416 179.202 131.02 180.194 131.383C182.462 131.987 186.097 130.913 187.425 128.497C188.404 126.698 186.889 124.779 185.507 124C184.796 123.597 184.004 123.396 183.186 123.396Z" fill="#005CA1"/>
</g>
<defs>
<clipPath id="clip0_2152_1735">
<rect width="275" height="196" fill="white" transform="translate(0 0.120605)"/>
</clipPath>
</defs>
</svg>
