<?xml version="1.0" encoding="utf-8"?>
<!-- Generator: Adobe Illustrator 25.0.0, SVG Export Plug-In . SVG Version: 6.00 Build 0)  -->
<svg version="1.1" id="圖層_1" xmlns="http://www.w3.org/2000/svg" xmlns:xlink="http://www.w3.org/1999/xlink" x="0px" y="0px"
	 viewBox="0 0 172 169" style="enable-background:new 0 0 172 169;" xml:space="preserve">
<style type="text/css">
	.st0{fill:#F5E83A;}
	.st1{fill:#005CA1;}
	.st2{fill:#FFFFFF;}
</style>
<g id="bus">
	<path class="st0" d="M165.5,159.5l-164-1.3c0,0-0.6-52.5,10.9-68c0,0,122.5-5.2,153.6,1.2C166.1,91.4,169.4,132.2,165.5,159.5z"/>
	<path class="st1" d="M0,159.6v-1.5C0,156-0.5,105,11.3,89.3l0.4-0.6l0.7,0c5-0.2,123-5.2,154,1.3l1.1,0.2l0.1,1.1
		c0,0.4,3.3,41.2-0.6,68.4l-0.2,1.3L0,159.6z M13.3,91.7C3.6,105.7,3,148.2,3,156.7l161.2,1.3c3.2-24.2,0.9-58.6,0.4-65.3
		C133.7,86.9,23.4,91.3,13.3,91.7L13.3,91.7z"/>
	<path class="st1" d="M36.6,159.7C36.6,159.7,36.5,159.7,36.6,159.7c-0.8,0-1.3-0.6-1.2-1.3l4.9-69.3c0-0.7,0.6-1.2,1.3-1.2
		s1.2,0.6,1.2,1.3l-4.9,69.3C37.8,159.2,37.3,159.7,36.6,159.7z"/>
	<path class="st1" d="M31.4,125.3c0,0,4.6-27.7-4.2-28.3c-8.8-0.6-16.8,18.3-18.4,28.1L31.4,125.3L31.4,125.3z"/>
	<path class="st2" d="M8.8,126.4c-0.4,0-0.7-0.1-1-0.5c-0.5-0.5-0.4-1.3,0.2-1.8l11.9-9.9c0.5-0.5,1.3-0.4,1.8,0.2
		c0.5,0.5,0.4,1.3-0.2,1.8l-11.9,9.9C9.4,126.3,9.1,126.4,8.8,126.4z"/>
	<path class="st2" d="M23.4,121.5c-0.6,0-1.1-0.4-1.2-1.1c-1-6-5.3-8.2-5.3-8.3c-0.6-0.3-0.9-1.1-0.5-1.7c0.3-0.6,1.1-0.9,1.7-0.5
		c0.2,0.1,5.4,2.9,6.6,10.1c0.1,0.7-0.3,1.3-1,1.4C23.6,121.5,23.5,121.5,23.4,121.5L23.4,121.5z"/>
	<path class="st1" d="M12.5,138.1c1.1-1.8,0.9-4.4-0.7-5.6c-0.8-0.6-1.8-0.9-2.8-1c-2.1-0.2-4.4,0.4-6.1,1.7
		c-2.2,1.7-4.7,6.9-0.8,8.1C5.3,142.3,10.6,141.1,12.5,138.1L12.5,138.1z"/>
	<path class="st0" d="M169.2,91.7c0,0-5.7-9.4-45.6-12.5c-40-3.2-98.9,0-108.5,3.3c-9.6,3.3-8.3,8.9-3.9,9.8
		C15.6,93.1,115.4,87.6,169.2,91.7z"/>
	<path class="st1" d="M11.8,93.8c-0.4,0-0.8,0-1-0.1c-2.6-0.5-4.4-2.3-4.5-4.6c-0.1-1.5,0.5-5.4,8.3-8.1
		c10.2-3.5,69.1-6.5,109.1-3.4c16.8,1.3,29.6,3.9,38.3,7.6c6.7,2.8,8.4,5.4,8.5,5.7l1.5,2.5l-2.9-0.2c-37.8-2.8-99.5-1-132.7,0
		C22,93.7,14.5,93.9,11.8,93.8L11.8,93.8z M110.7,79.9c-39.6-1.8-87.3,1.3-95.2,4c-4.7,1.6-6.3,3.7-6.2,5c0.1,0.9,0.9,1.6,2.1,1.8
		c1.2,0.2,12.2-0.1,24.9-0.5c31.8-1,90-2.7,128.2-0.4c-4.9-2.8-16.2-7.2-41.1-9.2C119.3,80.3,115.1,80.1,110.7,79.9L110.7,79.9z"/>
	<path class="st1" d="M55.5,100.5l-1.4,31.2l24.2,0.2l1.4-31.2L55.5,100.5z"/>
	<path class="st2" d="M78.7,121.9l-24.2-0.2c-0.7,0-1.3-0.6-1.3-1.3s0.6-1.2,1.3-1.2l24.2,0.2c0.7,0,1.3,0.6,1.3,1.3
		C80,121.4,79.4,121.9,78.7,121.9z"/>
	<path class="st1" d="M93.4,100.2L92,131.4l24.2,0.2l1.4-31.2L93.4,100.2z"/>
	<path class="st2" d="M116.7,121.6l-24.2-0.2c-0.7,0-1.3-0.6-1.3-1.3s0.6-1.2,1.3-1.2l24.2,0.2c0.7,0,1.3,0.6,1.3,1.3
		C117.9,121,117.4,121.6,116.7,121.6z"/>
	<path class="st1" d="M131.8,100.5l-1.4,31.2l24.2,0.2l1.4-31.2L131.8,100.5z"/>
	<path class="st2" d="M155,121.9l-24.2-0.2c-0.7,0-1.3-0.6-1.3-1.3s0.6-1.2,1.3-1.2l24.2,0.2c0.7,0,1.3,0.6,1.3,1.3
		S155.7,121.9,155,121.9z"/>
	<path class="st2" d="M31.4,126.6l-22.6-0.2c-0.4,0-0.7-0.2-1-0.5c-0.2-0.3-0.3-0.6-0.3-1c1.8-10.5,10.1-29.8,19.7-29.1
		c1.5,0.1,2.8,0.8,3.8,2.1c5,6.3,1.9,25.5,1.5,27.7C32.6,126.2,32,126.6,31.4,126.6L31.4,126.6z M10.3,123.9l20,0.2
		c0.9-6.3,2.2-20.3-1.2-24.6c-0.6-0.7-1.2-1.1-2-1.1c-0.1,0-0.2,0-0.3,0C19.6,98.2,12.4,114,10.3,123.9L10.3,123.9z"/>
	<path class="st2" d="M78.2,133.2L54.1,133c-0.3,0-0.7-0.2-0.9-0.4c-0.2-0.2-0.4-0.6-0.3-0.9l1.4-31.2c0-0.7,0.6-1.2,1.3-1.2
		l24.2,0.2c0.3,0,0.7,0.2,0.9,0.4c0.2,0.2,0.4,0.6,0.3,0.9L79.5,132C79.5,132.6,78.9,133.2,78.2,133.2z M55.4,130.5l21.7,0.2
		l1.3-28.7l-21.7-0.2L55.4,130.5z"/>
	<path class="st2" d="M116.1,132.8L92,132.6c-0.3,0-0.7-0.2-0.9-0.4c-0.2-0.2-0.4-0.6-0.3-0.9l1.4-31.2c0-0.7,0.6-1.2,1.3-1.2
		l24.2,0.2c0.3,0,0.7,0.2,0.9,0.4c0.2,0.2,0.4,0.6,0.3,0.9l-1.4,31.2C117.4,132.3,116.8,132.8,116.1,132.8z M93.3,130.1l21.7,0.2
		l1.3-28.7l-21.7-0.2L93.3,130.1z"/>
	<path class="st2" d="M154.5,133.1l-24.2-0.2c-0.3,0-0.7-0.2-0.9-0.4c-0.2-0.2-0.4-0.6-0.3-0.9l1.4-31.2c0-0.7,0.6-1.2,1.3-1.2
		l24.2,0.2c0.3,0,0.7,0.2,0.9,0.4c0.2,0.2,0.4,0.6,0.3,0.9l-1.4,31.2C155.7,132.6,155.2,133.1,154.5,133.1z M131.7,130.4l21.7,0.2
		l1.3-28.7l-21.7-0.2L131.7,130.4z"/>
	<path class="st1" d="M21.5,168.2c3.6,0,6.4-2.9,6.4-6.4c0-3.5-2.9-6.4-6.4-6.4s-6.4,2.9-6.4,6.4C15.1,165.3,18,168.2,21.5,168.2z"
		/>
	<path class="st2" d="M21.5,164.5c1.5,0,2.7-1.2,2.7-2.7s-1.2-2.7-2.7-2.7c-1.5,0-2.7,1.2-2.7,2.7S20.1,164.5,21.5,164.5z"/>
	<path class="st1" d="M63.3,168.2c3.6,0,6.4-2.9,6.4-6.4c0-3.5-2.9-6.4-6.4-6.4c-3.6,0-6.4,2.9-6.4,6.4
		C56.8,165.3,59.7,168.2,63.3,168.2z"/>
	<path class="st2" d="M63.3,164.5c1.5,0,2.7-1.2,2.7-2.7s-1.2-2.7-2.7-2.7c-1.5,0-2.7,1.2-2.7,2.7S61.8,164.5,63.3,164.5z"/>
	<path class="st1" d="M118.9,161.8c0-3.5-2.8-6.4-6.4-6.5c-3.6,0-6.5,2.8-6.5,6.4c0,3.5,2.8,6.4,6.4,6.5
		C116,168.2,118.9,165.4,118.9,161.8z"/>
	<path class="st2" d="M112.5,164.5c1.5,0,2.7-1.2,2.7-2.7s-1.2-2.7-2.7-2.7c-1.5,0-2.7,1.2-2.7,2.7S111,164.5,112.5,164.5z"/>
	<path class="st1" d="M150.5,168.2c3.6,0,6.4-2.9,6.4-6.4c0-3.5-2.9-6.4-6.4-6.4c-3.6,0-6.4,2.9-6.4,6.4
		C144.1,165.3,147,168.2,150.5,168.2z"/>
	<path class="st2" d="M150.5,164.5c1.5,0,2.7-1.2,2.7-2.7s-1.2-2.7-2.7-2.7s-2.7,1.2-2.7,2.7S149,164.5,150.5,164.5z"/>
</g>
<g id="smoke">
	<path class="st1" d="M90.6,83l-14.4-0.1c-0.4,0-0.7-0.2-1-0.5c-0.2-0.3-0.3-0.7-0.2-1.1c0.1-0.4,9-36.4,16.5-53.7
		C96,17.1,103.7,4,114.8,0.9c6.1-1.7,12.6-0.3,19.3,4.4c6,4.2,8.5,8.4,7.4,12.4c-2.2,8.3-18.4,12.2-23.8,12.7
		c-7.6,0.6-23.6,21.2-25.8,51.5C91.8,82.5,91.3,83,90.6,83L90.6,83z M77.8,80.4l11.6,0.1c2.5-29.5,18.3-51.8,28-52.6
		c6.5-0.5,19.9-4.8,21.5-10.8c0.8-2.9-1.4-6.2-6.4-9.7c-6-4.2-11.8-5.5-17.1-4c-10.1,2.9-17.4,15.3-21.7,25.3
		C87.2,43.7,79.6,73.3,77.8,80.4L77.8,80.4z"/>
	<path class="st2" d="M77.8,80.4l11.6,0.1c2.5-29.5,18.3-51.8,28-52.6c6.5-0.5,19.9-4.8,21.5-10.8c0.8-2.9-1.4-6.2-6.4-9.7
		c-6-4.2-11.8-5.5-17.1-4c-10.1,2.9-17.4,15.3-21.7,25.3C87.2,43.7,79.6,73.3,77.8,80.4L77.8,80.4z"/>
	<path class="st1" d="M124.5,29c-0.2,0-0.5-0.1-0.7-0.2l-23.1-15.2c-0.6-0.4-0.7-1.2-0.4-1.7c0.4-0.6,1.2-0.7,1.7-0.4l23.1,15.2
		c0.6,0.4,0.7,1.2,0.4,1.7C125.3,28.8,124.9,29,124.5,29L124.5,29z"/>
	<path class="st1" d="M97.9,53.1c-0.2,0-0.3,0-0.5-0.1l-11.9-5.2c-0.6-0.3-0.9-1-0.6-1.7c0.3-0.6,1-0.9,1.7-0.6l11.9,5.2
		c0.6,0.3,0.9,1,0.6,1.7C98.8,52.9,98.4,53.1,97.9,53.1z"/>
</g>
</svg>
