<?xml version="1.0" encoding="utf-8"?>
<!-- Generator: Adobe Illustrator 25.0.0, SVG Export Plug-In . SVG Version: 6.00 Build 0)  -->
<svg version="1.1" id="圖層_1" xmlns="http://www.w3.org/2000/svg" xmlns:xlink="http://www.w3.org/1999/xlink" x="0px" y="0px"
	 viewBox="0 0 320.4 208.6" style="enable-background:new 0 0 320.4 208.6;" xml:space="preserve">
<style type="text/css">
	.st0{fill-rule:evenodd;clip-rule:evenodd;fill:#F5E83A;}
	.st1{fill:#005CA1;}
	.st2{fill-rule:evenodd;clip-rule:evenodd;fill:#005CA1;}
	.st3{fill:#F5E83A;}
</style>
<g>
	<path class="st0" d="M311.7,48c-6-5.9-16-9.1-22.4-13.5c-6.4-4.3-9.1-9.7-7.8-13.5c1.3-3.8,6.5-6.1,11.4-7.3
		c4.8-1.3,9.3-1.6,10.9-3.8s0.4-6.2-4.4-7.4S286.2,3,280.2,7c-6,3.9-9.5,10.1-9.1,16.4s4.6,12.8,11.5,17.6s16.5,8,21.2,13.9
		c4.8,5.9,4.7,14.4-1.3,19.7c-4.4,3.9-12.1,6-18.2,7.4c-0.2-0.3-0.5-0.7-0.7-1c-8-10.9-21-11.3-38.9-7.6
		c-17.9,3.7-40.5,11.4-54.4,14.5c-8.4,1.9-13.6,2.1-17.3,2c5.4-6.7,5.8-15.6,5-26.4c-1-13.9-4-31-7-39.5s-6.2-8.4-9.5-5.8
		s-6.9,7.7-8.8,10.4c-1.8,2.6-1.9,2.8-2,2.9s-0.1,0.1-5.6,0.8s-16.4,2-21.8,2.7c-3.6,0.4-5.5,0.6-5.6,0.6c-0.2-0.1-0.5-0.2-3.1-2.1
		c-2.6-1.9-7.5-5.7-11.3-6.5s-6.5,1.4-6.9,11.8c-0.3,10.4,1.7,28.9,5.1,42c3,11.5,7.1,18.9,16.7,22c0,1.9,0.1,4.3,0.3,7.2
		c0.5,12.4,1.1,34.6,1.8,50.4s1.6,25.1,4.4,29.9c2.8,4.8,7.6,5.1,9.8-0.7c2.2-5.7,1.8-17.5,2.4-27.2c0.6-9.7,2.1-17.5,4.1-20.5
		c2-3.1,4.6-1.4,5.7,4.8c1.2,6.2,0.9,17,1.2,25.8c0.3,8.7,1.2,15.4,4.2,17.3c3.1,2,8.3-0.7,10.4-7.6c2.1-6.9,0.9-17.9,0.3-25.5
		c-0.7-7.6-0.8-11.6-0.9-13.7c-0.1-2.1,0-2.2,0.1-2.2s0.3,0.3,6.1,3.2c5.7,3,17,8.8,30.2,9.1c13.3,0.4,28.5-4.6,37.6-8.6
		s12-7.2,13.5-8.7s1.4-1.5,1.7,4.8c0.2,6.3,0.7,28.7,2.1,36.3c1.3,7.6,3.5,10.3,6.8,11s7.8-0.5,9.6-7.3c1.9-6.8,1.1-29.1,1-37.1
		s0.3-11.7,1.7-12.4c1.4-0.7,3.7,1.5,4.7,7.2s0.8,24.8,0.8,32s0.1,12.5,2,14.9s5.5,1.8,8.1,0s4.3-4.9,5.7-11.8
		c1.4-6.9,2.6-27.6,1.7-43.7c-0.6-12-2.4-27-6.5-38.4c5.2-0.9,11-2.4,15.6-4.5c8.1-3.8,12.6-9.8,13.9-17
		C319.5,62.3,317.7,53.8,311.7,48L311.7,48z"/>
	<path class="st1" d="M129.7,195.2c-2.3-0.1-4.6-1.7-6.2-4.4c-3-5-3.9-14.3-4.6-30.7c-0.5-10-0.9-22.6-1.2-33.8
		c-0.2-6.4-0.4-12.2-0.6-16.7l-0.1-2.1c-0.1-1.5-0.1-2.8-0.1-4c-9.8-3.6-13.8-11.7-16.7-22.7c-3.7-14-5.5-32.6-5.2-42.5
		c0.2-6.6,1.4-10.5,3.7-12.3c1.4-1.1,3.1-1.4,5.1-1c4,0.8,8.7,4.4,11.6,6.5l0.4,0.3c1.6,1.2,2.3,1.7,2.5,1.8c0.6-0.1,2.1-0.2,5-0.6
		l22.1-2.7c2.5-0.3,3.9-0.5,4.6-0.6c0,0,0-0.1,0.1-0.1l1.6-2.3c1.8-2.6,5.5-7.9,9.1-10.7c0.8-0.6,3.2-2.5,5.9-1.7
		c2.4,0.7,4.4,3.3,6.1,8.2c3,8.4,6,25.6,7.1,39.9c0.7,10.1,0.4,18.3-3.5,24.9c3.3-0.1,7.7-0.6,13.9-2c6-1.4,13.7-3.6,21.9-6
		c10.5-3,22.3-6.5,32.5-8.5c15.6-3.2,31.3-4.4,40.5,8.2l0.1,0.1c5.4-1.2,12.5-3.3,16.5-6.8c5.1-4.5,5.6-12,1.1-17.4
		c-2.8-3.4-7.4-5.9-12.4-8.6c-2.9-1.6-5.9-3.2-8.5-5c-7.3-5.1-11.8-12-12.2-18.9c-0.4-6.9,3.3-13.5,9.8-17.9c6.1-4,14.9-6,20.4-4.7
		c2.9,0.7,5.1,2.5,5.9,4.8c0.6,1.8,0.4,3.7-0.6,5.1c-1.5,2.1-4.6,2.8-8.2,3.5c-1.1,0.2-2.4,0.5-3.6,0.8c-5.8,1.5-9.4,3.8-10.3,6.3
		c-0.9,2.8,0.9,7.4,7.2,11.7c2.4,1.6,5.3,3.1,8.4,4.6c5.1,2.6,10.4,5.2,14.2,9c5.8,5.7,8.5,14.5,7,22.9c-1.4,8-6.6,14.3-14.8,18.1
		c-3.7,1.7-8.5,3.2-14.1,4.3c4,11.8,5.5,26.6,6,37.1c0.7,13.5,0.1,34.9-1.7,44.1c-1.4,7.1-3.2,10.7-6.3,12.8
		c-3.2,2.2-7.8,2.8-10.3-0.3c-2.2-2.8-2.4-8.4-2.4-15.9v-2.9c0.1-6.6,0.1-24-0.7-28.8c-0.7-4-2-5.5-2.5-5.9
		c-0.4,0.6-0.9,2.9-0.8,10.8c0,1.3,0.1,2.8,0.1,4.3c0.2,7.8,0.5,27.3-1.1,33.2c-2.1,7.6-7.3,9.3-11.5,8.4c-4.3-1-6.6-4.5-8-12.3
		c-1.4-7.9-1.9-30.9-2.1-36.5v-0.3c0-0.8-0.1-1.6-0.1-2.3c-1.9,1.8-5.4,4.6-12.8,7.9c-10.1,4.5-25.4,9.1-38.3,8.8
		c-13.8-0.4-25.4-6.4-30.9-9.3c-1.5-0.8-2.8-1.5-3.8-2c0.1,3.5,0.4,7.8,0.9,13.1l0.1,1.3c0.7,7.6,1.6,18-0.5,24.8
		c-1.3,4.4-4,7.7-7.3,8.9c-2,0.7-3.9,0.6-5.5-0.4c-3.7-2.4-4.6-9.2-5-18.6c-0.1-2.5-0.1-5.2-0.2-7.9c-0.1-6.5-0.2-13.3-1-17.6
		c-0.7-3.9-1.8-4.9-2.1-5c-0.1,0-0.4,0.2-0.8,0.8c-1.8,2.7-3.3,10.3-3.8,19.7c-0.1,2.6-0.2,5.3-0.3,8c-0.2,7.8-0.4,15.2-2.2,19.7
		c-1.7,4.3-4.4,5.2-5.8,5.3C130.2,195.2,129.9,195.2,129.7,195.2L129.7,195.2z M102.3,28.2c-0.9,0-1.4,0.2-1.7,0.5
		c-1,0.8-2.3,3.2-2.5,9.9c-0.3,9.6,1.5,27.8,5.1,41.5c2.8,10.7,6.4,17.9,15.7,20.8l1.1,0.3v1.1c0,1.4,0.1,3.1,0.2,5l0.1,2.1
		c0.2,4.5,0.4,10.4,0.6,16.7c0.4,11.1,0.8,23.7,1.2,33.7c0.7,15.5,1.6,24.8,4.2,29.2c1.1,1.9,2.6,2.9,3.9,2.8
		c1.2-0.1,2.4-1.3,3.1-3.3c1.5-4,1.7-11.4,1.9-18.6c0.1-2.7,0.2-5.5,0.3-8.1c0.6-10.3,2.2-18,4.4-21.3c1.5-2.3,3.2-2.3,4.1-2.2
		c2.2,0.4,3.7,3.1,4.6,7.5c0.8,4.6,1,11.5,1.1,18.2c0,2.7,0.1,5.3,0.2,7.8c0.2,6.6,0.8,14.3,3.5,16c0.7,0.5,1.6,0.5,2.7,0.1
		c1.8-0.7,4.1-2.8,5.3-6.8c1.9-6.2,1-16.3,0.3-23.6l-0.1-1.3c-0.5-5.7-0.8-10.2-0.9-13.8c-0.1-2.4-0.1-3,0.7-3.5l0.7-0.5l0.9,0.3
		c0,0,0.1,0.1,0.3,0.2c0.9,0.5,2.9,1.6,5.9,3.1c5.3,2.7,16.1,8.4,28.9,8.9c0.2,0,0.4,0,0.6,0c12.3,0.4,27.2-4.1,36.9-8.5
		c8.8-3.9,11.6-6.9,12.9-8.3c0.8-0.8,1.6-1.7,2.8-1.2c1.4,0.5,1.4,1.5,1.6,6.8v0.3c0.2,5.5,0.7,28.4,2,36.1c1.4,7.8,3.5,9.3,5.6,9.7
		c1.7,0.4,5.9,0.6,7.8-6.1c1.5-5.4,1.2-24.7,1-32.3c0-1.5-0.1-3-0.1-4.4c-0.2-9.4,0.5-12.8,2.6-13.9c0.8-0.4,1.8-0.4,2.7,0
		c2,1,3.6,4,4.3,8.3c0.9,5.1,0.9,22.6,0.8,29.4v2.9c0,6.2,0.1,11.9,1.7,13.9c1.3,1.6,4,1,6-0.3c2-1.4,3.6-3.7,5-10.8
		c1.8-8.9,2.4-30.1,1.7-43.3c-0.6-10.8-2.1-26.2-6.4-37.9l-0.7-1.8l1.9-0.3c6.2-1.1,11.4-2.6,15.2-4.4c7.3-3.4,11.7-8.7,13-15.8
		c1.3-7.4-1-15.1-6.1-20.1c-3.5-3.4-8.5-6-13.4-8.4c-3.2-1.6-6.2-3.1-8.7-4.8c-6.7-4.6-10-10.6-8.4-15.4c1.2-3.7,5.5-6.5,12.5-8.4
		c1.3-0.3,2.6-0.6,3.7-0.9c2.8-0.6,5.4-1.2,6.3-2.3c0.4-0.5,0.5-1.3,0.2-2.1c-0.5-1.3-1.8-2.4-3.7-2.8c-4-1-12,0.3-17.9,4.2
		c-5.6,3.7-8.7,9.3-8.4,15c0.3,5.9,4.3,11.8,10.8,16.4c2.5,1.7,5.4,3.3,8.2,4.8c5,2.7,10.1,5.4,13.3,9.4c5.6,6.8,4.9,16.3-1.5,21.9
		c-4.8,4.2-13.1,6.4-18.9,7.7l-1.1,0.2l-0.6-0.9c-0.2-0.3-0.4-0.6-0.7-0.9c-7.7-10.6-20.5-10.4-37.3-7c-10,2.1-21.8,5.5-32.2,8.5
		c-8.2,2.4-16,4.6-22.1,6c-8.8,2-14.1,2.1-17.7,2.1l-3.3-0.1l2.1-2.5c5-6.2,5.5-14.3,4.7-25.3c-1-14.1-4-30.9-6.9-39.1
		c-1.8-4.9-3.3-6-4-6.2s-1.7,0.2-3,1.2c-3.2,2.5-6.7,7.6-8.4,10l-1.6,2.3c-0.5,0.7-0.5,0.8-0.6,0.8c-0.3,0.3-2.4,0.7-6.3,1.2
		l-22.1,2.7c-3.9,0.5-6,0.6-6.4,0.5c-0.3-0.1-0.7-0.3-3.4-2.3l-0.4-0.3c-2.4-1.8-7-5.3-10.3-5.9C102.8,28.2,102.6,28.2,102.3,28.2
		L102.3,28.2z"/>
	<path class="st2" d="M114.7,53.7c0,3.1-1.5,5.7-4.8,5.5c-2.9-0.2-3.8-2.7-4.2-5.2c-0.1-0.6-0.5-0.9-1.1-0.9
		c-0.5,0.1-0.9,0.6-0.9,1.1c0.7,3.9,2.6,7.5,7.3,6.9c4.1-0.5,5.8-3.8,5.7-7.7c-0.1-0.6-0.5-0.9-1.1-0.9
		C115,52.7,114.6,53.2,114.7,53.7L114.7,53.7z"/>
	<path class="st2" d="M164.7,48.5c0,3.2-1.6,5.9-5,5.7c-3-0.2-3.9-2.8-4.3-5.4c-0.1-0.6-0.6-1-1.1-0.9c-0.6,0.1-1,0.6-0.9,1.1
		c0.7,4.1,2.7,7.8,7.5,7.2c4.3-0.5,6-3.9,5.9-7.9c-0.1-0.6-0.6-1-1.1-0.9C165,47.4,164.6,47.9,164.7,48.5L164.7,48.5z"/>
	<path class="st2" d="M139.7,68.4c-0.4,1.4-1.5,3.6-2.5,4.5c-1.1,0.9-2.1,0.5-3.1-0.5c-1-0.9-1.9-2.3-2.4-3.4s-0.6-1.7,0-2.2
		s1.9-0.8,3.4-1s3.1-0.3,4,0C140,66.2,140.2,66.9,139.7,68.4z"/>
	<path class="st2" d="M141.3,80.6c0.1,2.5-0.8,4.7-2.9,5.5l-1.4-14l-2.1,0.2l1.4,14.1c-2.6-0.3-3.4-2.7-3.9-5
		c-0.1-0.6-0.6-0.9-1.1-0.9c-0.5,0.1-0.9,0.6-0.8,1.1c0.9,3.9,2.9,7.4,7.5,6.7c4.1-0.7,5.6-4,5.4-7.9c-0.1-0.6-0.6-0.9-1.1-0.9
		C141.6,79.6,141.3,80.1,141.3,80.6L141.3,80.6z"/>
	<path class="st2" d="M230,76.9c0,0.4,0,0.8,0,1.1c-0.1,2.4-0.6,6.2-0.9,8.7c-0.1,1.5-0.3,2.9-0.4,4.4c-0.2,3,0,6.2-0.1,9.3v7.1
		c0.1,1.9-2.5,2-2.5,0.1c0-0.8,0-1.7,0-2.5l0.1-6.1c0-0.4,0-0.9,0-1.2c-0.2-6.3,0.5-10.4,1.1-16.5c0.1-1.1,0.2-2.4,0.3-3.7
		C228.4,77.3,229.2,77.1,230,76.9L230,76.9z"/>
	<path class="st2" d="M223.4,78.7c0.1,5.4-0.3,9.1-0.6,14.9c-0.2,2.9-0.3,5.7-0.3,8.7l0.1,4.6c0,0.7,0,1.5,0,2.3
		c0.1,1.9-2.6,1.8-2.5,0.1c0-0.4,0-0.8,0-1.2c0-0.3,0-0.9,0-1.2c0-0.5,0-0.8-0.1-1.2l-0.1-6c0-2.4,0.2-4.5,0.3-6.9
		c0.1-1.5,0.3-3,0.4-4.4c0.2-3,0.4-5.9,0.4-8.9C221.8,79.2,222.6,78.9,223.4,78.7L223.4,78.7z"/>
	<path class="st2" d="M202.4,93.7L203,98l1.1,5.8c0,0.2,0,0.5,0.1,0.7c0,0.3,0.1,0.3,0.1,0.7l0.5,5.3c0.1,0.6-0.5,1.2-1,1.3
		c-0.7,0.1-1.3-0.3-1.4-0.9c-0.2-1.1-0.3-3.9-0.5-4.8c-0.2-0.7-0.2-1.6-0.3-2.3c-0.1-0.3-0.1-0.8-0.2-1.1c-0.2-1-0.4-2.3-0.7-3.3
		c-0.2-0.7-0.3-1.5-0.4-2.2c-0.1-0.4-0.1-0.8-0.1-1.1c-0.3-1.3-0.5-7.5-0.6-9c0-0.2,0-0.2,0-0.5l-0.1-1c0.8-0.2,1.6-0.5,2.5-0.7
		L202.4,93.7L202.4,93.7z"/>
	<path class="st2" d="M191.1,87.7c0.2,1.5,0.4,2.6,0.8,4.6c1.4,6.4,3.5,12.2,3.1,18.9c-0.1,1.8,0,0.6,0,2.1c0.1,1.2-1.5,1.7-2.2,0.9
		c-0.5-0.6-0.4-2.1-0.4-2.8c0-0.6,0-1.1,0-1.6c0.1-2.7-0.6-6.8-1.2-9.3c-0.4-1.9-0.9-3.7-1.3-5.5c-0.3-1.2-0.7-3-0.9-4.2
		c-0.1-0.4-0.2-1.1-0.3-1.5l-0.1-1c0.6-0.1,1.1-0.2,1.7-0.4C190.6,87.7,190.9,87.7,191.1,87.7L191.1,87.7z"/>
	<path class="st2" d="M236.7,75.1c0.2,2.6,0.3,4.8,0.2,7.3c-0.1,2.3-0.4,4.6-0.6,7c-0.2,2.7-0.6,3.7-0.6,7c0,1.2-0.1,4.5-0.2,5.4
		c-0.2,1.5-2.3,1.3-2.5,0.1l0.1-3.7c0.1-3.1,0-4.2,0.5-7.3c0.2-1.2,0.2-2.4,0.3-3.7c0.1-1.2,0.2-2.4,0.3-3.6
		c0.1-1.2,0.1-2.4,0.2-3.7l-0.2-4.2C235.1,75.5,235.9,75.3,236.7,75.1z"/>
	<path class="st2" d="M257.4,71.4c0.1,2.5,0,4.6-0.3,7.6c-0.1,1.2-0.2,2.4-0.3,3.7c-0.1,2.4-0.6,3.9-0.6,7.2c0,0.6-0.1,4.9-0.2,5.6
		c-0.3,1.5-2.3,1.3-2.4,0c0-0.4,0.1-3,0.1-3.7c0-2.3,0.1-5.1,0.5-7.3c0.2-1.3,0.2-2.4,0.3-3.6l0.3-5.4c0-0.6,0.1-1.3,0.1-1.9
		s0-1.3-0.1-1.9C255.7,71.5,256.5,71.5,257.4,71.4z"/>
	<path class="st2" d="M265,95c-0.7,0.1-1.3-0.4-1.4-1.1l0.1-1.8c0.1-1.7,0-4.1,0.1-5.7c0.1-1.2,0.2-2.4,0.4-3.5
		c0.2-1.2,0.2-2.4,0.3-3.6l0.4-5.4c0.1-1,0.1-1.8,0.1-2.5c0.8,0.1,1.7,0.1,2.5,0.3v0.7c0,2.8-0.4,5.2-0.5,7.8
		c-0.1,1.4-0.2,2.5-0.3,3.8c-0.5,3.7-0.2,6.6-0.5,9.9c0,0.3-0.1,0.6-0.3,0.8C265.7,94.7,265.3,94.9,265,95L265,95z"/>
	<path class="st2" d="M245.8,98.6c-0.6,0.1-1.2-0.3-1.3-0.7c-0.2-0.6-0.1-1.2,0-1.8c0.5-3.6,1-9.2,1-12.8c0-1.3,0-2.6-0.1-3.9
		l-0.2-4.1c0-0.4,0-0.6,0-1c0-0.3-0.1-0.7-0.1-1c0.8-0.2,1.7-0.3,2.5-0.5c0.1,0.9,0.1,1.9,0.1,2.1c0,0.6,0.1,1.4,0.1,2
		c0,1.8,0.2,4.1,0.1,5.9c-0.1,1.9,0,3.7-0.1,5.8c-0.1,1.3-0.1,2.5-0.3,3.7c-0.1,1.2-0.4,3.2-0.6,4.3c-0.2,0.8,0,0.5-0.1,0.9
		C246.8,98,246.3,98.6,245.8,98.6L245.8,98.6z"/>
	<path class="st2" d="M182.8,89.2c0.1,2.3-0.1,4.6-0.2,6.8l-0.4,5.5c-0.1,1.7-0.3,3.8-0.3,5.6c0,5.7,0.8,5.9,0.8,6.5
		c0.1,0.8-0.4,1.3-1.2,1.4c-1.6,0.2-1.8-3.4-1.9-4.5c-0.1-1-0.1-2.1-0.1-3c0-1,0-1.9,0.1-2.9c0.1-3.6,0.5-7.6,0.7-11.3
		c0.1-1,0.1-2.5,0.1-3.7C181.1,89.5,181.9,89.4,182.8,89.2z"/>
	<path class="st2" d="M213.6,90.2c0.4,3.7,0.3,6.3,0.1,9.8c0,0.3,0,0.6,0,0.9c-0.1,1.2,0.8,3.6-1,3.8c-0.5,0-0.9-0.2-1.1-0.5
		c-0.3-0.4-0.3-0.9-0.3-1.4c0-0.2-0.1-0.6-0.1-0.8c-0.1-0.9,0.1-4.3,0.2-5.3l-0.2-5.9l-1.2-8.1c0.8-0.2,1.6-0.5,2.4-0.7
		c0,0.1,0,0.3,0.1,0.4l0.9,5.5c0,0.3,0,0.6,0.1,0.8L213.6,90.2L213.6,90.2z"/>
	<path class="st2" d="M177.7,62.6c-3,0.1-8.7,0.6-12.3,1.5s-5,2.3-5.3,3.7c-0.4,1.4,0.3,2.7,2.2,3.5c2,0.8,5.2,1,8.7,0.8
		c2.6-0.2,5.4-0.7,7.4-1.1c0-2.4-0.1-4.9-0.3-7.6c0-0.3,0-0.5-0.1-0.8C177.9,62.6,177.8,62.6,177.7,62.6L177.7,62.6z"/>
	<path class="st2" d="M178.2,75.4c-3.1,0.1-8.4,0.6-11.8,1.5c-3.6,0.9-5,2.3-5.3,3.7c-0.4,1.4,0.3,2.7,2.2,3.5c2,0.8,5.2,1,8.7,0.8
		c1.4-0.1,2.9-0.3,4.3-0.5C177.4,81.6,178,78.6,178.2,75.4L178.2,75.4z"/>
	<path class="st2" d="M99,67.7c3.1-0.5,7.6-0.9,10.7-0.8c3.7,0.2,5.3,1.2,6,2.5c0.6,1.2,0.3,2.7-1.5,3.9c-1.8,1.2-4.9,2.1-8.4,2.5
		c-1.7,0.2-3.6,0.4-5.2,0.4C100.1,73.5,99.5,70.6,99,67.7L99,67.7z"/>
	<path class="st2" d="M101.6,80.2c3-0.4,6.9-0.8,9.7-0.6c3.7,0.2,5.3,1.2,6,2.5c0.6,1.2,0.3,2.7-1.5,3.9c-1.8,1.2-4.9,2.1-8.4,2.5
		c-1,0.1-2,0.2-3.1,0.3c-1-2.5-1.9-5.2-2.7-8.3C101.7,80.4,101.7,80.3,101.6,80.2L101.6,80.2z"/>
	<path class="st2" d="M158,193c-0.5,0.1-1.3,0.2-1.5-1l2-7.2c0.3-0.8,1.4-0.9,1.9-0.1c0.3,0.4,0.1,0.8,0,1.2
		c-0.2,0.9-0.3,1.7-0.6,2.6c-0.2,0.9-0.5,1.6-0.8,2.4C158.9,191.4,158.6,192.9,158,193L158,193z"/>
	<path class="st2" d="M278.1,187.8c-2.3,0.2-0.9-2.3-0.8-4.9c0.1-2.8-0.6-3.8,1-4c1.2-0.1,1.1,1.4,1.1,1.7c0,0.9,0.1,1.5,0,2.8
		c-0.1,0.9-0.2,1.6-0.4,2.4C279,186.6,279,187.7,278.1,187.8L278.1,187.8z"/>
	<path class="st2" d="M266.2,189.8c-0.8,0.1-1.2-0.3-1.3-1l1-2.9c0.4-1.1,1-4.2,1-4.2c0.4-0.9,1.6-0.9,2-0.1c0.2,0.4,0,0.9-0.1,1.3
		c-0.2,0.9-0.3,1.7-0.5,2.6c-0.2,0.8-0.5,1.6-0.8,2.3C267.1,188.7,267,189.7,266.2,189.8z"/>
	<path class="st2" d="M261.5,184.1c0.1,0.6-1.3,4.7-1.8,5.8s-0.4,1.5-1.2,1.6c-0.6,0.1-1.1-0.4-1.2-1c0-0.5,0.2-0.5,0.4-0.9
		c0.2-0.4,1.3-4.2,1.4-4.8c0.3-1.1,0.2-1.5,1.3-1.6c0.3,0,0.5,0.1,0.7,0.2C261.2,183.5,261.5,184,261.5,184.1L261.5,184.1z"/>
	<path class="st2" d="M265.4,184c0.2,1.6-1.7,5.9-2.4,6.7c-0.7,0.7-2.5,0.1-1.5-1.6c1.3-2.1,1.9-5.3,1.9-5.3
		C263.9,182.9,265.3,183.4,265.4,184z"/>
	<path class="st2" d="M153.4,186.2c0,0.3-0.8,1.9-1,2.4c-0.1,0.3-0.2,0.5-0.4,0.8c-0.2,0.6-1,2.9-1.6,3c-2.5,0.3-1-2.3-0.7-3
		c0.1-0.4,0.2-0.6,0.4-1s0.3-0.6,0.5-1s0.3-0.6,0.5-0.9c0.3-0.6,0.7-1.5,1.7-1.1C153,185.5,153.4,185.9,153.4,186.2L153.4,186.2z"/>
	<path class="st2" d="M281.7,188.7c-0.6,0.1-1.2-0.4-1.3-0.9c0-0.4,0.7-2.9,0.8-3.5c0.1-0.5,0.3-1.2,0.4-1.7
		c0.3-1.2,0.4-1.3,1.3-1.4c0.2,0,1.2,0.3,0.8,1.6l-1.4,5.2C282.4,188.3,282,188.6,281.7,188.7z"/>
	<path class="st2" d="M132.6,195.4c-0.5,0.1-1.5-0.4-1-1.7c0.3-0.6,0.4-2,0.4-2.7c0.1-1.6-0.1-3,1.2-3.1c0.8-0.1,1.2,0.6,1.1,1.4
		c0,0.8,0,1.6-0.1,2.4C134.2,193,133.8,195.3,132.6,195.4z"/>
	<path class="st2" d="M284.7,189.2c-0.5,0.1-1.1-0.4-1.2-1c0-0.3,0.2-0.7,0.4-1.7c0.1-0.7,0.5-4.2,0.8-4.5c0.4-0.5,1.2-0.7,1.7,0
		c0.3,0.4,0.2,0.6,0.2,1.1c-0.3,2.4-0.3,3.2-1.1,5.5C285.4,189,285,189.2,284.7,189.2L284.7,189.2z"/>
	<path class="st2" d="M131.2,189.4c0.1,1.1-0.8,4-1.2,5.2c-0.3,0.8-0.3,1.2-1.2,1.2c-0.7,0.1-1-0.5-1.1-1.2c0-0.3,0.3-1.3,0.4-1.6
		l0.8-3.3c0.3-1.7,1.6-1.3,1.9-1C131.1,188.9,131.2,189.2,131.2,189.4L131.2,189.4z"/>
	<path class="st2" d="M125.7,195.3c-0.4,0-1.4-0.5-1.1-1.4l0.6-2c0.2-0.7,0.4-1.2,0.7-1.9c0.4-1.1,0.3-1.5,1.3-1.6
		c0.8-0.1,1.2,0.8,0.9,1.5l-0.6,1.9c-0.2,0.7-0.4,1.3-0.6,2C126.6,194.4,126.6,195.2,125.7,195.3z"/>
	<path class="st2" d="M156.3,187.5c0.1,0.6-0.9,3.5-1.2,4.3c-0.6,1.6-2.1,1.1-2.2,0c0-0.4,0.7-2.2,0.8-2.8c0.2-0.5,0.3-0.9,0.4-1.4
		C154.5,186,156.2,186.4,156.3,187.5z"/>
	<path class="st2" d="M104.7,30.5c1.6,0.2,3.3,1.6,3.8,3.1c0.5,1.4-0.2,2.8-1.6,3.3c-1.4,0.5-3.7-0.1-5-1s-1.6-2.2-1-3.4
		C101.6,31.3,103.1,30.3,104.7,30.5z"/>
	<path class="st2" d="M163,24.5c-1.5,0.5-2.9,2.3-3.1,3.8c-0.2,1.5,0.7,2.7,2.2,2.9c1.5,0.1,3.6-0.8,4.7-2c1.1-1.2,1.1-2.5,0.3-3.5
		C166.3,24.6,164.5,23.9,163,24.5L163,24.5z"/>
	<path class="st3" d="M8,80.5c7.3-9.3,23.2-13.6,23-27.5c0-2.8-0.4-5.8,2.1-7.7c2.3-1.8,7.6,0.7,9.2,2.6c6.7,8.2,0.4,19-6.2,24.9
		c-5,4.7-11,7.9-15.8,12.9c-6.1,6.4-7.5,14.2-7.1,22.5c7.1-11.3,23-12.8,35.6-8.6c2.9,1,19.9,8.8,24.9,14.4
		c0.5-3.7,1.3-7.4,2.7-10.9c0.4-1,1.6-1,2.2-0.5c4.4,3.4,9,6.5,13.3,10.2c3.7-4.7,8.7-6.5,14.7-7.2c3.4-0.4,7-0.2,10.5-0.4
		c1.5,0,3.7,0.6,4-1.3c0.6-3.2,1.1-6.4,1.3-9.6c0.1-1.3,2-1.5,2.6-0.5c11.6,14.7,11.2,45.3-2.8,58.1c0,8,1.3,15.7,3.1,23.5
		c1.2,5.6,1.8,11.7,3.8,17.1c2.1,5.8,8.1,0.4,10.1,4.8c1.5,3.1,1.2,5.3-1.5,7.2c-4.9,3.8-14.9,1.2-17.5-4.3
		c-6.1-13.3-5.9-28.7-9.4-42.7c-2.7,0.4-5.6,0.4-8.8-0.1c-1.3-0.1-2.7-0.4-4.2-0.9c-1.3-0.5-2.6-1-3.7-1.6
		c1.2,7.4,0.6,15.4,1.5,22.7c0.6,5.2,1.2,16.3,7.5,18.3c2,0.6,4.3,3.1,5,4.9c1.8,5-3.2,6.6-7.3,6.4c-8.4-0.6-10.3-7-12.5-14.1
		c-3.4-10.8-1.8-22.8-7.8-32.8c-5.4-9-16.9-12.5-26.5-13.8c-5.6-0.7-15.5-1-22.4,1.8c0,0.1,0.1,0.2,0,0.4
		c-0.2,6.6,2.3,13.5,4.2,19.9c0.7,2.7,1.5,5.3,2.1,8c0.7,3.1,3.4,5.9,4.6,8.8c3.5,8.2-7.2,6.8-12.5,5.3c0.1,0.1,0.2,0.1,0.2,0.2
		c0.9,0.7,2.2,2.1,3.2,2.2c0.6,0.1,1.1,0.7,1.2,1.3c0.6,8.2-8.6,7.7-13.6,3.8c-3.4-2.6-3.8-5.4-4.3-9.5c-0.9-8.8-3.2-17.6-5.4-26
		c-2-7.6-3.8-14.9-4.2-22.7c-0.5-9.2-0.2-17.7-3.2-26.6C0.4,101.8,0,90.6,8,80.5L8,80.5z"/>
	<path class="st1" d="M101.5,208.6c-0.4,0-0.6,0-0.9,0c-9.4-0.7-11.6-7.9-13.8-14.9l-0.1-0.3c-1.4-4.4-2-9-2.6-13.5
		c-0.9-6.8-1.7-13.2-5.1-18.9c-5.2-8.7-16.7-11.9-25.3-13c-5.8-0.8-14.4-0.8-20.6,1.4c0,5,1.6,10.2,3.1,15.3c0.4,1.2,0.7,2.3,1,3.4
		l0.4,1.4c0.6,2.3,1.2,4.4,1.7,6.6c0.4,1.5,1.3,3,2.4,4.6c0.8,1.3,1.6,2.6,2.2,3.9c1.2,2.8,1.1,5-0.3,6.6c-1.6,1.9-4.8,2.2-7.7,2
		c0.1,0.2,0.2,0.5,0.3,0.8c0,0.1,0,0.1,0,0.2c0.3,4.6-2,6.6-3.4,7.3c-3.8,2.1-9.4,0.4-12.7-2.1c-4-3-4.4-6.5-4.9-10.5
		c-0.8-8.4-3-16.8-5.1-24.9l-0.2-0.9c-1.9-7.3-3.8-14.9-4.2-23c-0.1-1.7-0.2-3.3-0.2-5c-0.3-7.3-0.6-14.1-2.9-21.2
		c-4.5-14.1-3.2-25,4.2-34.3c2.7-3.4,6.4-6.1,10-8.8c6.6-4.9,12.8-9.5,12.7-17.7v-1c0-2.6-0.1-5.8,2.7-8c3.3-2.6,9.5,0.6,11.4,2.8
		c7,8.5,1.6,20.1-6.4,27.2c-2.3,2.1-4.8,4-7.2,5.7c-3.1,2.3-5.9,4.4-8.5,7.1c-4.2,4.4-6.3,9.7-6.7,16.8c8.6-8.8,23.3-9.2,34.5-5.5
		c2.5,0.8,16.5,7.2,23.3,12.7c0.5-2.9,1.3-5.7,2.3-8.3c0.3-0.9,1-1.5,1.9-1.7c1-0.3,2-0.1,2.8,0.6c1.7,1.3,3.4,2.5,5.1,3.8
		c2.3,1.7,4.8,3.5,7.1,5.4c3.4-3.7,8-5.8,14.7-6.6c2.4-0.3,4.8-0.3,7.1-0.3c1.2,0,2.3,0,3.5-0.1c0.3,0,0.7,0,1,0
		c0.4,0,1.3,0.1,1.5,0c0.7-3.6,1.1-6.7,1.3-9.5c0.1-1.3,1-2.2,2.2-2.5c1.3-0.3,2.6,0.2,3.3,1.2c11.4,14.5,12.1,45.7-2.5,59.7
		c0.1,8.1,1.6,15.9,3,22.4c0.4,1.8,0.7,3.7,1.1,5.5c0.7,3.8,1.4,7.8,2.7,11.3c0.7,1.9,1.6,1.9,3.9,1.8c2-0.1,4.8-0.2,6.2,2.8
		c1.8,3.9,1.2,6.9-2,9.2c-2.6,2-6.7,2.7-10.8,1.6c-4.2-1-7.6-3.5-9-6.6c-3.9-8.5-5.3-17.9-6.6-27c-0.7-4.9-1.4-9.9-2.6-14.7
		c-2.5,0.2-5.2,0.1-7.8-0.3c-1.5-0.1-2.9-0.4-4.4-0.9c-0.4-0.1-0.8-0.3-1.2-0.5c0.4,3.3,0.4,6.6,0.5,9.9c0.1,3.3,0.2,6.7,0.6,9.9
		c0.1,0.5,0.1,1,0.2,1.5c0.5,4.9,1.5,14,6.2,15.4c2.5,0.8,5.1,3.7,6,5.8c1,2.8,0.3,4.6-0.5,5.7C107.2,208.3,103.5,208.6,101.5,208.6
		L101.5,208.6z M46,144.2c3.9,0,7,0.4,8.1,0.5c9.4,1.2,21.8,4.7,27.7,14.5c3.8,6.3,4.7,13.3,5.5,20.2c0.5,4.3,1.1,8.8,2.4,13
		l0.1,0.4c2.1,6.8,3.7,12.1,10.9,12.7c2.5,0.1,4.8-0.5,5.6-1.6c0.2-0.2,0.7-0.9,0.1-2.6c-0.5-1.4-2.5-3.5-4-3.9
		c-6.7-2.1-7.8-12.1-8.4-18.1c-0.1-0.5-0.1-1-0.2-1.5c-0.4-3.4-0.5-6.9-0.6-10.2c-0.1-4.1-0.2-8.4-0.9-12.4
		c-0.1-0.6,0.1-1.2,0.7-1.6c0.5-0.4,1.2-0.4,1.7-0.1c1.1,0.6,2.3,1.1,3.4,1.5c1.2,0.4,2.4,0.6,3.8,0.8c3,0.5,5.8,0.5,8.4,0.1
		c0.8-0.1,1.6,0.4,1.8,1.2c1.3,5.3,2.2,10.9,3,16.3c1.3,8.9,2.6,18,6.4,26.1c1,2.2,3.6,4,6.9,4.8c3.2,0.8,6.3,0.4,8.2-1.1
		c2-1.4,2.2-2.8,1-5.3c-0.5-1-1.1-1.1-3.2-1c-2.2,0.1-5.5,0.2-7-3.9c-1.4-3.8-2.1-7.9-2.8-11.9c-0.3-1.8-0.6-3.6-1-5.4
		c-1.5-6.9-3.1-15.1-3.1-23.8c0-0.5,0.2-0.9,0.5-1.2c11.8-10.7,15.2-39.5,2.9-55.6c-0.2,2.7-0.7,5.7-1.3,9.1c-0.6,3-3.5,2.8-4.8,2.7
		c-0.3,0-0.5,0-0.8,0c-1.1,0-2.3,0.1-3.5,0.1c-2.4,0-4.6,0.1-6.8,0.3c-6.4,0.8-10.6,2.8-13.6,6.6c-0.3,0.3-0.7,0.6-1.1,0.6
		c-0.4,0-0.9-0.1-1.2-0.4c-2.6-2.2-5.4-4.3-8.1-6.3c-1.7-1.2-3.4-2.5-5-3.8c-1.2,3.2-2,6.6-2.5,10.2c-0.1,0.6-0.5,1.1-1.1,1.3
		c-0.6,0.2-1.2,0-1.7-0.5c-4.8-5.3-21.6-13.1-24.3-13.9c-11.4-3.8-26.9-2.9-33.7,7.9c-0.4,0.6-1.1,0.9-1.8,0.7
		c-0.7-0.2-1.2-0.8-1.2-1.5c-0.5-10.3,1.9-17.8,7.5-23.7c2.7-2.9,5.9-5.2,8.9-7.4c2.3-1.7,4.8-3.5,6.9-5.5
		c4.9-4.4,12.5-14.8,6.1-22.7c-1.3-1.5-5.6-3.4-6.9-2.3c-1.5,1.2-1.5,2.8-1.5,5.5v1c0.2,9.9-7,15.2-14,20.3
		c-3.6,2.6-6.9,5.1-9.3,8.2C2.5,90,1.3,99.9,5.5,112.9c2.5,7.5,2.7,14.6,3,22.1c0.1,1.6,0.1,3.3,0.2,5c0.4,7.8,2.3,15.2,4.1,22.4
		l0.2,0.9c2.1,8.2,4.3,16.7,5.2,25.4c0.5,3.8,0.7,6.1,3.6,8.3s7,3.1,9.3,1.9c1.3-0.7,1.9-2.1,1.8-4.1c0,0,0,0,0-0.1
		c-1.1-0.2-2.2-1.1-3.4-2.2l-0.4-0.4c-0.1-0.1-0.1-0.1-0.2-0.2l-0.1-0.1c-0.5-0.5-0.6-1.3-0.3-1.9c0.4-0.6,1.1-0.9,1.8-0.7
		c5,1.4,9.7,1.5,10.8,0.1c0.6-0.7,0.2-2.1-0.3-3.2c-0.5-1.1-1.2-2.3-2-3.5c-1.1-1.8-2.3-3.6-2.8-5.6c-0.5-2.2-1.1-4.3-1.7-6.5
		l-0.4-1.4c-0.3-1.1-0.7-2.2-1-3.4c-1.7-5.5-3.4-11.3-3.2-17v-0.1c0-0.1,0-0.1,0-0.2c0-0.6,0.4-1.2,1-1.5
		C35.7,144.7,41.4,144.2,46,144.2L46,144.2z"/>
	<path class="st1" d="M123.2,103.8c0.7-1.5,1-3.1,1.5-4.7c0.4-1,1.7-1.3,2.2-0.2c0.9,1.5,1.1,3.2,1.7,4.8c0.5,1.1-0.9,1.7-1.7,1.3
		c-0.9,0.1-1.6,0.4-2.3,0.6C123.5,106.1,122.7,104.8,123.2,103.8L123.2,103.8z"/>
	<path class="st1" d="M79.6,107.2c2.9,1.1,5.6,2.7,8.2,4.4c0.4,0.2,0.5,0.5,0.6,0.9c1,0.4,1.2,2,0,2.3c-2,0.6-3.5,1.6-5.3,2.7
		c-0.5,0.4-1.5,0.1-1.7-0.5c-1.2-2.8-2.3-5.6-3.4-8.5C77.8,107.9,78.7,106.9,79.6,107.2z"/>
	<path class="st1" d="M117.6,120.7c1.2,2,4.2-0.1,4.6-1.7c0.5-1.5,2.8-0.9,2.3,0.6c-1.2,3.8-6.7,6.3-9.2,2.3
		C114.6,120.5,116.7,119.3,117.6,120.7L117.6,120.7z"/>
	<path class="st1" d="M94,125.5c0.4,1.6,3.8,0.5,3.7-1.1s2.3-1.6,2.4,0c0.4,4.3-7.6,6.3-8.6,1.7C91.4,124.6,93.8,123.9,94,125.5z"/>
	<path class="st1" d="M109.6,134.7c-1-0.6-1.7-1.5-2.6-2.2c-0.5-0.5-0.5-1.3,0-1.7c1.6-1.3,3.4-1.7,5.5-1.3c0.7,0.1,1.2,1.2,0.7,1.8
		c-0.1,0.1-0.2,0.2-0.2,0.4v0.1c-0.1,0.9-0.2,1.5-0.6,2c0.2,1.2,0.5,2.3,1,3.4c0.4,0.7,1.5,2,2.1,1.5c-1.5-0.5-0.9-2.8,0.6-2.3
		c0.4,0.1,0.9,0.2,1.2,0.4c0.5,0.1,1,0.6,0.9,1.2c-0.4,3.3-3.1,4.2-5.6,2.2c-0.6,1.7-2.6,2.2-4.3,1.8c-1.6-0.4-0.9-2.7,0.6-2.3
		c1.2,0.2,1.5-0.2,1.5-1.5C110.4,137,110,135.8,109.6,134.7L109.6,134.7z"/>
	<path class="st1" d="M122,136.4c1.7-1,2.9-2.5,4.3-3.9c1.1-1.2,2.8,0.5,1.7,1.7c-1,1.1-1.8,2.1-2.9,2.9c0.5,0.1,1,0.4,1.6,0.5
		c1.5,0.5,0.9,2.8-0.6,2.3c-1.3-0.5-2.7-0.9-3.9-1.6C121.1,138.1,121.3,136.9,122,136.4L122,136.4z"/>
	<path class="st1" d="M99.7,139.5c-0.6-0.2-1.2-0.5-1.8-0.6s-1-0.9-0.9-1.5c0.2-0.7,0.9-1,1.5-0.9c1.2,0.2,2.3,0.9,3.4,1.2
		c0.4,0.1,0.5,0.4,0.6,0.5c0.7,0.5,1,1.6,0,2.1c-1.3,0.7-2.4,1.7-3.2,3.1c-0.9,1.3-2.9,0.1-2.1-1.2
		C97.9,141.1,98.8,140.2,99.7,139.5z"/>
	<path class="st1" d="M26.8,162.7c1.2,8.2,0,17.7,4.5,24.9c0.9,1.3-1.2,2.6-2.1,1.2c-4.8-7.5-3.5-17.1-4.8-25.4
		C24.2,161.8,26.6,161.2,26.8,162.7L26.8,162.7z"/>
	<path class="st1" d="M109.6,105.9c1,1.5,2,3.1,2,4.9c0,1.6-2.4,1.6-2.4,0c0-1.3-1-2.6-1.7-3.7C106.6,105.8,108.8,104.6,109.6,105.9
		L109.6,105.9z"/>
	<path class="st1" d="M103.9,106.3c2,1.2,2.3,3.4,2.7,5.5c0.1,0.6-0.6,1.2-1.2,1.2c-0.7,0-1.1-0.6-1.2-1.2c-0.1-1.1-0.4-2.8-1.5-3.4
		C101.3,107.5,102.6,105.4,103.9,106.3z"/>
	<path class="st1" d="M59.1,113.3c1.1-1.2,2.8,0.6,1.7,1.7c-2.1,2.3-1.5,6.3-0.7,9.1c0.4,1.5-2,2.2-2.3,0.6
		C56.7,120.9,56.3,116.4,59.1,113.3z"/>
	<path class="st1" d="M48.2,103.8c0.9-1.3,3.1-0.1,2.1,1.2c-2.4,3.6-4.3,7.7-2.7,11.9c0.5,1.5-1.8,2.1-2.3,0.6
		C43.4,112.9,45.5,107.9,48.2,103.8L48.2,103.8z"/>
	<path class="st1" d="M30.7,103c1-1.2,2.7,0.5,1.7,1.7c-2.8,3.4-4.3,8.5-2.2,12.6c0.7,1.3-1.3,2.7-2.1,1.2
		C25.5,113.4,27.2,107.3,30.7,103z"/>
</g>
</svg>
