<svg width="138" height="101" viewBox="0 0 138 101" fill="none" xmlns="http://www.w3.org/2000/svg">
<g clip-path="url(#clip0_2186_964)">
<path d="M109.004 93.5889C111.178 83.3853 120.831 83.9776 123.179 93.737C126.806 93.811 130.459 93.8233 134.087 93.8727C134.484 93.8727 134.521 93.8727 134.621 93.5149C135.689 87.3952 135.59 81.1521 135.602 74.9584C134.596 70.5537 128.707 72.1824 125.353 71.9233C120.098 71.8122 114.855 71.8739 109.6 71.8246C108.047 60.2268 107.972 48.4316 105.513 36.9695C103.202 29.2089 101.388 17.278 93.0518 13.885C75.9695 6.91403 42.0659 4.39706 24.4494 9.87516C18.983 12.059 16.7965 18.0183 14.8709 23.1139C9.33 39.5729 10.5351 57.2533 12.9204 74.1688C9.9139 74.4032 6.895 74.5019 3.90094 74.9091C2.348 75.0078 1.26716 76.2169 1.30443 77.7592C1.24231 82.0775 1.08081 86.4822 1.90076 90.7388C2.11196 91.3311 2.23619 92.3551 2.99403 92.4168C7.40436 92.4168 11.8023 92.5402 16.2126 92.5402C18.7097 84.0763 28.0025 86.001 31.2947 92.7376C57.1977 93.0337 83.1006 93.3298 108.991 93.6259L109.004 93.5889Z" fill="#F5E83A"/>
<path d="M134.136 95.1065H134.099C132.682 95.0818 131.291 95.0695 129.9 95.0572C127.651 95.0325 125.39 95.0201 123.154 94.9708L122.197 94.9461L121.973 94.0208C120.868 89.4433 118.122 87.4076 115.861 87.4076H115.811C113.202 87.4446 111.053 89.9122 110.221 93.848L110.01 94.8351L30.5242 93.9344L30.1888 93.2435C28.611 90.0356 25.3436 87.8764 22.362 88.1355C20.0139 88.3329 18.2498 90.0109 17.405 92.861L17.1441 93.7493H16.2124C13.8395 93.7493 11.5411 93.7246 9.21794 93.6876C7.14322 93.663 5.0685 93.6383 3.0062 93.6259C1.44084 93.4779 1.03087 92.096 0.832092 91.4298C0.794822 91.3187 0.769975 91.22 0.732704 91.1213L0.68301 90.9362C-0.0996689 86.9387 -0.025128 82.8301 0.0369893 78.8449V77.7222C-0.000281088 75.563 1.61477 73.7987 3.81373 73.663C5.82633 73.3915 7.95075 73.2558 10.0006 73.1201C10.4976 73.0831 11.0069 73.0584 11.5039 73.0214C9.36702 57.3891 8.0874 39.3508 13.6904 22.7068L13.7898 22.4477C15.703 17.3891 18.0883 11.0843 23.9895 8.72774C41.1339 3.39769 75.5345 5.39646 93.5237 12.7499C101.139 15.8468 103.649 25.2607 105.649 32.824C106.009 34.1565 106.345 35.4396 106.705 36.6364C108.27 43.9036 108.892 51.2817 109.5 58.4255C109.836 62.4353 110.184 66.5686 110.693 70.6278C112.233 70.6278 113.774 70.6278 115.327 70.6278C118.619 70.6278 122.023 70.6278 125.377 70.7018C126.16 70.7635 127.042 70.7265 127.986 70.6771C131.291 70.5291 135.813 70.3193 136.819 74.6994L136.857 74.9708V76.6118C136.857 82.2379 136.857 88.0615 135.863 93.7493L135.838 93.8727C135.527 94.9708 134.819 95.1312 134.161 95.1312L134.136 95.1065ZM124.135 92.5278C126.061 92.5649 127.999 92.5772 129.924 92.6019C131.117 92.6019 132.31 92.6266 133.502 92.6389C134.347 87.3952 134.347 81.9048 134.347 76.5994V75.1065C133.788 73.0337 131.49 72.9844 128.086 73.1324C127.067 73.1818 126.11 73.2188 125.241 73.1571C121.986 73.0831 118.594 73.0831 115.314 73.0831C113.401 73.0831 111.5 73.0831 109.587 73.0707H108.506L108.37 71.9973C107.773 67.5433 107.388 63.0029 107.016 58.6229C106.419 51.5655 105.798 44.2614 104.295 37.241C103.959 36.1306 103.612 34.8227 103.251 33.4532C101.388 26.4205 99.0521 17.6728 92.5795 15.0325C75.0003 7.85173 41.432 5.88998 24.8218 11.0473C20.0264 12.972 17.9516 18.4625 16.113 23.3113L16.026 23.5334C10.4479 40.1158 11.9387 58.3391 14.1501 73.9837L14.3364 75.2792L13.0195 75.3779C12.0753 75.452 11.1187 75.5137 10.1745 75.5754C8.16195 75.7111 6.08722 75.8345 4.07462 76.1059C3.10559 76.1676 2.53411 76.8092 2.55896 77.7098V78.8943C2.47199 82.7191 2.40987 86.6673 3.11801 90.3934C3.15528 90.5044 3.19255 90.6278 3.22982 90.7512C3.26709 90.8746 3.31679 91.0473 3.36648 91.1707C5.26727 91.1707 7.26745 91.1953 9.26763 91.22C11.2927 91.2447 13.3177 91.2694 15.3427 91.2817C16.5975 87.9628 19.0449 85.9393 22.1756 85.6802C25.9524 85.3594 29.9279 87.7283 32.0771 91.4915L108.047 92.3551C109.513 86.9757 112.954 84.9893 115.799 84.9523H115.886C119.588 84.9523 122.756 87.8887 124.16 92.5402L124.135 92.5278Z" fill="#005CA1"/>
<path d="M70.4533 6.4698C70.2296 4.90287 70.4905 2.9041 68.7388 2.20083C66.1299 0.979361 63.0986 1.04105 60.266 0.905333C56.6011 1.21378 42.724 -1.64865 41.7426 2.2872C41.6432 3.95283 40.2766 7.51853 42.165 8.41921C46.4884 9.04845 50.9608 8.53026 55.3463 8.70299C59.3467 8.75234 63.3719 8.76468 67.3598 9.09781C70.0806 9.48029 70.652 9.46795 70.4036 6.4698H70.4533Z" fill="#005CA1"/>
<path d="M10.3859 93.7001C10.4481 92.8241 10.5102 91.9357 10.5723 91.0227C8.22426 90.6773 5.8638 90.6156 3.50334 90.3688C3.19275 88.7772 2.9567 87.2843 2.7952 85.6927C2.54673 85.594 0.521701 85.594 0.037185 85.6927C-0.136744 95.2794 2.21129 93.7988 10.3984 93.7124L10.3859 93.7001Z" fill="#005CA1"/>
<path d="M13.5908 90.7885C13.6032 91.1833 13.8144 91.43 14.125 91.4671C15.0941 91.4547 14.8207 89.9618 15.181 89.3202C17.6036 81.794 27.766 83.435 31.7291 88.7403C32.5987 89.3326 33.2696 91.8865 34.2883 91.6028C34.6859 91.43 34.7107 90.9242 34.4871 90.591C30.3252 81.831 15.4792 79.0426 13.6032 90.7761L13.5908 90.7885Z" fill="#005CA1"/>
<path d="M133.912 86.4331C133.639 88.2468 133.912 89.9248 133.788 91.7261C132.186 92.0346 130.546 91.8865 128.918 91.9112C128.682 92.7502 128.682 93.6139 128.57 94.5145C135.813 94.9217 137.167 94.4405 136.347 86.9636C135.577 86.7169 134.794 86.6058 133.925 86.4331H133.912Z" fill="#005CA1"/>
<path d="M114.93 82.6208C110.631 82.7565 107.265 87.0501 106.681 91.1464C106.681 91.4918 106.867 91.751 107.165 91.8126C107.935 91.936 107.911 90.8749 108.085 90.3567C110.544 81.2636 120.645 82.3 123.763 90.3691C127.13 93.762 122.943 81.9915 114.917 82.6084L114.93 82.6208Z" fill="#005CA1"/>
<path d="M47.7811 82.9167C48.0668 84.1505 47.4705 90.443 48.5389 90.48C48.9489 90.4923 49.0979 90.0235 49.0483 89.6657C48.924 86.0629 48.7874 82.4602 48.6631 78.8575C48.5389 78.1666 48.9489 73.947 47.545 75.6496C47.4829 78.0679 47.7065 80.5108 47.7438 82.9291C47.7562 82.9291 47.7686 82.9291 47.7811 82.9291V82.9167Z" fill="#005CA1"/>
<path d="M89.0762 82.0529C89.8092 81.9789 90.8279 81.9419 90.8776 80.9919C90.9646 80.1405 91.0515 78.8821 89.921 78.771C86.7157 77.9937 86.2685 82.2874 89.0762 82.0159C89.0762 82.0159 89.0762 82.0283 89.0762 82.0406V82.0529Z" fill="#005CA1"/>
<path d="M85.2745 80.3133C85.5354 78.7957 83.7465 78.66 82.678 79.0054C81.8705 79.2398 82.032 80.3009 81.9326 80.9548C81.9326 82.0282 83.2495 81.8925 84.0073 81.9666C85.0633 82.0406 85.3988 81.2386 85.287 80.3133H85.2745Z" fill="#005CA1"/>
<path d="M76.2924 80.634C76.2675 81.8924 77.4974 81.8678 78.4416 81.8554C79.6219 81.9418 79.6343 80.6957 79.5846 79.8443C79.5722 78.8326 78.3298 78.956 77.6093 78.7833C76.603 78.6229 76.2924 79.8567 76.2924 80.634Z" fill="#005CA1"/>
<path d="M82.4791 84.2737C82.4791 83.0029 81.2616 83.1633 80.3423 83.1633C79.4105 83.1139 79.2117 83.9899 79.2242 84.7549C79.2242 85.9517 80.7398 85.6802 81.5598 85.7542C82.3176 85.7542 82.3549 84.7919 82.4791 84.2737Z" fill="#005CA1"/>
<path d="M87.8336 84.36C88.0199 83.0151 86.4173 82.7437 85.4358 83.0398C84.7153 83.2002 84.678 84.1872 84.8147 84.7795C85.0383 85.6185 86.0694 85.5198 86.7527 85.7048C87.5851 85.8652 87.9702 85.0756 87.846 84.36H87.8336Z" fill="#005CA1"/>
<path d="M59.993 4.77967C60.5893 4.71798 61.4341 4.6933 61.4714 3.916C61.5459 3.21273 61.6081 2.17634 60.6887 2.08997C58.1543 1.42371 57.6077 4.94006 59.993 4.75499C59.993 4.75499 59.993 4.76733 59.993 4.77967Z" fill="white"/>
<path d="M56.8745 3.3609C57.0857 2.11476 55.6197 2.00371 54.7377 2.28749C54.0792 2.4849 54.2034 3.34856 54.1289 3.89144C54.1289 5.07589 57.3963 5.18693 56.8869 3.3609H56.8745Z" fill="white"/>
<path d="M49.4952 3.62015C49.4828 4.64421 50.4891 4.63187 51.2594 4.61954C52.2284 4.69357 52.2408 3.66951 52.2035 2.96624C52.1911 2.13959 51.1724 2.23829 50.5885 2.10257C49.7685 1.96685 49.5077 2.99091 49.5077 3.63249L49.4952 3.62015Z" fill="white"/>
<path d="M54.5767 6.60577C54.5767 5.55703 53.5704 5.69275 52.8126 5.69275C52.0423 5.65573 51.8808 6.37134 51.8932 7.00058C51.8932 7.98763 53.1356 7.75321 53.8189 7.8149C54.44 7.8149 54.4773 7.02526 54.5767 6.60577Z" fill="white"/>
<path d="M58.974 6.67979C59.123 4.89077 55.7811 5.19922 56.4893 7.02525C56.8744 7.98762 59.3591 8.22205 58.974 6.67979Z" fill="white"/>
<path d="M41.1342 77.4016C40.4385 77.414 39.1589 77.1055 39.0843 78.0926C39.0595 78.5367 39.3825 78.9316 39.8546 78.9686C40.7118 79.0179 41.5566 79.0426 42.4138 78.9192C42.9108 78.8822 43.3083 78.438 43.2089 77.9569C43.0226 77.0068 41.8299 77.3893 41.1342 77.3523C41.1342 77.3646 41.1342 77.377 41.1342 77.4016Z" fill="#005CA1"/>
<path d="M54.0917 76.9821C53.309 77.0438 52.3027 76.5626 51.6567 77.1425C51.2343 77.6113 51.4828 78.327 52.0915 78.4503C52.9487 78.5244 53.8556 78.6477 54.7129 78.4873C55.8931 78.1049 55.1601 76.612 54.0793 76.9451C54.0793 76.9574 54.0793 76.9698 54.0793 76.9944L54.0917 76.9821Z" fill="#005CA1"/>
<path d="M73.3362 72.6637C83.4117 72.4046 83.8589 71.2571 82.6911 61.3127C82.1196 51.8247 81.6103 42.312 81.5109 32.8117C80.9518 28.1973 81.4736 23.114 79.4486 18.8574C77.9702 17.3151 75.4855 17.1547 73.4853 16.6982C68.3047 15.9579 63.0123 15.7482 57.782 15.9456C52.2163 16.5132 49.5204 15.4644 49.7689 22.2997C49.918 29.246 50.3155 36.1924 50.0795 43.1264C49.9055 50.5169 49.185 57.9074 49.6074 65.2979C49.7813 71.6643 53.5705 71.726 58.8504 72.1702C63.8571 72.6143 68.1681 72.8488 73.3362 72.6637Z" fill="white"/>
<path d="M69.8321 73.959C66.0056 73.959 62.5395 73.7369 58.7255 73.4038L58.1292 73.3545C53.2095 72.9473 48.5631 72.5648 48.3519 65.3347C48.0661 60.3255 48.3022 55.2298 48.5382 50.307C48.65 47.938 48.7619 45.4951 48.824 43.1015C48.9855 38.191 48.824 33.1817 48.6749 28.3452C48.6128 26.3341 48.5507 24.3353 48.501 22.3242C48.2525 15.6864 50.9484 15.1682 55.3463 14.8967C56.042 14.8474 56.7998 14.798 57.6198 14.724C63.2228 14.5142 68.5773 14.761 73.6212 15.4766C74.0933 15.5753 74.4909 15.6493 74.8884 15.7234C76.7519 16.0688 78.8515 16.4637 80.3175 18.0059L80.5411 18.3267C82.0816 21.5346 82.2555 25.1003 82.4171 28.5426C82.4916 29.9738 82.5537 31.331 82.7152 32.6635V32.7992C82.8146 42.5216 83.3488 52.1823 83.8954 61.2385C84.4918 66.3094 84.7775 69.5543 83.0258 71.5531C81.4356 73.3668 78.6403 73.7616 73.3355 73.8973C72.118 73.9343 70.9378 73.959 69.8072 73.959H69.8321ZM61.4587 17.1052C60.2536 17.1052 59.0361 17.1299 57.8186 17.1793C57.0359 17.2656 56.2532 17.315 55.5202 17.3643C51.6317 17.6111 50.8241 17.6604 50.9981 22.2625C51.0353 24.286 51.0975 26.2847 51.172 28.2835C51.3211 33.1571 51.4826 38.2033 51.3211 43.1879C51.2714 45.6062 51.1472 48.0614 51.0354 50.4427C50.7993 55.3039 50.5633 60.3378 50.849 65.2484C50.9857 70.307 53.2964 70.492 58.3528 70.9115L58.9615 70.9609C63.8191 71.3804 68.1052 71.6271 73.2982 71.4544C77.5595 71.3434 80.2181 71.0719 81.1747 69.9615C82.2183 68.7647 81.9574 65.8282 81.448 61.4729C80.9014 52.3304 80.3548 42.6574 80.2678 32.898C80.1063 31.5037 80.0317 30.0725 79.9572 28.6783C79.8081 25.5445 79.6466 22.3119 78.4043 19.5852C77.4725 18.7339 75.932 18.4377 74.4536 18.1663C74.0188 18.0799 73.6088 18.0059 73.1988 17.9195C69.4966 17.4013 65.546 17.1299 61.4587 17.1299V17.1052Z" fill="#005CA1"/>
<path d="M45.234 45.9763C44.6625 40.3132 45.9545 15.9948 38.252 16.2416C31.7172 16.7475 28.0523 20.671 24.6483 25.7789C19.0826 34.5636 18.2502 45.4211 17.5917 55.5507C17.5917 60.8931 17.2936 66.4945 19.3931 71.5285C20.9212 74.2058 24.8843 73.3422 27.4808 73.2188C32.7111 72.4908 38.3762 74.761 43.358 72.5525C47.2839 71.0226 44.8737 50.6401 45.1843 45.9517C45.1967 45.9517 45.2091 45.9517 45.2216 45.9517L45.234 45.9763Z" fill="white"/>
<path d="M38.0032 74.7982C36.5993 74.7982 35.1954 74.6748 33.804 74.5515C31.6423 74.354 29.6049 74.1813 27.6544 74.4527C27.145 74.4774 26.7226 74.5144 26.2754 74.5515C23.6168 74.7735 19.9891 75.082 18.3119 72.1332L18.2498 71.9975C16.2869 67.2843 16.3118 62.2257 16.3366 57.3275V55.5508C16.9454 46.0875 17.7032 34.4157 23.5795 25.1128C27.3687 19.4127 31.2821 15.5262 38.1398 14.9956C39.4816 14.9339 40.6245 15.4028 41.606 16.3281C45.7927 20.264 46.0784 32.6514 46.2648 40.8439C46.3145 42.9537 46.3517 44.7797 46.4635 45.8284L46.6002 47.1856H46.4014C46.4014 48.4811 46.4884 50.3318 46.5878 52.38C47.1344 64.0147 47.2462 72.3676 43.8173 73.7001C41.929 74.5268 39.9785 74.7735 38.0032 74.7735V74.7982ZM29.8409 71.8494C31.2324 71.8494 32.6486 71.9728 34.0401 72.0962C37.1956 72.3676 40.1773 72.6391 42.8732 71.4423C44.9727 70.628 44.3516 57.4632 44.1279 52.5157C43.9913 49.5545 43.8795 47.2226 43.9664 45.8901V45.7297C43.8795 44.5823 43.8422 42.9413 43.8049 40.9056C43.6434 34.0703 43.3577 21.3497 39.9164 18.1295C39.4194 17.6607 38.9473 17.4756 38.3013 17.4756C32.4871 17.9321 29.1576 21.251 25.6915 26.47C20.163 35.2177 19.4301 46.5441 18.8462 55.6372V57.3522C18.8213 61.979 18.7965 66.7538 20.5357 70.9858C21.393 72.38 23.4677 72.3183 26.089 72.0962C26.5611 72.0592 27.0208 72.0222 27.4432 71.9975C28.2259 71.8864 29.0334 71.8494 29.8534 71.8494H29.8409Z" fill="#005CA1"/>
<path d="M85.4864 30.5168C85.71 38.7957 86.7039 47.0252 87.3623 55.2793C87.6232 59.1411 88.0332 62.9783 88.4432 66.8278C88.7165 68.3947 88.3065 70.8006 90.4558 71.0474C93.661 71.837 96.916 71.3435 100.159 71.1461C101.115 71.0967 101.55 70.3318 101.438 69.6162C101.227 67.1856 100.904 64.7673 100.519 62.349C98.1956 49.6655 96.1706 36.8216 91.8596 24.6316C91.313 22.5094 87.7599 18.2775 85.6479 20.6834C84.6168 23.7803 85.5858 27.2843 85.4491 30.5168H85.474H85.4864Z" fill="white"/>
<path d="M94.4556 72.713C93.0517 72.713 91.6354 72.602 90.2192 72.2565C87.5978 71.8987 87.4115 69.3694 87.3121 68.0122C87.2872 67.6667 87.2624 67.3336 87.2127 67.0375C86.753 62.8302 86.3679 59.1165 86.1194 55.3657C85.9206 52.8487 85.6846 50.3194 85.4485 47.7901C84.964 42.5464 84.4671 37.13 84.2807 31.7506H84.1565L84.2062 30.4675C84.2559 29.3941 84.1689 28.2713 84.082 27.0992C83.908 24.8537 83.7341 22.5218 84.4795 20.3009L84.5541 20.0665L84.7156 19.8814C85.5604 18.9067 86.7033 18.5489 87.9332 18.8327C90.3434 19.4002 92.5796 22.4724 93.0641 24.3355C96.8409 35.0326 98.9032 46.4453 100.891 57.4878C101.164 59.0424 101.45 60.597 101.736 62.1393C102.171 64.8907 102.469 67.2966 102.667 69.5298C102.767 70.196 102.568 70.9363 102.108 71.4792C101.649 72.0344 100.978 72.3552 100.208 72.3922C99.6486 72.4292 99.0647 72.4786 98.4932 72.5156C97.1639 72.6143 95.8097 72.7253 94.4431 72.7253L94.4556 72.713ZM86.7157 30.1344V30.4922C86.8773 36.1923 87.4115 41.9789 87.9332 47.568C88.1693 50.1097 88.4053 52.6513 88.6041 55.193C88.8526 58.9191 89.2377 62.6081 89.685 66.7044C89.7347 67.0005 89.7719 67.42 89.8092 67.8518C89.9334 69.6038 90.1198 69.7765 90.6043 69.8382L90.7534 69.8629C93.1884 70.4551 95.6731 70.2577 98.3068 70.0603C98.9032 70.011 99.4871 69.9616 100.071 69.9246L100.195 69.8999V69.8629V69.7272C100.009 67.5557 99.7107 65.2115 99.2883 62.5464C99.015 61.0289 98.7292 59.4743 98.4435 57.9197C96.4682 46.9758 94.4307 35.6618 90.6788 25.0511C90.3434 23.7679 88.6787 21.5471 87.3493 21.2386C87.1257 21.1893 86.9394 21.1893 86.7406 21.3497C86.2437 23.04 86.3927 24.9277 86.5418 26.9265C86.6288 27.9875 86.7033 29.0733 86.6909 30.1467L86.7157 30.1344Z" fill="#005CA1"/>
<path d="M121.191 94.0948C120.47 86.4946 109.861 86.4823 109.973 94.4773C110.532 102.078 121.626 102.25 121.191 94.0948Z" fill="#005CA1"/>
<path d="M113.427 94.4773C113.451 96.8832 117.154 97.9443 117.949 95.3656C119.079 91.911 113.352 90.8375 113.427 94.4773Z" fill="white"/>
<path d="M24.3875 100.19C31.854 99.6964 31.1459 88.7896 23.903 88.7402C16.5607 88.9993 17.2191 100.19 24.3875 100.19Z" fill="#005CA1"/>
<path d="M24.8225 97.0315C27.7668 96.9945 27.5432 92.3554 24.6237 92.5158C21.6296 92.5405 21.7787 97.2413 24.8225 97.0315Z" fill="white"/>
<path d="M131.366 80.3996C131.403 81.3619 131.602 82.2873 132.024 83.1633C132.124 83.3854 132.26 83.5828 132.124 83.8665C131.937 84.3971 133.093 84.5328 132.931 83.9159C131.888 81.6334 131.602 79.1287 132.534 76.7475C132.596 76.5501 132.571 76.4144 132.422 76.3403C131.291 76.4514 131.49 79.4742 131.354 80.4119L131.366 80.3996Z" fill="white"/>
<path d="M11.9141 83.3609C11.8148 83.7187 12.3738 83.8174 12.4359 83.4719C12.4856 82.6823 12.9205 80.6712 12.4484 80.1406C11.6036 80.264 12.1129 82.6329 11.9141 83.3609Z" fill="white"/>
<path d="M9.92684 80.8193C9.92684 80.6219 9.87715 80.3998 9.6411 80.3628C9.0572 80.5108 9.38021 81.6213 9.19385 82.1025C9.2187 82.4726 8.69692 83.0772 9.04477 83.3363C10.0387 83.3239 9.70322 81.5349 9.95169 80.8193C9.95169 80.8193 9.92684 80.8193 9.91442 80.8193H9.92684Z" fill="white"/>
<path d="M7.42892 81.1275C7.56558 80.6463 7.00652 80.1405 6.85744 80.7821C7.01894 81.4606 6.32323 82.4477 6.64624 82.9536C7.42892 83.0523 7.32953 81.6704 7.45377 81.1399C7.45377 81.1399 7.44134 81.1399 7.42892 81.1399V81.1275Z" fill="white"/>
<path d="M133.813 80.264C133.987 81.2757 133.763 84.2738 135.714 83.6199C136.981 83.0524 137.937 81.6952 137.962 80.3133C138.273 78.4873 135.714 74.7242 134.049 77.0314C133.626 78.1295 133.9 78.9561 133.813 80.2516V80.264Z" fill="#005CA1"/>
<path d="M0.32297 80.9547C0.335394 81.9664 0.844756 83.2619 2.01256 82.5833C2.31073 82.4476 2.43496 82.1638 2.41011 81.8307C2.21134 80.782 2.74555 78.5488 1.22988 78.4624C0.149042 78.5981 0.422358 80.1404 0.347817 80.9547C0.335394 80.9547 0.32297 80.9547 0.310547 80.9547H0.32297Z" fill="#005CA1"/>
</g>
<defs>
<clipPath id="clip0_2186_964">
<rect width="138" height="100" fill="white" transform="translate(0 0.189941)"/>
</clipPath>
</defs>
</svg>
