<?xml version="1.0" encoding="utf-8"?>
<!-- Generator: Adobe Illustrator 25.0.0, SVG Export Plug-In . SVG Version: 6.00 Build 0)  -->
<svg version="1.1" id="圖層_1" xmlns="http://www.w3.org/2000/svg" xmlns:xlink="http://www.w3.org/1999/xlink" x="0px" y="0px"
	 viewBox="0 0 653 213.4" style="enable-background:new 0 0 653 213.4;" xml:space="preserve">
<style type="text/css">
	.st0{fill:#005CA1;stroke:#005CA1;}
</style>
<path class="st0" d="M32.4,2.1L32.4,2.1c51.7-3.9,243.2,0.4,298.7,1.7c26.8,0.6,72,0.3,118.8,0l5,0c48.5-0.3,98.1-0.6,129.9,0.1
	c15.9,0.4,28.1,4.4,37.6,11c9.5,6.7,16.1,16,20.7,26.9c9.2,21.9,10.2,50.4,8.9,77.2c-1.4,27.4-4.2,46.3-17,59.8
	c-12.8,13.5-35.6,21.6-77.6,27c-72.3,9.4-117.6,7.7-190.8,5.1c-23.4-0.8-49.7-1.8-80.6-2.5c-84.9-2-204.6-6.5-259.2-18.4h0
	c-3.8-0.8-7.3-4.2-10.5-9.7c-3.2-5.5-6-13-8.3-21.8c-4.6-17.7-7.3-40.7-7.6-63.6c-0.2-22.9,2-45.7,7.2-63c2.6-8.6,5.9-15.8,10-21
	C21.9,5.6,26.7,2.5,32.4,2.1z"/>
</svg>
