<?xml version="1.0" encoding="utf-8"?>
<!-- Generator: Adobe Illustrator 25.0.0, SVG Export Plug-In . SVG Version: 6.00 Build 0)  -->
<svg version="1.1" id="圖層_1" xmlns="http://www.w3.org/2000/svg" xmlns:xlink="http://www.w3.org/1999/xlink" x="0px" y="0px"
	 viewBox="0 0 264 183" style="enable-background:new 0 0 264 183;" xml:space="preserve">
<style type="text/css">
	.st0{fill:#005CA1;}
	.st1{fill:#FFFFFF;}
	.st2{fill:#F5E83A;}
</style>
<g>
	<path class="st0" d="M168.8,38.2c-0.2,0-0.3,0-0.5-0.1c-0.7-0.3-1.1-1.1-0.9-1.8c0.7-2,1.7-3.8,3-5.4c0.5-0.6,1.4-0.7,2-0.2
		c0.6,0.5,0.7,1.4,0.2,2c-1.1,1.4-1.9,2.9-2.5,4.6C169.9,37.9,169.4,38.2,168.8,38.2L168.8,38.2z M180.3,38.8c-0.5,0-1-0.3-1.3-0.7
		c-0.8-1.4-1.9-2.7-3.4-3.7c-0.6-0.4-0.8-1.3-0.4-2c0.5-0.6,1.4-0.8,2-0.4c1.8,1.2,3.3,2.9,4.3,4.7c0.4,0.7,0.1,1.6-0.6,1.9
		C180.8,38.8,180.5,38.8,180.3,38.8L180.3,38.8z M168,49.6c-0.7,0-1.3-0.5-1.4-1.2c-0.2-1.6-0.3-3.1-0.3-4.5c0-0.5,0-1,0-1.4
		c0-0.8,0.7-1.4,1.5-1.4c0.8,0,1.4,0.7,1.4,1.5c0,0.4,0,0.9,0,1.3c0,1.3,0.1,2.7,0.3,4.1c0.1,0.8-0.5,1.5-1.2,1.6L168,49.6L168,49.6
		L168,49.6z M180.4,49.9c-0.2,0-0.3,0-0.5-0.1c-0.7-0.3-1.1-1.1-0.8-1.8c0.7-1.8,1.1-3.5,1.1-5.1c0-0.8,0.7-1.4,1.5-1.4
		c0.8,0,1.4,0.7,1.4,1.5c0,1.9-0.5,3.9-1.3,6C181.5,49.5,181,49.9,180.4,49.9L180.4,49.9L180.4,49.9z M73.2,52.3
		c-0.1,0-0.3,0-0.4-0.1c-1.3-0.4-2.5-0.6-3.7-0.6c-0.5,0-0.9,0-1.3,0.1c-0.8,0.1-1.5-0.4-1.6-1.2c-0.1-0.8,0.4-1.5,1.2-1.6
		c0.5-0.1,1.1-0.1,1.7-0.1c1.5,0,3,0.2,4.6,0.7c0.8,0.2,1.2,1,1,1.8C74.4,51.9,73.8,52.3,73.2,52.3L73.2,52.3L73.2,52.3z M82.6,58.5
		c-0.4,0-0.8-0.2-1.1-0.5c-1-1.2-2.3-2.4-3.9-3.5c-0.7-0.4-0.8-1.3-0.4-2c0.4-0.7,1.3-0.8,2-0.4c1.9,1.2,3.4,2.6,4.6,4.1
		c0.5,0.6,0.4,1.5-0.2,2C83.3,58.4,82.9,58.5,82.6,58.5L82.6,58.5L82.6,58.5z M174.6,59.7c-0.3,0-0.6-0.1-0.9-0.3
		c-0.6-0.5-0.7-1.4-0.3-2c1.1-1.5,2.2-3,3.2-4.6c0.4-0.7,1.3-0.9,2-0.5c0.7,0.4,0.9,1.3,0.5,2c-1,1.7-2.1,3.3-3.3,4.8
		C175.4,59.5,175,59.7,174.6,59.7L174.6,59.7z M62.4,59.9c-0.6,0-1.1-0.3-1.3-0.9c-0.5-1.1-0.7-2.2-0.7-3.2c0-1.3,0.4-2.5,1.1-3.6
		c0.5-0.6,1.4-0.8,2-0.3c0.6,0.5,0.8,1.4,0.3,2c-0.4,0.6-0.6,1.2-0.6,1.9c0,0.6,0.2,1.4,0.5,2.1c0.3,0.7-0.1,1.6-0.8,1.9
		C62.8,59.9,62.6,59.9,62.4,59.9L62.4,59.9L62.4,59.9z M170.7,60.6c-0.6,0-1.2-0.4-1.4-1c-0.7-2-1.2-3.9-1.6-5.6
		c-0.2-0.8,0.3-1.5,1-1.7c0.8-0.2,1.5,0.3,1.7,1c0.4,1.7,0.9,3.4,1.6,5.4c0.2,0.8-0.2,1.6-0.9,1.8C171,60.6,170.8,60.7,170.7,60.6
		L170.7,60.6z M111.9,61.7c-0.6,0-1.2-0.4-1.4-1c-0.5-1.9-0.8-3.9-0.9-6v-0.2c0,0,0,0,0,0c-0.7-0.3-1-1.2-0.7-1.9c0.5-1,0.9-2,1.3-3
		c-0.1-0.3-0.2-0.6-0.1-0.9c0.3-1.8,0.7-3.6,1.3-5.7c0.2-0.6,0.6-0.9,1.2-1c0.3-1.2,0.5-2.4,0.6-3.6c-0.1-0.3-0.1-0.6,0-0.9l0.2-0.6
		c0.2-0.7,1-1.1,1.7-0.9c0.7,0.2,1.2,0.8,1.1,1.5c-0.2,1.7-0.5,3.5-0.8,5.2c-0.1,0.6-0.6,1-1.2,1.1c-0.3,1.1-0.6,2.1-0.8,3
		c0.4,0.4,0.6,1,0.4,1.5c-0.6,1.7-1.3,3.3-2.1,5c0.5,0.2,0.8,0.7,0.8,1.3c0,1.9,0.3,3.7,0.7,5.3c0.2,0.8-0.2,1.6-1,1.8
		C112.2,61.7,112,61.8,111.9,61.7L111.9,61.7L111.9,61.7z M104.1,64.3c-0.3,0-0.6-0.1-0.9-0.3c-0.6-0.5-0.7-1.4-0.2-2
		c1.2-1.5,2.3-3,3.2-4.6c0.4-0.7,1.3-0.9,2-0.4c0.7,0.4,0.9,1.3,0.5,2c-1,1.6-2.2,3.2-3.4,4.8C105,64.1,104.6,64.3,104.1,64.3
		L104.1,64.3z M69.8,68.5c-0.3,0-0.6-0.1-0.9-0.3c-1-0.7-1.9-1.5-2.8-2.4c-0.6-0.5-1.1-1.1-1.6-1.6c-0.5-0.6-0.5-1.5,0.1-2
		c0.6-0.5,1.5-0.5,2,0.1c0.5,0.5,1,1,1.5,1.5c0.8,0.8,1.7,1.5,2.6,2.2c0.6,0.5,0.7,1.4,0.2,2C70.6,68.3,70.2,68.5,69.8,68.5
		L69.8,68.5L69.8,68.5z M87.9,68.6c-0.6,0-1.2-0.4-1.4-1c-0.5-1.7-1.2-3.4-2-5c-0.4-0.7-0.1-1.6,0.6-1.9c0.7-0.4,1.6-0.1,1.9,0.6
		c0.9,1.8,1.7,3.6,2.2,5.5c0.2,0.8-0.2,1.6-1,1.8C88.1,68.6,88,68.6,87.9,68.6L87.9,68.6z M118.3,71c-0.3,0-0.6-0.1-0.9-0.3
		c-0.8-0.6-1.5-1.3-2.2-2c-0.7-0.8-1.4-1.6-2-2.4c-0.5-0.6-0.3-1.5,0.4-2c0.6-0.4,1.5-0.3,2,0.4c0.5,0.7,1.1,1.4,1.7,2.1
		c0.6,0.6,1.2,1.2,1.9,1.7c0.6,0.5,0.7,1.4,0.2,2C119.1,70.8,118.7,71,118.3,71L118.3,71L118.3,71z M174.7,71.4
		c-0.5,0-1.1-0.3-1.3-0.8c-0.8-1.7-1.5-3.5-2.2-5.4c-0.1-0.3-0.1-0.7,0-1c-1.2,1.2-2.5,2.3-3.8,3.3c-0.6,0.5-1.5,0.4-2-0.2
		c-0.5-0.6-0.4-1.5,0.2-2c1.4-1.1,2.8-2.4,4.1-3.7c0.6-0.6,1.5-0.6,2,0c0.5,0.5,0.6,1.2,0.2,1.8c0,0,0,0,0,0
		c0.7-0.3,1.6,0.1,1.8,0.8c0.7,1.9,1.4,3.6,2.1,5.2c0.3,0.7,0,1.6-0.7,1.9C175.1,71.3,174.9,71.4,174.7,71.4L174.7,71.4L174.7,71.4z
		 M96.1,72.4c-0.5,0-0.9-0.2-1.2-0.6c-0.5-0.6-0.3-1.5,0.3-2c1.1-0.8,2.2-1.7,3.5-3.1l0.5-0.5c0.5-0.6,1.5-0.6,2,0
		c0.6,0.5,0.6,1.4,0,2l-0.6,0.6c-1.5,1.5-2.7,2.5-3.9,3.4C96.7,72.4,96.4,72.4,96.1,72.4L96.1,72.4z M156.7,73.7
		c-0.6,0-1.1-0.3-1.3-0.9c-0.3-0.7,0-1.6,0.7-1.9c1.7-0.7,3.3-1.6,4.9-2.5c0.7-0.4,1.6-0.2,2,0.5c0.4,0.7,0.2,1.6-0.5,2
		c-1.7,1-3.5,1.9-5.3,2.7C157.1,73.6,156.9,73.6,156.7,73.7L156.7,73.7z M79.7,74.2c-0.2,0-0.3,0-0.5-0.1c-1.8-0.6-3.6-1.5-5.4-2.6
		c-0.7-0.4-0.9-1.3-0.5-2c0.4-0.7,1.3-0.9,2-0.5c1.7,1,3.3,1.8,4.9,2.3c0.7,0.3,1.1,1.1,0.9,1.8C80.8,73.8,80.3,74.1,79.7,74.2
		L79.7,74.2L79.7,74.2z M128.6,75.9c-0.1,0-0.2,0-0.4,0c-2-0.5-3.9-1.2-5.6-2c-0.7-0.3-1-1.2-0.7-1.9c0.3-0.7,1.2-1,1.9-0.7
		c1.6,0.7,3.3,1.3,5.2,1.8c0.8,0.2,1.2,1,1,1.7C129.8,75.4,129.2,75.9,128.6,75.9L128.6,75.9L128.6,75.9z M250.1,76.7
		c-0.1,0-0.3,0-0.4-0.1c-0.8-0.2-1.2-1-1-1.8c0.2-0.7,0.4-1.4,0.5-2.2c-0.3,0-0.5,0-0.8-0.1c-0.7-0.3-1-1.2-0.7-1.9
		c1-2.2,1.5-3.8,1.5-4.9c0-0.8,0.7-1.4,1.4-1.4h0c0.8,0,1.4,0.7,1.4,1.5c0,0.7-0.2,1.5-0.4,2.5c0.5,0.2,0.8,0.7,0.8,1.3
		c-0.1,2-0.4,4-0.9,6C251.3,76.3,250.7,76.7,250.1,76.7L250.1,76.7z M145.7,76.8c-0.7,0-1.3-0.5-1.4-1.2c-0.1-0.8,0.4-1.5,1.2-1.6
		c1.9-0.3,3.7-0.6,5.4-1.1c0.8-0.2,1.5,0.2,1.8,1c0.2,0.8-0.2,1.5-1,1.8c-1.9,0.5-3.8,0.9-5.8,1.2L145.7,76.8L145.7,76.8z
		 M139.4,77.2c-1.8,0-3.6-0.1-5.3-0.3c-0.8-0.1-1.4-0.8-1.3-1.6c0.1-0.8,0.8-1.4,1.6-1.3c1.6,0.2,3.3,0.3,5,0.3h0.6
		c0.8,0,1.4,0.6,1.4,1.4c0,0.8-0.6,1.4-1.4,1.4L139.4,77.2L139.4,77.2L139.4,77.2z M89.1,79.9L89.1,79.9c-0.9,0-1.5-0.7-1.4-1.5
		c0-0.7,0.1-1.3,0.1-2v-1c-0.8,0-1.7,0-2.6,0c-0.8-0.1-1.4-0.8-1.3-1.5c0.1-0.8,0.8-1.4,1.5-1.3c0.7,0.1,1.5,0.1,2.2,0
		c0.1-0.6,0.6-1.1,1.3-1.2c0.6-0.1,1.2,0.3,1.5,0.8c0.1,0,0.2-0.1,0.3-0.1c0.8-0.2,1.5,0.2,1.8,1c0.2,0.8-0.2,1.5-1,1.8
		c-0.3,0.1-0.5,0.1-0.8,0.2c0,0.4,0,0.9,0,1.3c0,0.7,0,1.5-0.1,2.2C90.5,79.3,89.9,79.9,89.1,79.9L89.1,79.9L89.1,79.9z M180.4,81.3
		c-0.5,0-0.9-0.2-1.2-0.6c-1.1-1.6-2.2-3.2-3.2-4.9c-0.4-0.7-0.1-1.6,0.5-1.9c0.7-0.4,1.6-0.1,2,0.5c0.9,1.6,1.9,3.2,3,4.7
		c0.5,0.6,0.3,1.5-0.3,2C181,81.2,180.7,81.3,180.4,81.3L180.4,81.3z M188.1,89.7c-0.3,0-0.7-0.1-0.9-0.3c-1.5-1.2-2.9-2.6-4.3-4.1
		c-0.5-0.6-0.5-1.5,0.1-2c0.6-0.5,1.5-0.5,2,0.1c1.3,1.4,2.6,2.7,4,3.8c0.6,0.5,0.7,1.4,0.2,2C188.9,89.5,188.5,89.7,188.1,89.7z
		 M86.7,91.1c-0.2,0-0.3,0-0.5-0.1c-0.7-0.3-1.1-1.1-0.8-1.8c0.7-1.7,1.2-3.5,1.6-5.3c0.2-0.8,1-1.2,1.7-1.1
		c0.8,0.2,1.3,0.9,1.1,1.7c-0.4,1.9-1,3.8-1.7,5.7C87.8,90.7,87.3,91,86.7,91.1L86.7,91.1z M236.5,94.6c-0.5,0-0.9-0.2-1.2-0.7
		c-0.4-0.7-0.2-1.5,0.4-2c1.5-1,3-2.1,4.4-3.3c0.5-0.4,1.1-0.5,1.6-0.2c0-0.4,0.1-0.8,0.1-1.2c0.1-0.8,0.8-1.4,1.6-1.2
		c0.1,0,0.1,0,0.2,0c-0.2-0.5-0.1-1,0.2-1.4c0.4-0.5,0.8-1,1.1-1.6c-0.3,0.2-0.7,0.2-1,0.1c-0.8-0.2-1.2-1-1.1-1.7
		c0.4-1.5,1.2-3.3,2.3-5.6c0.4-0.7,1.2-1,1.9-0.6c0.7,0.4,1,1.2,0.6,1.9c-0.8,1.7-1.6,3.4-2,4.7c0.4-0.6,0.7-1.2,1-1.8
		c0.4-0.7,1.2-1,1.9-0.6c0.7,0.4,1,1.2,0.6,1.9c-0.9,1.7-2,3.4-3.2,5c-0.4,0.5-1,0.6-1.5,0.5c0.1,0.2,0.1,0.5,0.1,0.7
		c-0.2,1.8-0.4,3.6-0.5,5.6c0,0.8-0.7,1.4-1.5,1.4c-0.8,0-1.4-0.7-1.4-1.5c0-0.6,0.1-1.2,0.1-1.8c-1.3,1.1-2.7,2.2-4.2,3.1
		C237,94.5,236.7,94.6,236.5,94.6z M197.8,95.8c-0.2,0-0.4,0-0.6-0.1c-1.8-0.8-3.6-1.7-5.2-2.8c-0.7-0.4-0.9-1.3-0.5-2
		c0.4-0.7,1.3-0.9,2-0.4c1.5,1,3.2,1.8,4.9,2.6c0.7,0.3,1,1.2,0.7,1.9C198.9,95.4,198.4,95.8,197.8,95.8L197.8,95.8L197.8,95.8z
		 M225.9,98.9c-0.7,0-1.3-0.5-1.4-1.1c-0.2-0.8,0.3-1.5,1.1-1.7c1.8-0.4,3.5-0.9,5.2-1.6c0.7-0.3,1.6,0,1.9,0.8
		c0.3,0.7,0,1.6-0.8,1.9c-1.9,0.8-3.8,1.4-5.7,1.8C226.1,98.9,226,98.9,225.9,98.9L225.9,98.9L225.9,98.9z M208.8,99
		c-0.1,0-0.2,0-0.2,0c-2-0.3-3.9-0.8-5.8-1.3c-0.8-0.2-1.2-1-1-1.8c0.2-0.8,1-1.2,1.8-1c1.7,0.5,3.6,0.9,5.4,1.2
		c0.8,0.1,1.3,0.9,1.2,1.6C210.1,98.5,209.5,99,208.8,99L208.8,99z M217.5,99.7c-1.1,0-2.1,0-3.1-0.1c-0.8,0-1.4-0.7-1.4-1.5
		s0.7-1.4,1.5-1.4c1.8,0.1,3.7,0.1,5.6,0c0.8,0,1.5,0.6,1.5,1.4s-0.6,1.5-1.4,1.5C219.3,99.6,218.4,99.6,217.5,99.7L217.5,99.7
		L217.5,99.7z M81.3,101.1c-0.3,0-0.6-0.1-0.8-0.3c-0.6-0.5-0.8-1.3-0.4-2c1.1-1.5,2-3.1,2.9-4.7c0.4-0.7,1.2-1,1.9-0.6
		c0.7,0.4,1,1.2,0.6,1.9c-0.9,1.7-2,3.4-3.1,5C82.2,100.9,81.7,101.1,81.3,101.1L81.3,101.1z M242.9,106c-0.7,0-1.4-0.6-1.4-1.3
		c0-0.7-0.1-1.5-0.1-2.2c-0.1-1.2-0.1-2.4-0.1-3.5c0-0.8,0.6-1.4,1.4-1.5h0c0.8,0,1.4,0.6,1.4,1.4c0,1.2,0.1,2.3,0.1,3.5
		c0,0.7,0.1,1.5,0.1,2.2C244.4,105.2,243.8,105.9,242.9,106L242.9,106L242.9,106z M73.8,109.8c-0.4,0-0.7-0.1-1-0.4
		c-0.5-0.6-0.5-1.5,0-2c1.4-1.3,2.7-2.7,3.9-4.1c0.5-0.6,1.4-0.7,2-0.1s0.7,1.4,0.1,2c-1.2,1.4-2.6,2.9-4,4.2
		C74.5,109.6,74.2,109.8,73.8,109.8L73.8,109.8z M65,117.1c-0.5,0-0.9-0.2-1.2-0.6c-0.5-0.6-0.3-1.5,0.3-2c1.5-1.1,3-2.3,4.5-3.5
		c0.6-0.5,1.5-0.4,2,0.2c0.5,0.6,0.4,1.5-0.2,2c-1.5,1.2-3,2.4-4.6,3.6C65.7,117,65.4,117.1,65,117.1L65,117.1L65,117.1z M244,117.3
		c-0.7,0-1.4-0.5-1.4-1.3c-0.2-1.9-0.4-3.8-0.6-5.7c-0.1-0.8,0.5-1.5,1.3-1.6c0.8-0.1,1.5,0.5,1.6,1.3c0.2,1.9,0.4,3.8,0.6,5.7
		c0.1,0.8-0.5,1.5-1.3,1.6L244,117.3L244,117.3z M55.4,123.4c-0.5,0-1-0.3-1.2-0.7c-0.4-0.7-0.2-1.6,0.5-2c1.7-1,3.3-2,4.8-3
		c0.7-0.4,1.5-0.2,2,0.4c0.4,0.7,0.2,1.5-0.4,2c-1.6,1-3.2,2-4.9,3C55.9,123.3,55.7,123.4,55.4,123.4L55.4,123.4L55.4,123.4z
		 M245.3,128.7c-0.7,0-1.3-0.5-1.4-1.3c-0.2-1.7-0.4-3.4-0.6-5.1l-0.1-0.6c-0.1-0.8,0.5-1.5,1.3-1.6c0.8-0.1,1.5,0.5,1.6,1.3
		l0.1,0.6c0.2,1.7,0.4,3.4,0.6,5.1c0.1,0.8-0.5,1.5-1.3,1.6H245.3L245.3,128.7z M45.3,128.8c-0.5,0-1-0.3-1.3-0.8
		c-0.3-0.7-0.1-1.6,0.7-1.9c1.7-0.8,3.4-1.7,5.1-2.6c0.7-0.4,1.6-0.1,1.9,0.6c0.4,0.7,0.1,1.6-0.6,1.9c-1.7,0.9-3.4,1.8-5.2,2.6
		C45.7,128.7,45.5,128.8,45.3,128.8z M34.8,133.4c-0.6,0-1.1-0.3-1.3-0.9c-0.3-0.7,0-1.6,0.8-1.9c1.8-0.7,3.5-1.5,5.2-2.2
		c0.7-0.3,1.6,0,1.9,0.7c0.3,0.7,0,1.6-0.7,1.9c-1.8,0.8-3.5,1.5-5.3,2.3C35.2,133.4,35,133.4,34.8,133.4L34.8,133.4L34.8,133.4z
		 M24,137.4c-0.6,0-1.2-0.4-1.4-1c-0.2-0.8,0.2-1.6,0.9-1.8c1.7-0.5,3.4-1.1,5.4-1.9c0.7-0.3,1.6,0.1,1.9,0.8
		c0.3,0.7-0.1,1.6-0.8,1.8c-2,0.7-3.7,1.4-5.5,1.9C24.3,137.4,24.2,137.4,24,137.4L24,137.4L24,137.4z M12.9,140
		c-0.7,0-1.3-0.5-1.4-1.3c-0.1-0.8,0.5-1.5,1.2-1.6c1.8-0.2,3.6-0.5,5.5-1c0.8-0.2,1.5,0.3,1.7,1.1c0.2,0.8-0.3,1.5-1.1,1.7
		c-2,0.5-3.9,0.8-5.8,1L12.9,140L12.9,140z M246.4,140.1c-0.7,0-1.4-0.6-1.4-1.3c-0.1-1.9-0.3-3.8-0.5-5.7c-0.1-0.8,0.5-1.5,1.3-1.6
		c0.8-0.1,1.5,0.5,1.6,1.3c0.2,1.9,0.4,3.8,0.5,5.7C247.9,139.3,247.3,140,246.4,140.1L246.4,140.1L246.4,140.1z M7.1,140.3
		L7.1,140.3c-2,0-4.1-0.2-5.9-0.5c-0.8-0.1-1.3-0.9-1.2-1.7c0.1-0.8,0.9-1.3,1.7-1.2c1.8,0.3,3.6,0.5,5.5,0.5c0.8,0,1.4,0.7,1.4,1.4
		C8.6,139.7,7.9,140.3,7.1,140.3L7.1,140.3L7.1,140.3z M175.1,141.1c-0.1,0-0.2,0-0.3,0c-0.8-0.2-1.2-1-1.1-1.7l0.2-0.7
		c0.2-0.8,1-1.2,1.7-1.1c0.8,0.2,1.2,1,1.1,1.7l-0.2,0.7C176.3,140.6,175.7,141.1,175.1,141.1L175.1,141.1z M246.8,151.5
		c-0.8,0-1.4-0.7-1.4-1.4v-0.5c0-1.6-0.1-3.5-0.1-5.2c0-0.8,0.6-1.5,1.4-1.5c0.8,0,1.5,0.6,1.5,1.4c0.1,1.7,0.2,3.6,0.2,5.3v0.5
		C248.3,150.9,247.7,151.5,246.8,151.5L246.8,151.5L246.8,151.5z M173.2,152.3h-0.1c-0.8-0.1-1.4-0.7-1.3-1.5
		c0.1-1.8,0.4-3.7,0.8-5.8c0.1-0.8,0.9-1.3,1.7-1.2c0.8,0.1,1.3,0.9,1.2,1.7c-0.4,2-0.6,3.8-0.7,5.5
		C174.5,151.8,173.9,152.4,173.2,152.3L173.2,152.3z M244.7,162.6c-0.2,0-0.4,0-0.6-0.1c-0.7-0.3-1.1-1.2-0.7-1.9
		c0.8-1.7,1.3-3.4,1.6-5.1c0.1-0.8,0.9-1.3,1.7-1.1c0.8,0.1,1.3,0.9,1.1,1.7c-0.4,1.9-1,3.8-1.8,5.7
		C245.7,162.3,245.2,162.6,244.7,162.6L244.7,162.6L244.7,162.6z M174.4,163.6c-0.6,0-1.1-0.4-1.4-1c-0.6-1.8-1-3.8-1.2-5.9
		c-0.1-0.8,0.5-1.5,1.3-1.6c0.8-0.1,1.5,0.5,1.6,1.3c0.2,1.9,0.5,3.6,1.1,5.2c0.3,0.7-0.1,1.6-0.9,1.8
		C174.7,163.6,174.5,163.6,174.4,163.6L174.4,163.6L174.4,163.6z M238.7,172.4c-0.3,0-0.6-0.1-0.9-0.3c-0.6-0.5-0.7-1.4-0.2-2
		c0.5-0.6,1-1.3,1.5-2c0.6-0.9,1.1-1.7,1.6-2.5c0.4-0.7,1.3-0.9,2-0.5c0.7,0.4,0.9,1.3,0.5,2c-0.5,0.8-1.1,1.7-1.7,2.6
		c-0.5,0.8-1.1,1.5-1.6,2.2C239.6,172.2,239.1,172.4,238.7,172.4L238.7,172.4L238.7,172.4z M180.9,172.8c-0.3,0-0.6-0.1-0.9-0.3
		c-0.4-0.3-0.7-0.6-1.1-0.9c-1.2-1.1-2.2-2.2-3.1-3.5c-0.5-0.6-0.3-1.5,0.3-2c0.6-0.5,1.5-0.3,2,0.3c0.8,1.1,1.7,2.1,2.7,3
		c0.3,0.3,0.6,0.6,1,0.8c0.6,0.5,0.7,1.4,0.2,2C181.7,172.7,181.3,172.9,180.9,172.8L180.9,172.8L180.9,172.8z M191,178.2
		c-0.2,0-0.3,0-0.5-0.1c-2-0.7-3.8-1.5-5.4-2.4c-0.7-0.4-1-1.2-0.6-1.9c0.4-0.7,1.2-1,1.9-0.6c1.5,0.8,3.2,1.5,5.1,2.2
		c0.7,0.3,1.1,1.1,0.9,1.8C192.1,177.9,191.6,178.2,191,178.2L191,178.2z M230,179.7c-0.5,0-1-0.3-1.3-0.7c-0.4-0.7-0.1-1.6,0.6-1.9
		c1.6-0.9,3.1-1.9,4.5-3.1c0.6-0.5,1.5-0.4,2,0.2c0.5,0.6,0.5,1.5-0.2,2c-1.5,1.3-3.2,2.5-5,3.4C230.5,179.7,230.3,179.7,230,179.7
		L230,179.7z M202,181.3c-0.1,0-0.2,0-0.3,0c-2.1-0.4-3.9-0.9-5.7-1.4c-0.8-0.2-1.2-1-1-1.8c0.2-0.8,1-1.2,1.8-1
		c1.7,0.5,3.5,0.9,5.5,1.3c0.8,0.2,1.3,0.9,1.1,1.7C203.3,180.8,202.7,181.3,202,181.3L202,181.3L202,181.3z M219.1,183
		c-0.7,0-1.4-0.6-1.4-1.3c-0.1-0.8,0.5-1.5,1.3-1.5c1.5-0.1,3-0.4,4.3-0.7c0.3-0.1,0.7-0.2,1-0.3c0.8-0.2,1.5,0.2,1.8,1
		c0.2,0.8-0.2,1.5-1,1.8c-0.4,0.1-0.8,0.2-1.1,0.3c-1.5,0.4-3.1,0.6-4.8,0.8L219.1,183L219.1,183L219.1,183z M213.4,183L213.4,183
		c-1.9-0.1-3.8-0.3-5.9-0.6c-0.8-0.1-1.3-0.9-1.2-1.6c0.1-0.8,0.9-1.3,1.6-1.2c2,0.3,3.9,0.5,5.6,0.6c0.8,0,1.4,0.7,1.4,1.5
		C214.7,182.4,214.1,183,213.4,183L213.4,183z"/>
	<ellipse class="st1" cx="112.8" cy="19.4" rx="12" ry="11.9"/>
	<path class="st2" d="M105,16.7c2.2-4,7.5-5.7,11.5-3.4c2.9,1.6,4.9,5.2,3.2,8.3c-2.1,3.8-7.7,5.7-11.7,4.6
		C103.8,24.7,103,20.4,105,16.7z M125.4,6.5c-3.1-2.7-7-5.1-11.2-5.2c-3.7-0.1-7.4,1.4-10.4,3.5c-7.4,5.1-9.6,13.5-8.1,22
		c1.7,10.4,7.1,20.5,14.4,28.1c0.3,0.3,1,0.1,1.7-0.2c0.7-0.3,1.4-0.8,1.8-1.3c6.3-6.3,10.9-14,14-22.3
		C130.5,22.9,132.9,12.9,125.4,6.5L125.4,6.5L125.4,6.5z"/>
	<path class="st0" d="M106.3,17l-0.2,0.3c-0.9,1.7-1.1,3.5-0.6,5c0.5,1.2,1.5,2.2,2.9,2.7c3.6,1,8.4-0.9,10.1-4
		c1.3-2.4-0.3-5.3-2.7-6.6c-1.6-0.9-3.5-1.1-5.4-0.6C108.7,14.3,107.2,15.5,106.3,17L106.3,17z M110.5,27.8c-1,0-1.9-0.1-2.9-0.4
		c-2.3-0.8-3.8-2.3-4.5-4.2c-0.6-1.6-0.6-3.4-0.1-5.2h-0.2l1-1.9c1.2-2.3,3.4-4,5.9-4.7c2.5-0.7,5.2-0.5,7.4,0.8
		c3.5,2,5.8,6.2,3.7,10.1C119,25.6,114.7,27.8,110.5,27.8L110.5,27.8z M113.7,2.6c-3.6,0-7,1.8-9.2,3.3c-8.6,5.9-8.5,15.5-7.6,20.7
		c1.6,9.7,6.6,19.5,13.7,27.1c0.1,0,0.3-0.1,0.4-0.2c0.5-0.2,1.1-0.6,1.5-1c5.9-5.9,10.5-13.3,13.7-21.8c2.8-7.5,5.1-16.9-1.5-22.9
		l-0.2-0.2c-3.6-3.1-7.1-4.8-10.4-4.9C114,2.6,113.9,2.6,113.7,2.6L113.7,2.6z M110.4,56.3c-0.6,0-1.1-0.3-1.4-0.6
		c-7.6-8-13-18.4-14.7-28.7c-1.6-9.9,1.5-18.3,8.7-23.2c3.8-2.6,7.6-3.9,11.2-3.8c3.8,0.1,7.7,1.9,11.7,5.2h0l0.4,0.3
		c8,7,5.5,17.5,2.4,25.9c-3.3,8.9-8.1,16.6-14.3,22.8c-0.6,0.6-1.4,1.2-2.2,1.5C111.5,56.2,110.9,56.3,110.4,56.3L110.4,56.3z"/>
	<ellipse class="st1" cx="246.9" cy="55.7" rx="12" ry="11.9"/>
	<path class="st2" d="M239,52c2-3.8,7-5.3,10.8-3.2c2.7,1.5,4.6,4.8,3,7.8c-2,3.6-7.2,5.3-11,4.3C237.9,59.4,237.1,55.4,239,52
		L239,52z M258.1,42.5c-2.9-2.5-6.5-4.7-10.5-4.9c-3.5-0.1-6.9,1.3-9.7,3.3c-6.9,4.7-8.9,12.6-7.6,20.6c1.6,9.7,6.6,19.2,13.4,26.3
		c0.3,0.3,0.9,0.1,1.5-0.2c0.6-0.3,1.3-0.8,1.7-1.2c5.9-5.9,10.2-13.1,13.1-20.9C262.8,57.8,265,48.5,258.1,42.5L258.1,42.5z"/>
	<path class="st0" d="M240.2,52.3l-0.1,0.3c-0.8,1.6-1,3.2-0.5,4.6c0.4,1.1,1.4,2,2.7,2.5c3.4,0.9,7.8-0.8,9.4-3.7
		c1.2-2.2-0.3-4.8-2.5-6.1c-1.5-0.8-3.2-1-4.9-0.5C242.5,49.8,241.1,50.9,240.2,52.3z M244.1,62.4c-0.9,0-1.8-0.1-2.6-0.3
		c-2.1-0.8-3.6-2.1-4.3-4c-0.7-2-0.6-4.3,0.5-6.4l0.2-0.3c1.2-2.2,3.2-3.8,5.6-4.5c2.4-0.7,4.8-0.4,6.9,0.8c3.3,1.8,5.5,5.9,3.5,9.5
		C252,60.6,247.8,62.4,244.1,62.4L244.1,62.4z M247.2,38.9c-3.4,0-6.5,1.7-8.6,3.1c-5.9,4-8.4,11.1-7.1,19.3
		c1.5,9,6.1,18.2,12.8,25.3c0.1,0,0.2-0.1,0.3-0.2c0.5-0.2,1-0.6,1.4-1c5.5-5.5,9.8-12.4,12.8-20.4c2.6-7.1,4.8-16-1.5-21.5
		c-3.4-2.9-6.6-4.5-9.7-4.6C247.4,38.9,247.3,38.9,247.2,38.9L247.2,38.9z M244.1,89.1c-0.6,0-1-0.2-1.3-0.5
		c-7.2-7.5-12.2-17.3-13.8-27c-1.5-9.2,1.4-17.2,8.2-21.8c2.4-1.7,6.2-3.6,10.5-3.5c3.7,0.1,7.5,1.9,11.3,5.2
		c7.6,6.6,5.2,16.5,2.3,24.3c-3.1,8.4-7.6,15.5-13.4,21.3c-0.6,0.6-1.3,1.1-2.1,1.4C245.1,89,244.6,89.1,244.1,89.1L244.1,89.1z"/>
	<ellipse class="st1" cx="176.7" cy="119" rx="8.9" ry="8.9"/>
	<path class="st2" d="M167.9,116.3c2-3.8,7-5.3,10.7-3.2c2.7,1.5,4.6,4.8,3,7.7c-2,3.6-7.1,5.3-10.9,4.3
		C166.8,123.7,166,119.7,167.9,116.3L167.9,116.3z M186.9,106.8c-2.9-2.5-6.5-4.7-10.4-4.9c-3.5-0.1-6.9,1.3-9.7,3.2
		c-6.9,4.7-8.9,12.5-7.6,20.4c1.6,9.6,6.6,19,13.3,26.1c0.3,0.3,0.9,0.1,1.5-0.2c0.6-0.3,1.3-0.8,1.7-1.2c5.8-5.9,10.1-13,13-20.7
		C191.5,122.1,193.8,112.8,186.9,106.8L186.9,106.8z"/>
	<path class="st0" d="M174.9,113.4c-0.6,0-1.3,0.1-1.9,0.3c-1.7,0.5-3.2,1.7-4,3.2c-0.8,1.6-1,3.2-0.5,4.5c0.4,1.1,1.4,2,2.7,2.5
		c2.9,0.8,7.6-0.5,9.3-3.7c1.2-2.2-0.3-4.8-2.5-6C177,113.7,176,113.4,174.9,113.4z M172.9,126.6c-0.9,0-1.8-0.1-2.6-0.3
		c-2.1-0.8-3.6-2.1-4.3-4c-0.8-2-0.5-4.5,0.7-6.7c1.1-2.1,3.2-3.8,5.6-4.4c2.4-0.7,4.8-0.4,6.9,0.7c3.3,1.8,5.4,5.9,3.5,9.5
		C180.8,124.9,176.6,126.6,172.9,126.6L172.9,126.6z M176.1,103.2c-3.4,0-6.5,1.6-8.6,3c-8,5.5-7.8,14.4-7,19.2
		c1.5,8.9,6.1,18.1,12.7,25.1c0.1,0,0.2-0.1,0.3-0.2c0.5-0.2,1.1-0.6,1.4-1c5.5-5.5,9.7-12.3,12.7-20.3c2.6-7.1,4.8-15.9-1.5-21.4
		l-0.6-0.5c-3.2-2.6-6.2-3.9-9-4C176.3,103.2,176.2,103.2,176.1,103.2z M172.9,153.1c-0.5,0-1-0.2-1.3-0.6
		c-7.1-7.4-12.1-17.2-13.7-26.8c-1.5-9.2,1.4-17.1,8.1-21.7c3.5-2.4,7.1-3.6,10.4-3.5c3.6,0.1,7.4,1.9,11.2,5.2l2.6,2.3h-0.5
		c4.9,6.4,2.7,15,0.1,21.9c-3.1,8.3-7.5,15.4-13.3,21.2c-0.3,0.3-1.1,1-2.1,1.4C174,153,173.4,153.2,172.9,153.1L172.9,153.1z"/>
</g>
</svg>
